<svg width="96" height="102" viewBox="0 0 96 102" fill="none" xmlns="http://www.w3.org/2000/svg">
<path d="M23.8904 78.1096C10.6961 64.9153 10.6961 43.5231 23.8904 30.3288C37.0847 17.1344 58.477 17.1344 71.6713 30.3288C84.8656 43.5231 84.8656 64.9153 71.6713 78.1096C58.477 91.3039 37.0847 91.3039 23.8904 78.1096Z" fill="#E0E0E0"/>
<path d="M28.4239 8.55306C29.0147 9.29439 29.3751 10.1927 29.4605 11.1369C29.5459 12.081 29.3524 13.0294 28.9042 13.8647C28.4815 14.6235 27.838 15.3055 27.7419 16.1652C27.5835 17.5627 28.9378 18.821 28.7025 20.2137C28.5536 21.1742 27.7419 21.8322 27.3001 22.6823C27.0271 23.2351 26.9169 23.8542 26.9823 24.4673C27.0478 25.0804 27.2863 25.6622 27.6699 26.1449C28.2846 26.8941 29.2499 27.3696 29.6486 28.258C29.9463 28.9112 29.8743 29.6988 30.1288 30.3568C30.3556 30.8719 30.7119 31.3196 31.163 31.6562C31.6141 31.9928 32.1446 32.207 32.703 32.2778C33.8259 32.4127 34.9638 32.3493 36.0648 32.0905L35.8199 30.8755C36.0282 31.1981 36.312 31.4652 36.6467 31.6535C36.9814 31.8417 37.357 31.9456 37.7409 31.956C38.51 31.9714 39.2762 31.8577 40.0077 31.6199C40.464 29.5595 40.9106 27.384 40.2671 25.3765C39.6812 23.5707 38.298 22.1588 37.1454 20.6508C35.8657 18.9765 34.8412 17.1217 34.1054 15.147C33.5771 13.7302 33.1977 12.2655 32.4581 10.9207C31.7185 9.57601 30.537 8.41378 29.0578 8.13043" fill="#263238"/>
<path d="M6.45211 36.9315L13.1373 37.4118L13.2045 35.6925C13.2937 34.8405 13.0905 33.9835 12.6282 33.2624C12.5544 33.1354 12.5009 32.9977 12.4697 32.8541C12.4217 32.3451 13.1709 29.7901 13.4303 28.8536C13.7568 27.7298 13.1181 27.1343 12.8684 27.5953C12.4169 28.4358 11.2211 32.0425 10.8465 32.3979C10.4719 32.7533 10.688 30.8659 10.688 30.8659C11.2739 26.8941 11.5284 26.3178 10.8225 26.1689C10.0108 25.996 9.11755 31.908 9.11755 31.908C9.11755 31.908 9.23761 31.082 8.60367 30.9139C7.96973 30.7458 7.67676 31.5574 7.67676 31.5574C7.75841 31.1396 7.15809 31.0772 7.15809 31.0772C5.65969 31.2837 6.43771 36.9844 6.43771 36.9844L13.1229 37.4646L16.3262 59.8206L19.7457 54.581L28.6689 60.9492L20.6245 70.5544C19.9258 71.3859 19.0465 72.047 18.0536 72.4873C17.0607 72.9276 15.9804 73.1354 14.8951 73.095C13.1205 73.0305 11.4342 72.3051 10.1671 71.0611C8.89998 69.8171 8.14365 68.1444 8.04657 66.3714L6.45211 36.9315Z" fill="#EB996E"/>
<path d="M11.6821 36.994C11.711 36.9603 11.3556 36.6482 10.8801 36.0623C10.604 35.7194 10.3536 35.3566 10.1309 34.9769C9.99773 34.7526 9.87591 34.5218 9.76591 34.2853C9.63093 34.0643 9.55181 33.8138 9.53539 33.5553C9.53724 33.4953 9.55636 33.4372 9.59043 33.3878C9.6245 33.3384 9.67209 33.2998 9.72749 33.2768C9.85894 33.2547 9.994 33.2766 10.1117 33.3392C10.3742 33.4627 10.6236 33.6124 10.8561 33.7858C11.2319 34.07 11.5567 34.4159 11.8166 34.8088L11.8935 34.9192L11.9511 34.804C12.0887 34.5563 12.2673 34.3339 12.4794 34.146C12.4794 34.146 12.1144 34.2325 11.8022 34.7512H11.9367C11.6907 34.3218 11.3646 33.9435 10.9762 33.637C10.7336 33.4487 10.4711 33.2876 10.1933 33.1567C10.0225 33.0663 9.8252 33.0391 9.63624 33.0799C9.53482 33.1157 9.44593 33.1801 9.38031 33.2653C9.31469 33.3505 9.27514 33.4529 9.26644 33.5601C9.27518 33.8691 9.36458 34.1704 9.52578 34.4342C9.6427 34.6732 9.77257 34.9057 9.91479 35.1306C10.152 35.5161 10.4237 35.8794 10.7264 36.2159C11.0005 36.5256 11.3233 36.7884 11.6821 36.994Z" fill="#D1734A"/>
<path d="M9.03591 32.225C8.99527 32.6338 8.99527 33.0457 9.03591 33.4545C9.03591 33.8579 9.07913 34.3045 9.10795 34.78C9.12702 35.0326 9.12702 35.2862 9.10795 35.5388C9.10795 35.7741 8.88223 35.9758 8.71414 35.8798C8.54605 35.7837 8.44999 35.4956 8.37795 35.241C8.30591 34.9865 8.24829 34.732 8.19546 34.487C8.0898 34.0068 8.01296 33.5553 7.94092 33.1855C7.89358 32.7772 7.79848 32.3758 7.65757 31.9897C7.65821 32.4004 7.69516 32.8102 7.76802 33.2143C7.81605 33.5889 7.87369 34.0356 7.96974 34.5351C8.01296 34.78 8.07059 35.0393 8.14263 35.3083C8.16559 35.4664 8.2199 35.6184 8.30237 35.7553C8.38484 35.8922 8.49381 36.0113 8.62289 36.1055C8.71063 36.1456 8.80841 36.1583 8.9035 36.142C8.99858 36.1258 9.08656 36.0812 9.15598 36.0142C9.27869 35.8982 9.35399 35.7408 9.36729 35.5724C9.38249 35.3032 9.37284 35.0331 9.33847 34.7656C9.29044 34.2917 9.24723 33.8499 9.2088 33.4401C9.19345 33.0301 9.13551 32.6229 9.03591 32.225Z" fill="#D1734A"/>
<path d="M7.89289 33.9299C7.85447 33.9299 7.95052 34.2084 7.9217 34.6407C7.91305 34.879 7.84184 35.1109 7.71519 35.313C7.63355 35.3947 7.57591 35.3995 7.49907 35.313C7.41268 35.1826 7.33872 35.0443 7.27816 34.9C6.97335 34.1422 6.73395 33.3598 6.56258 32.5612C6.48758 33.4051 6.65414 34.2529 7.04284 35.0057C7.11185 35.1737 7.1971 35.3345 7.29737 35.4859C7.33266 35.5315 7.37774 35.5685 7.42928 35.5943C7.48082 35.6201 7.53751 35.6339 7.59513 35.6348C7.64997 35.6327 7.70371 35.6188 7.75263 35.5939C7.80155 35.569 7.84448 35.5338 7.87848 35.4907C7.97442 35.3628 8.03563 35.2123 8.05617 35.0537C8.08103 34.9272 8.0923 34.7984 8.08979 34.6695C8.1042 34.17 7.93611 33.9155 7.89289 33.9299Z" fill="#D1734A"/>
<path d="M36.0456 75.9573L35.4213 85.6778C54.4347 92.9633 68.5591 80.8752 68.5591 80.8752L65.716 72.1777L65.2357 56.9919L68.8857 61.0405L70.6098 59.5997L79.3073 52.3574L81.1755 50.7966L72.1322 41.2539C60.6973 28.9449 51.7981 32.7053 51.7981 32.7053L38.4277 33.9588C38.4277 33.9588 29.1779 35.2699 24.7019 43.3766C21.0568 49.9754 17.0898 56.9631 17.0898 56.9631L28.5488 65.1275L32.1939 58.4327L36.0456 75.9573Z" fill="#455A64"/>
<path d="M81.5645 54.0911C81.5645 54.6626 81.5645 55.2294 81.5309 55.8057C81.452 58.0606 81.1463 60.3019 80.6184 62.4957V62.5581C80.5511 62.8318 80.4743 63.1008 80.3975 63.3697C80.0997 64.4263 79.7059 65.358 79.3313 66.3809C79.2833 66.5106 79.2352 66.6355 79.1824 66.7652C77.9722 66.4482 74.7592 63.4033 70.8355 59.4316L79.5426 52.1701C80.6616 53.39 81.1899 53.9471 81.5645 54.0911Z" fill="#EB996E"/>
<path d="M39.6428 35.2218C39.1625 31.908 38.6198 28.431 38.6198 28.431C38.6198 28.431 34.2543 28.3109 32.6022 22.8648C31.027 17.6684 30.2009 5.28252 30.2009 5.28252C33.0623 3.64778 36.3551 2.92715 39.6377 3.2173C42.9203 3.50744 46.0357 4.79449 48.566 6.90579L51.9278 33.8723C52.3168 36.9988 49.9347 39.8275 46.5777 40.2213C43.1919 40.6151 40.0702 38.3771 39.6428 35.2218Z" fill="#EB996E"/>
<path d="M33.1113 14.6427C33.1353 14.8292 33.2309 14.9991 33.3779 15.1165C33.5248 15.2339 33.7116 15.2896 33.8989 15.2719C33.9911 15.2664 34.0812 15.2426 34.1641 15.2017C34.2469 15.1609 34.3207 15.1039 34.3811 15.034C34.4415 14.9642 34.4874 14.883 34.5159 14.7951C34.5444 14.7073 34.5551 14.6147 34.5472 14.5226C34.522 14.337 34.4259 14.1683 34.2791 14.0519C34.1323 13.9355 33.9461 13.8805 33.7596 13.8983C33.6679 13.9038 33.5781 13.9275 33.4956 13.968C33.4132 14.0086 33.3396 14.0651 33.2792 14.1345C33.2189 14.2038 33.1729 14.2844 33.1441 14.3717C33.1152 14.4589 33.1041 14.5511 33.1113 14.6427Z" fill="#263238"/>
<path d="M31.8434 14.004C31.9443 14.0857 32.4293 13.6102 33.1977 13.5237C33.9662 13.4373 34.5857 13.7303 34.6385 13.6246C34.6913 13.5189 34.5617 13.4181 34.2927 13.274C33.9279 13.0904 33.5155 13.0234 33.1113 13.0819C32.7107 13.1367 32.3376 13.3166 32.0451 13.5958C31.8482 13.7879 31.7954 13.9752 31.8434 14.004Z" fill="#263238"/>
<path d="M40.9971 13.6967C41.0212 13.8828 41.1169 14.0523 41.2641 14.1689C41.4112 14.2855 41.598 14.3401 41.7847 14.321C41.8767 14.3162 41.9668 14.2929 42.0496 14.2526C42.1324 14.2122 42.2062 14.1557 42.2667 14.0862C42.3272 14.0168 42.3731 13.9359 42.4017 13.8483C42.4303 13.7608 42.4409 13.6683 42.4331 13.5766C42.409 13.3901 42.3134 13.2202 42.1665 13.1028C42.0195 12.9854 41.8327 12.9297 41.6455 12.9474C41.5535 12.9535 41.4637 12.9778 41.3811 13.0188C41.2986 13.0599 41.2251 13.1169 41.1648 13.1866C41.1045 13.2563 41.0586 13.3373 41.0298 13.4248C41.001 13.5124 40.9899 13.6048 40.9971 13.6967Z" fill="#263238"/>
<path d="M39.9021 13.1779C40.0029 13.2596 40.488 12.7841 41.2564 12.6977C42.0248 12.6112 42.6444 12.8994 42.6972 12.7937C42.75 12.6881 42.6204 12.592 42.3514 12.4479C41.9865 12.2647 41.5742 12.1976 41.17 12.2558C40.7683 12.307 40.3941 12.4874 40.1038 12.7697C39.9117 12.9618 39.8541 13.1443 39.9021 13.1779Z" fill="#263238"/>
<path d="M37.8994 19.258C37.4759 19.1869 37.0451 19.1691 36.6171 19.2052C36.4202 19.2052 36.2281 19.2052 36.1753 19.0707C36.134 18.8697 36.1523 18.6611 36.2281 18.4704C36.3482 17.9901 36.473 17.4426 36.6027 16.8951C37.1166 14.6571 37.4576 12.8274 37.3663 12.8033C37.2751 12.7793 36.7852 14.5851 36.2761 16.8231C36.1513 17.3754 36.036 17.8989 35.9256 18.4031C35.8342 18.6561 35.8342 18.933 35.9256 19.186C35.9635 19.2511 36.0155 19.3069 36.0778 19.3493C36.1402 19.3917 36.2112 19.4196 36.2857 19.4309C36.3989 19.4454 36.5135 19.4454 36.6267 19.4309C37.0564 19.4257 37.4839 19.3677 37.8994 19.258Z" fill="#263238"/>
<path d="M38.6294 28.4309C41.2641 28.1136 43.7585 27.0693 45.8333 25.4149C45.8333 25.4149 44.551 29.4875 38.908 29.7372L38.6294 28.4309Z" fill="#D1734A"/>
<path d="M35.9736 3.56319C35.6134 4.44206 36.1801 5.48422 36.9821 5.96448C37.8282 6.403 38.7547 6.66446 39.7052 6.73289C40.657 6.80766 41.5672 7.15441 42.3274 7.73183C43.6337 8.91807 43.2879 10.6134 44.6086 12.155C44.9159 12.5882 45.3383 12.9267 45.8281 13.1321C46.3179 13.3375 46.8554 13.4017 47.3797 13.3172C48.4363 13.1684 49.805 13.4133 50.3381 14.6331C50.8712 15.853 50.2277 16.7511 49.6369 17.8701C49.0462 18.9891 49.2047 20.1369 49.5409 21.3616C49.781 22.2452 50.5398 22.9368 50.7079 23.8397C50.9769 25.2805 49.7474 26.8845 50.5783 28.066C51.4091 29.2474 53.5174 28.7239 54.4443 29.8237C54.7805 30.2127 54.9726 30.7842 55.4673 30.9379C55.7749 30.9812 56.0882 30.9239 56.3606 30.7746L60.6829 28.9448C60.5724 28.4982 60.4572 28.0468 60.3419 27.6001C60.6614 27.9278 61.0543 28.1747 61.4881 28.3203C61.9219 28.466 62.3842 28.5062 62.8367 28.4377C63.2892 28.3691 63.7188 28.1938 64.0901 27.9263C64.4613 27.6587 64.7635 27.3065 64.9716 26.8989C64.066 26.373 63.2274 25.7392 62.4742 25.0115C61.7307 24.2708 61.2789 23.2871 61.2016 22.2404C61.1583 20.9725 61.8451 19.6903 61.4609 18.4848C60.9086 16.7607 58.5793 16.3285 57.5516 14.8493C56.5911 13.4661 56.9129 11.4586 55.9187 10.0899C54.7613 8.50505 52.3168 8.43301 50.9913 6.98263C50.0932 6.02211 49.8867 4.58134 49.2335 3.41431C48.3876 2.04248 47.066 1.03033 45.5211 0.571181C43.9864 0.123356 42.3872 -0.0633432 40.7906 0.0188846C39.592 -0.0375177 38.3979 0.201625 37.3135 0.715258C36.2714 1.29637 35.4837 2.48741 35.7287 3.65924" fill="#263238"/>
<path d="M47.3797 13.3316C47.9579 13.1214 48.5832 13.0765 49.1855 13.2019C49.4865 13.2639 49.7722 13.385 50.0261 13.5581C50.28 13.7312 50.497 13.953 50.6647 14.2105C50.9721 14.7489 51.0647 15.3836 50.924 15.9874C50.7798 16.5864 50.5042 17.1458 50.1172 17.6251C49.8692 17.9846 49.5402 18.2807 49.1567 18.4896C48.9619 18.5947 48.7441 18.6497 48.5227 18.6497C48.3014 18.6497 48.0836 18.5947 47.8888 18.4896" fill="#EB996E"/>
<path d="M48.2058 16.8952C48.1385 16.9288 48.4507 17.2554 48.9742 17.0296C49.2473 16.8954 49.4587 16.6617 49.5649 16.3765C49.6857 16.0462 49.7396 15.6952 49.7234 15.3439C49.717 14.97 49.5773 14.6107 49.3296 14.3306C49.2249 14.2114 49.0942 14.1178 48.9477 14.0571C48.8012 13.9963 48.6426 13.9699 48.4843 13.98C47.9224 14.0424 47.8024 14.4603 47.8648 14.4603C47.9272 14.4603 48.1049 14.273 48.4843 14.3066C48.7195 14.3629 48.9269 14.5012 49.0695 14.6965C49.212 14.8919 49.2804 15.1316 49.2623 15.3728C49.2623 15.9971 49.1231 16.5878 48.8157 16.7751C48.5083 16.9624 48.2346 16.8568 48.2058 16.8952Z" fill="#D1734A"/>
<path d="M35.9544 3.88977C36.1732 4.49038 36.178 5.1481 35.968 5.75184C35.758 6.35559 35.346 6.86836 34.8018 7.20355C34.1774 7.56374 33.409 7.68381 32.8807 8.16406C32.389 8.69775 32.1031 9.38884 32.0739 10.1139C32.049 10.8313 31.9146 11.5407 31.6753 12.2174C31.5437 12.5513 31.3085 12.8342 31.0042 13.0244C30.6999 13.2146 30.3425 13.3021 29.9848 13.274L28.7793 9.7153C28.3375 8.409 27.8908 7.01144 28.2078 5.66192C28.6593 3.74088 30.5611 2.48261 32.4629 1.95913C33.3341 1.64962 34.2868 1.65813 35.1523 1.98314C35.9784 2.37215 36.5403 3.42392 36.1129 4.24035" fill="#263238"/>
<path d="M59.1364 29.5211C59.1364 29.5211 59.0212 29.4347 58.8531 29.2185C58.6246 28.8962 58.4885 28.5176 58.4593 28.1235C58.4381 27.4941 58.4735 26.8641 58.5649 26.2409C58.6061 25.837 58.5669 25.429 58.4497 25.0403C58.3122 24.6049 58.0811 24.2049 57.7725 23.8685C57.1434 23.1529 56.2645 22.5958 55.5057 21.8322C55.1041 21.4536 54.8051 20.9793 54.6364 20.4538C54.4949 19.8862 54.4785 19.2947 54.5884 18.7201C54.6796 18.115 54.8333 17.5002 54.9102 16.8519C55.0066 16.1786 54.9407 15.4919 54.7181 14.8492C54.4771 14.1748 54.0686 13.5728 53.5309 13.0998C52.9932 12.6268 52.344 12.2983 51.6444 12.1454C50.2325 11.8332 48.7629 12.0253 47.6102 11.4298C47.0493 11.1259 46.6051 10.6445 46.3472 10.061C46.0997 9.48811 45.8958 8.89731 45.7372 8.29369C45.581 7.70186 45.3434 7.13456 45.0313 6.60798C44.7087 6.11159 44.2432 5.72475 43.6961 5.49858C42.7172 5.1688 41.6776 5.05894 40.6513 5.17681C39.8228 5.258 38.9867 5.20939 38.1732 5.03274C37.5655 4.88862 37.0049 4.59098 36.5451 4.16827C36.2847 3.87089 36.1177 3.50342 36.0648 3.1117C36.0168 2.84756 36.0168 2.69868 36.0024 2.70348C35.9876 2.84236 35.9876 2.98243 36.0024 3.12131C36.0431 3.53351 36.211 3.92287 36.4827 4.23551C36.9462 4.68769 37.5212 5.00914 38.1492 5.16721C38.9746 5.36175 39.8257 5.42336 40.6705 5.34971C41.6697 5.24531 42.6797 5.36171 43.6289 5.69069C44.1345 5.90373 44.5633 6.26554 44.8584 6.72805C45.1563 7.23891 45.3826 7.78836 45.5307 8.36092C45.6902 8.97737 45.8957 9.58099 46.1455 10.1667C46.2867 10.4731 46.4711 10.7577 46.693 11.012C46.9265 11.2687 47.2027 11.4832 47.5094 11.6459C48.7869 12.2846 50.2517 12.0829 51.606 12.3903C52.2599 12.5395 52.8656 12.8508 53.3675 13.2956C53.8694 13.7405 54.2513 14.3045 54.4779 14.9357C54.6901 15.5425 54.7543 16.1912 54.6652 16.8279C54.5932 17.457 54.4443 18.0717 54.3531 18.6913C54.2388 19.2984 54.2602 19.9232 54.4155 20.5211C54.6008 21.0716 54.9212 21.5669 55.3472 21.9618C56.1396 22.7447 57.0185 23.2873 57.6332 23.9693C57.9163 24.2666 58.1325 24.6209 58.2675 25.0085C58.4026 25.3961 58.4532 25.8081 58.4161 26.2169C58.3322 26.8537 58.3113 27.4971 58.3536 28.138C58.3947 28.5454 58.5495 28.9332 58.8003 29.257C58.8946 29.3655 59.0087 29.4551 59.1364 29.5211Z" fill="#455A64"/>
<path d="M33.3946 32.3163C33.3142 32.2361 33.2389 32.1511 33.1689 32.0617C32.9914 31.7895 32.8918 31.474 32.8807 31.1492C32.8423 30.7266 32.9527 30.1887 32.9239 29.5836C32.8397 28.8734 32.5454 28.2045 32.0787 27.6625C31.632 27.043 31.0365 26.3995 30.878 25.535C30.7195 24.6705 31.0893 23.7436 31.2718 22.7351C31.378 22.2046 31.3566 21.6565 31.2094 21.1358C31.0308 20.6167 30.7803 20.1253 30.465 19.6759C30.1576 19.1956 29.8167 18.7634 29.5525 18.2735C29.2646 17.7927 29.0997 17.2484 29.0723 16.6887C29.095 16.1292 29.2802 15.5885 29.6053 15.1326C29.9342 14.6632 30.2006 14.1531 30.3978 13.615C30.7243 12.496 30.4698 11.401 30.3978 10.4069C30.3453 9.92738 30.355 9.44312 30.4266 8.9661C30.4969 8.51873 30.6749 8.09516 30.9453 7.73184C31.4874 7.10999 32.1531 6.60786 32.8999 6.25744C33.5288 5.95748 34.1271 5.59719 34.6865 5.18166C35.1166 4.86572 35.4778 4.46535 35.7478 4.00503C35.9147 3.71084 36.0117 3.38219 36.0312 3.04452C36.0401 2.9287 36.032 2.8122 36.0072 2.69873C36.0072 2.69873 36.0072 2.81879 35.9784 3.03971C35.9412 3.3635 35.8329 3.67508 35.6614 3.9522C35.3877 4.38775 35.0321 4.76613 34.6144 5.0664C34.0537 5.46488 33.4572 5.81054 32.8327 6.09896C32.0529 6.44878 31.357 6.96131 30.7916 7.60217C30.4933 7.98493 30.2937 8.43519 30.2105 8.91327C30.1311 9.41197 30.1166 9.91885 30.1672 10.4213C30.2345 11.4346 30.4698 12.5104 30.1672 13.5382C29.974 14.0494 29.7157 14.5336 29.3988 14.9789C29.0462 15.4722 28.8474 16.0587 28.8273 16.6646C28.8546 17.2668 29.0312 17.8526 29.3412 18.3696C29.6198 18.8786 29.9607 19.3301 30.2633 19.8103C30.5729 20.2437 30.8187 20.7192 30.9933 21.2223C31.1352 21.7059 31.1583 22.2166 31.0605 22.7111C30.8972 23.6716 30.5082 24.6321 30.6907 25.5926C30.7837 26.0327 30.9651 26.4494 31.2238 26.8173C31.4639 27.1727 31.7041 27.4849 31.949 27.7778C32.4022 28.286 32.6975 28.9151 32.7991 29.5884C32.8423 30.1839 32.7462 30.717 32.7991 31.154C32.822 31.4914 32.9421 31.815 33.1448 32.0857C33.2088 32.1811 33.2944 32.2601 33.3946 32.3163Z" fill="#455A64"/>
<path d="M64.0399 27.2687C64.0399 27.2687 63.8814 27.2687 63.5836 27.3024C63.1484 27.3116 62.7162 27.2281 62.3157 27.0574C61.6741 26.7956 61.1209 26.3557 60.7213 25.7895C60.212 25.0334 59.9151 24.1543 59.8616 23.2442C59.7463 22.2356 60.0009 21.1406 60.0297 19.916C60.0631 19.2741 59.922 18.6352 59.6215 18.067C59.2223 17.5186 58.7033 17.0685 58.1039 16.7511C57.5064 16.4402 57.0199 15.952 56.7111 15.3535C56.4908 14.6797 56.3868 13.9732 56.4037 13.2644C56.396 12.5 56.2496 11.7433 55.9715 11.0312C55.8205 10.6616 55.6005 10.3242 55.3232 10.0371C55.0126 9.76224 54.6288 9.5837 54.2186 9.5232C53.4213 9.38393 52.6481 9.46557 51.9037 9.38393C51.1813 9.33187 50.5007 9.0256 49.9827 8.51946C49.4856 8.01476 49.0765 7.43037 48.7724 6.79053C48.4507 6.1662 48.2009 5.52265 47.8936 4.90792C47.6088 4.3026 47.2454 3.73743 46.813 3.22702C46.4014 2.73187 45.8589 2.36242 45.2474 2.16084C44.6683 1.99497 44.0543 1.99497 43.4752 2.16084C42.9562 2.30782 42.4502 2.49736 41.9624 2.72755C41.1581 3.15986 40.2802 3.43837 39.3738 3.54879C38.6857 3.58236 37.9979 3.47617 37.3519 3.23662C36.8003 3.03004 36.2836 2.74012 35.8199 2.37696C35.9221 2.49144 36.0364 2.5945 36.1609 2.68433C36.5151 2.95126 36.9046 3.16783 37.3183 3.32787C37.9728 3.58911 38.6743 3.71176 39.3786 3.68806C40.3045 3.59098 41.2038 3.32053 42.0296 2.89083C42.5105 2.66632 43.0104 2.48472 43.5232 2.34814C44.0661 2.19203 44.642 2.19203 45.1849 2.34814C45.7575 2.54391 46.2646 2.8947 46.6497 3.36149C47.0646 3.86218 47.4132 4.41422 47.6871 5.00397C48.2682 6.19501 48.7196 7.61658 49.8146 8.68755C50.0956 8.95794 50.4204 9.17878 50.7751 9.3407C51.1339 9.49443 51.5149 9.59008 51.9037 9.62405C52.6769 9.7057 53.455 9.62406 54.1994 9.75853C54.556 9.8143 54.8893 9.97094 55.1599 10.21C55.4129 10.4748 55.6148 10.7842 55.7554 11.1225C56.0173 11.8085 56.1571 12.535 56.1684 13.2692C56.1535 14.0065 56.2656 14.7408 56.4998 15.44C56.829 16.0803 57.3493 16.6024 57.9886 16.9336C58.5549 17.2324 59.0472 17.6541 59.4294 18.1679C59.713 18.7018 59.8474 19.3024 59.8184 19.9064C59.8184 21.0878 59.5542 22.2164 59.6791 23.2682C59.7478 24.2043 60.0662 25.1048 60.6012 25.876C61.0206 26.4509 61.5954 26.8941 62.2581 27.1535C62.6724 27.32 63.119 27.3906 63.5644 27.36C63.7262 27.3503 63.886 27.3196 64.0399 27.2687Z" fill="#455A64"/>
<path d="M28.7457 8.96129C28.7852 8.47831 28.9207 8.00807 29.1443 7.57815C29.4075 7.12593 29.7547 6.72819 30.1672 6.40632C30.6821 6.02034 31.2417 5.69784 31.8337 5.4458C32.4629 5.15285 33.0824 4.89351 33.6155 4.59575C34.0966 4.33588 34.5408 4.01285 34.9362 3.63523C35.2022 3.38031 35.4245 3.08339 35.5942 2.75636C35.6696 2.64291 35.7158 2.51257 35.7286 2.37695C35.4771 2.79282 35.1701 3.17251 34.8161 3.50556C34.4154 3.84532 33.9752 4.13557 33.505 4.37003C32.9816 4.64857 32.3668 4.89831 31.7281 5.19127C31.1179 5.45986 30.5435 5.8035 30.0184 6.21422C29.5909 6.56034 29.2408 6.99226 28.9906 7.4821C28.8184 7.8124 28.7201 8.17619 28.7025 8.54827C28.6866 8.68745 28.7013 8.82842 28.7457 8.96129Z" fill="#455A64"/>
<path d="M39.5899 11.2665C39.638 11.3241 39.8061 11.2665 40.0702 11.1849C40.4246 11.1031 40.7871 11.0612 41.1508 11.06C41.5158 11.056 41.8801 11.0947 42.2362 11.1753C42.5099 11.2377 42.678 11.3097 42.7164 11.2569C42.7548 11.2041 42.654 11.0168 42.361 10.8487C41.9833 10.656 41.5652 10.5555 41.1412 10.5555C40.7171 10.5555 40.2991 10.656 39.9213 10.8487C39.6716 11.0312 39.5659 11.2233 39.5899 11.2665Z" fill="#263238"/>
<path d="M32.5974 12.2126C32.6214 12.3471 33.1209 12.3903 33.7212 12.3039C34.3215 12.2174 34.7874 12.0542 34.7874 11.8957C34.7874 11.7372 34.2639 11.7228 33.6636 11.8092C33.0632 11.8957 32.5782 12.0782 32.5974 12.2126Z" fill="#263238"/>
<path d="M49.4064 18.3359C49.4064 18.3359 49.3584 18.3696 49.2863 18.456C49.1829 18.5823 49.0958 18.721 49.027 18.869C48.7785 19.4195 48.7047 20.033 48.8157 20.6268C48.9716 21.491 49.2616 22.3255 49.6754 23.1001C49.9048 23.5433 49.9792 24.0505 49.8867 24.5409C49.7173 25.0557 49.485 25.5477 49.1951 26.0057C48.9046 26.4867 48.7775 27.0488 48.8329 27.608C48.8883 28.1672 49.1232 28.6935 49.5025 29.1081C49.826 29.4777 50.2551 29.7392 50.7319 29.8573C51.1349 29.941 51.545 29.986 51.9566 29.9918C52.5344 29.976 53.105 30.1224 53.6039 30.4144C53.775 30.5393 53.9256 30.69 54.0505 30.8611C54.0505 30.8611 54.0505 30.7986 53.9881 30.7026C53.9046 30.5604 53.7936 30.4363 53.6615 30.3376C53.1673 30.0014 52.5831 29.8223 51.9854 29.8237C51.5861 29.8062 51.1891 29.7532 50.7992 29.6652C50.3614 29.5498 49.9694 29.3035 49.6754 28.9592C49.3532 28.5841 49.1464 28.1237 49.0798 27.6337C49.0273 27.105 49.1451 26.5732 49.416 26.1161C49.7127 25.6373 49.9467 25.1224 50.1124 24.5841C50.2076 24.05 50.1232 23.4994 49.8723 23.0185C49.6658 22.5382 49.44 22.1588 49.3008 21.7506C49.1578 21.3768 49.0485 20.9911 48.9742 20.598C48.8549 20.0336 48.8999 19.447 49.1038 18.9074C49.2719 18.528 49.4256 18.3503 49.4064 18.3359Z" fill="#263238"/>
<path d="M27.1032 31.2645C27.1994 31.3086 27.3049 31.3284 27.4106 31.3221C27.5634 31.3127 27.7128 31.2726 27.8498 31.2041C27.9868 31.1356 28.1086 31.0401 28.2078 30.9235C28.3728 30.744 28.4942 30.5288 28.5625 30.2948C28.6308 30.0607 28.6442 29.814 28.6016 29.5739C28.4518 28.9538 28.1286 28.3892 27.6699 27.9459C27.1214 27.4461 26.6374 26.8798 26.2291 26.2602C26.0337 25.9084 25.939 25.5096 25.9554 25.1075C25.9835 24.6791 26.0842 24.2585 26.2531 23.8637C26.6846 23.0095 27.0694 22.1326 27.4058 21.2367C27.5549 20.7287 27.5549 20.1886 27.4058 19.6806C27.2159 19.1899 26.9761 18.72 26.6902 18.2783C26.4166 17.8654 26.307 17.3653 26.3828 16.8759C26.5125 16.4104 26.7684 15.9898 27.1224 15.6609C27.4538 15.3055 27.8188 14.9741 28.1262 14.5947C28.4357 14.2225 28.6588 13.7861 28.7793 13.3172C28.9667 12.4549 28.9535 11.561 28.7409 10.7046C28.5728 9.90737 28.3423 9.18698 28.1982 8.51943C27.8956 7.46868 27.9496 6.34728 28.3519 5.33051C28.5194 4.97421 28.7468 4.64932 29.0242 4.37C29.0242 4.37 29.0242 4.37 28.957 4.41322C28.8948 4.45731 28.8369 4.50716 28.7841 4.5621C28.5651 4.78391 28.3892 5.04446 28.2654 5.33051C28.059 5.76014 27.9337 6.22414 27.8956 6.69925C27.8524 7.32567 27.9009 7.95506 28.0397 8.56745C28.179 9.24462 28.3951 9.9698 28.5536 10.7574C28.7436 11.5839 28.7436 12.4427 28.5536 13.2692C28.4461 13.705 28.2408 14.1107 27.9533 14.4554C27.6603 14.8156 27.3001 15.1374 26.9543 15.5024C26.5697 15.8576 26.2891 16.3108 26.1427 16.8135C26.0588 17.3598 26.1766 17.918 26.4741 18.3839C26.756 18.8103 26.9941 19.264 27.1848 19.7383C27.3231 20.2086 27.3231 20.7087 27.1848 21.179C26.856 22.0657 26.4809 22.9346 26.061 23.782C25.8835 24.2028 25.7811 24.6514 25.7585 25.1075C25.7437 25.5472 25.8501 25.9825 26.0658 26.3658C26.4898 26.9949 26.9916 27.5677 27.5594 28.0707C28.0046 28.4847 28.3241 29.0156 28.4815 29.6028C28.5289 29.8238 28.5236 30.0528 28.466 30.2714C28.4084 30.49 28.3002 30.692 28.1502 30.861C27.9716 31.0889 27.7116 31.2386 27.425 31.2789C27.2089 31.2645 27.1032 31.2356 27.1032 31.2645Z" fill="#263238"/>
<path d="M8.25788 37.7384C8.57049 37.3329 8.91931 36.9568 9.30004 36.6145C9.72935 36.3378 10.1807 36.0969 10.6496 35.8942C10.3768 35.8776 10.1035 35.9154 9.8455 36.0053C9.58747 36.0951 9.34983 36.2353 9.14636 36.4176C8.91642 36.566 8.71908 36.7596 8.56633 36.9867C8.41359 37.2137 8.30864 37.4695 8.25788 37.7384Z" fill="#D1734A"/>
<path d="M15.4185 64.0565C15.7637 63.3724 15.9987 62.6382 16.1149 61.8809C16.3085 61.137 16.3782 60.3663 16.3214 59.5997C16.1299 60.3336 15.9792 61.0775 15.87 61.8281C15.6753 62.5612 15.5245 63.3053 15.4185 64.0565Z" fill="#D1734A"/>
<path d="M46.0446 58.6728C45.2024 58.392 44.4607 57.8709 43.9111 57.1737C43.3615 56.4764 43.028 55.6336 42.9517 54.7491C42.6924 52.2469 44.3925 50.0233 46.6929 49.7784C48.9934 49.5335 51.1113 51.3729 51.3706 53.875C51.4774 54.7642 51.3192 55.6652 50.916 56.4649C50.5127 57.2646 49.8823 57.9274 49.1038 58.3702C52.7058 58.5575 54.4491 60.7715 55.2992 62.7502C53.9673 64.6252 52.0052 65.9583 49.7714 66.5058L47.178 66.7747C44.8479 66.6946 42.6274 65.7654 40.9346 64.1621C41.3621 62.0538 42.6155 59.5517 46.0446 58.6728Z" fill="white"/>
<g opacity="0.3">
<path d="M65.1973 56.9919L63.0649 54.7923C63.0649 54.7923 63.987 70.6888 64.6162 72.6003C65.2453 74.5117 68.5399 80.8751 68.5399 80.8751L65.6968 72.1776L65.1973 56.9919Z" fill="black"/>
</g>
<path d="M60.4764 52.0981C60.4284 52.1461 62.3014 54.1776 64.6642 56.6365C67.0271 59.0955 68.9866 61.0549 69.0394 61.0069C69.0922 60.9589 67.2096 58.9274 64.8467 56.4636C62.4839 53.9999 60.5244 52.0501 60.4764 52.0981Z" fill="#263238"/>
<path d="M30.6667 50.8542C30.658 51.0147 30.666 51.1756 30.6907 51.3344C30.7196 51.6514 30.7724 52.1125 30.8492 52.684C31.0029 53.8174 31.2622 55.383 31.6176 57.0927C31.973 58.8025 32.362 60.3441 32.6742 61.4487C32.8327 62.001 32.9672 62.4428 33.068 62.7502C33.1057 62.9182 33.1671 63.0799 33.2505 63.2304C33.2381 63.0678 33.2091 62.9069 33.1641 62.7502C33.0728 62.3852 32.972 61.9482 32.8471 61.4343C32.5782 60.3201 32.218 58.7833 31.8626 57.0735C31.5072 55.3638 31.2238 53.8126 31.0221 52.684C30.9309 52.1653 30.854 51.7235 30.7868 51.3489C30.7703 51.1791 30.7298 51.0126 30.6667 50.8542Z" fill="#263238"/>
<path d="M40.3343 20.5547C40.226 20.4626 40.0996 20.394 39.9632 20.3534C39.8269 20.3129 39.6836 20.3012 39.5424 20.3192C39.4013 20.3371 39.2655 20.3843 39.1437 20.4577C39.0218 20.5311 38.9166 20.6292 38.8348 20.7455C38.753 20.8619 38.6963 20.994 38.6684 21.1335C38.6406 21.273 38.6421 21.4168 38.6729 21.5557C38.7038 21.6946 38.7633 21.8255 38.8476 21.9401C38.9319 22.0547 39.0391 22.1504 39.1625 22.2212C39.2883 22.2885 39.4266 22.329 39.5688 22.3402C39.711 22.3514 39.854 22.333 39.9887 22.2862C40.1234 22.2393 40.247 22.1651 40.3516 22.0681C40.4562 21.9712 40.5396 21.8536 40.5965 21.7228C40.6534 21.592 40.6826 21.4509 40.6823 21.3082C40.6819 21.1656 40.652 21.0246 40.5944 20.8941C40.5369 20.7636 40.4529 20.6464 40.3478 20.55C40.2427 20.4536 40.1187 20.3799 39.9838 20.3338" fill="#FF725E"/>
<path d="M40.2335 19.4837C40.1086 19.4837 40.2335 20.329 39.59 21.0158C38.9464 21.7025 38.0531 21.7409 38.0627 21.8562C38.0723 21.9715 38.2837 21.9907 38.6631 21.9474C39.153 21.8886 39.6059 21.657 39.9405 21.2943C40.2603 20.9469 40.4325 20.4888 40.4208 20.0168C40.4112 19.6614 40.2911 19.4693 40.2335 19.4837Z" fill="#263238"/>
<path d="M50.8904 7.04507C50.3407 6.36524 49.987 5.54826 49.8675 4.6822C49.8642 4.06264 50.0867 3.46308 50.4932 2.99555C50.8998 2.52801 51.4626 2.22447 52.0766 2.14164C52.6968 2.09806 53.313 2.27032 53.8207 2.6292C54.3284 2.98808 54.6963 3.51149 54.8621 4.1107C54.9927 4.71891 54.9229 5.35303 54.6632 5.91829C54.4035 6.48355 53.9679 6.9496 53.4214 7.24678C52.8633 7.52109 52.2347 7.61796 51.6199 7.52438C51.0052 7.43079 50.4339 7.15124 49.9827 6.7233" fill="#263238"/>
<path d="M49.7906 4.55255C49.7252 5.17941 49.8965 5.80806 50.2709 6.3151C50.5791 6.86586 51.0831 7.28068 51.6828 7.47732C51.2394 7.08549 50.8371 6.64939 50.4822 6.17582C50.1967 5.65984 49.965 5.11589 49.7906 4.55255Z" fill="#455A64"/>
<path d="M51.2698 7.25158C51.2507 6.35109 51.3574 5.45233 51.5868 4.58134C51.8926 3.72542 52.3178 2.91699 52.8499 2.18005C52.8499 2.18005 52.5809 2.34815 52.2639 2.74196C51.8521 3.25898 51.541 3.8487 51.3466 4.48049C51.1481 5.1103 51.0667 5.77118 51.1065 6.43034C51.0999 6.71276 51.1557 6.99317 51.2698 7.25158Z" fill="#455A64"/>
</svg>
