<svg width="71" height="71" viewBox="0 0 71 71" fill="none" xmlns="http://www.w3.org/2000/svg">
<g clip-path="url(#clip0_20_641)">
<rect width="71" height="71" rx="35.5" fill="#E0E0E0"/>
<path d="M49.3752 65.2453L41.0607 71.2004L41.1817 73.545L43.3436 78.5108C43.3436 78.5108 44.3467 79.5424 47.2912 76.3069C50.2356 73.0714 53.9584 66.6426 53.9584 66.6426L49.3752 65.2453Z" fill="#BA7F72"/>
<path d="M63.3711 52.8379C63.3231 52.721 63.2482 52.6195 63.1535 52.5431C63.0589 52.4668 62.9477 52.4181 62.8307 52.4018L58.7577 51.811C58.581 51.7884 58.402 51.8055 58.2316 51.8611C58.0613 51.9168 57.9033 52.0098 57.7676 52.1345L46.0935 62.9992L46.621 63.5572L50.9966 64.6967L63.4446 53.0348L63.3711 52.8379Z" fill="#263238"/>
<path d="M60.137 53.7288C60.1848 53.7763 60.2473 53.8026 60.3121 53.8026C60.3769 53.8026 60.4394 53.7763 60.4872 53.7288C60.5161 53.7147 60.5422 53.6945 60.5638 53.6692C60.5854 53.644 60.6022 53.6144 60.613 53.582C60.6239 53.5497 60.6287 53.5153 60.6272 53.481C60.6256 53.4466 60.6177 53.4129 60.604 53.3819C60.5602 53.3304 60.4998 53.2993 60.4353 53.2949C60.3709 53.2905 60.3074 53.3133 60.258 53.3584C60.2267 53.3729 60.1985 53.3943 60.1752 53.4213C60.1519 53.4482 60.1341 53.4801 60.1227 53.5149C60.1113 53.5497 60.1067 53.5867 60.1092 53.6235C60.1116 53.6603 60.1211 53.6962 60.137 53.7288Z" fill="white"/>
<path d="M63.4533 53.0349C63.1854 53.0376 62.9178 53.0156 62.6534 52.9692L60.4915 52.6925L58.9955 52.4909C58.8709 52.4662 58.7428 52.4714 58.6203 52.5062C58.4978 52.5411 58.3838 52.6047 58.2864 52.6925L57.6206 53.3162L54.6415 56.1015C52.5186 58.071 50.5902 59.8528 49.1893 61.1142L47.516 62.6147C47.3175 62.8046 47.1066 62.9786 46.8848 63.1352C47.0583 62.9187 47.2493 62.7194 47.4555 62.5397L49.0726 60.9782C50.4475 59.67 52.3586 57.874 54.4772 55.9046L57.4736 53.138L58.1481 52.5144C58.2682 52.41 58.4075 52.3347 58.5566 52.2935C58.7058 52.2523 58.8613 52.246 59.0128 52.2752L60.5088 52.5144L62.6707 52.8707C62.9346 52.9065 63.1961 52.9614 63.4533 53.0349Z" fill="#455A64"/>
<path d="M59.216 55.3044C59.216 55.3044 58.8485 55.1121 58.3513 56.2047C57.8541 57.2973 56.2846 60.4249 56.2846 60.4249L54.5551 58.6243L51.9003 58.2069C51.9003 58.2069 51.1955 58.5961 51.5285 59.0228C51.8614 59.4496 53.3963 60.2608 53.3963 60.2608L54.1097 62.4834L51.1436 59.6699C51.1436 59.6699 49.9157 59.6465 50.0584 60.5046C50.2011 61.3627 51.896 64.4341 51.896 64.4341L50.214 63.7682L48.5191 61.8035C48.5191 61.8035 47.8836 61.6441 47.97 62.2959C48.0565 62.9476 49.6347 65.6814 49.6347 65.6814L51.8614 67.8196C51.8614 67.8196 53.2969 68.1291 53.5476 67.7212C53.7247 67.393 53.8696 67.0457 53.98 66.6849C53.98 66.6849 54.7842 66.6849 55.0263 66.3472C55.192 66.0409 55.2979 65.701 55.3377 65.3485C55.3377 65.3485 56.4532 65.9252 56.7818 65.2641C57.1132 64.413 57.3119 63.5082 57.3698 62.5866C57.3698 62.0051 59.3198 57.1284 59.3112 56.9596C59.3025 56.7908 60.0376 55.1965 59.216 55.3044Z" fill="#BA7F72"/>
<path d="M53.6082 67.7259C53.3705 67.8017 53.1188 67.8098 52.8775 67.7493C52.2883 67.6659 51.7191 67.4623 51.1999 67.1491C50.6797 66.8404 50.22 66.4247 49.8465 65.9252C49.5612 65.536 49.4487 65.2594 49.4747 65.2406C49.5006 65.2219 50.1622 66.1785 51.3339 66.8912C52.5056 67.6039 53.6168 67.6368 53.6082 67.7259Z" fill="#8B5D54"/>
<path d="M53.2579 66.5395C53.1974 66.5911 52.8256 66.1925 52.4364 65.6017C52.0473 65.0109 51.8484 64.4857 51.9133 64.4482C51.9781 64.4107 52.2894 64.8608 52.6613 65.4329C53.0331 66.005 53.3141 66.4879 53.2579 66.5395Z" fill="#8B5D54"/>
<path d="M55.2339 64.542C55.1777 64.5936 54.8015 64.2044 54.4513 63.6042C54.1011 63.0039 53.967 62.46 54.0189 62.4272C54.0708 62.3944 54.3432 62.8961 54.6675 63.4494C54.9918 64.0027 55.2944 64.4857 55.2339 64.542Z" fill="#8B5D54"/>
<path d="M57.1623 63.0321C57.0844 63.0321 56.959 62.4412 56.6996 61.7473C56.4402 61.0533 56.1462 60.5234 56.211 60.4718C56.2759 60.4202 56.6823 60.8985 56.9547 61.6347C57.1586 62.0649 57.2313 62.5542 57.1623 63.0321Z" fill="#8B5D54"/>
<path d="M26.4249 16.6567C24.6392 17.5336 21.8677 18.8747 20.2636 20.0938C19.8917 20.3752 19.4766 20.8535 19.6928 21.2849C19.909 21.7163 20.6657 21.8898 21.0634 21.9695C22.4341 22.2414 25.6812 22.1899 27.8128 21.0785L26.4249 16.6567Z" fill="#455A64"/>
<path d="M27.6355 27.6339C26.9777 25.5393 26.4887 23.3867 26.1741 21.2005C25.8615 19.0043 26.0561 16.7584 26.7405 14.6638C26.8529 14.3497 27.7998 12.2583 28.1068 12.3193C28.323 12.3474 27.735 14.3028 27.8431 14.5138C28.8808 16.502 29.1402 18.884 28.9413 21.1583C28.7322 23.37 28.2972 25.5498 27.6442 27.6574" fill="#263238"/>
<path d="M37.0612 53.3069C33.9006 53.1896 27.2507 43.2487 27.2939 39.821L27.5404 19.1889C27.4452 13.6463 30.3378 8.9619 35.4528 9.01348L35.9241 9.04631C38.2159 9.21341 40.3656 10.3102 41.9456 12.1183C43.5255 13.9265 44.4198 16.3135 44.4505 18.8044C44.511 23.6107 44.5196 28.9188 44.3294 31.465C43.9403 36.7684 38.9939 37.2373 38.9939 37.2373C38.9939 37.2373 38.9507 38.4705 38.9161 40.0507C38.8383 43.5535 40.1008 53.4053 36.8666 53.2834L37.0612 53.3069Z" fill="#BA7F72"/>
<path d="M38.9939 37.2607C36.7329 37.0901 34.5645 36.2194 32.7462 34.752C32.7462 34.752 34.0433 38.855 38.9464 38.7331L38.9939 37.2607Z" fill="#8B5D54"/>
<path d="M42.7945 23.1605C42.7845 23.3587 42.7033 23.5448 42.5683 23.6788C42.4334 23.8129 42.2554 23.8844 42.0725 23.878C41.9832 23.8786 41.8946 23.86 41.812 23.8232C41.7294 23.7864 41.6543 23.7322 41.5912 23.6637C41.528 23.5952 41.4781 23.5138 41.4441 23.4242C41.4102 23.3346 41.3931 23.2386 41.3936 23.1418C41.4048 22.944 41.4863 22.7587 41.621 22.6248C41.7557 22.491 41.9331 22.4191 42.1157 22.4243C42.2052 22.4231 42.294 22.4413 42.3768 22.4778C42.4597 22.5144 42.535 22.5685 42.5983 22.6372C42.6616 22.7058 42.7115 22.7874 42.7452 22.8773C42.7789 22.9672 42.7957 23.0635 42.7945 23.1605Z" fill="#263238"/>
<path d="M43.2658 21.0786C43.1707 21.1676 42.6691 20.7081 41.9168 20.6518C41.1645 20.5956 40.5894 20.966 40.5116 20.8629C40.4338 20.7597 40.5721 20.6425 40.8272 20.469C41.1687 20.2494 41.5643 20.1496 41.96 20.1829C42.3512 20.2139 42.7235 20.378 43.0237 20.6518C43.2442 20.8535 43.309 21.0364 43.2658 21.0786Z" fill="#263238"/>
<path d="M35.9111 22.9964C35.9022 23.1913 35.8245 23.375 35.6941 23.5095C35.5637 23.6439 35.3906 23.7188 35.2107 23.7185C35.1212 23.7198 35.0324 23.7016 34.9495 23.6651C34.8667 23.6285 34.7914 23.5743 34.7281 23.5057C34.6648 23.4371 34.6149 23.3554 34.5812 23.2655C34.5475 23.1757 34.5307 23.0794 34.5319 22.9823C34.5441 22.7854 34.6261 22.6012 34.7606 22.4684C34.8952 22.3355 35.072 22.2643 35.2539 22.2696C35.4294 22.2733 35.5966 22.3515 35.7194 22.4874C35.8423 22.6233 35.9112 22.8061 35.9111 22.9964Z" fill="#263238"/>
<path d="M35.8808 20.7269C35.7857 20.8206 35.2842 20.3564 34.5318 20.3048C33.7795 20.2533 33.2001 20.619 33.1266 20.5158C33.0531 20.4127 33.1872 20.2955 33.4423 20.122C33.7819 19.9015 34.176 19.7999 34.5708 19.8312C34.9639 19.8593 35.3383 20.0237 35.6387 20.3001C35.8549 20.5018 35.9241 20.6893 35.8808 20.7269Z" fill="#263238"/>
<path d="M38.1898 27.1931C38.5947 27.0882 39.01 27.0378 39.4263 27.0431C39.6209 27.0431 39.8025 27.0103 39.8587 26.8696C39.8866 26.655 39.855 26.4363 39.7679 26.2412C39.6166 25.7254 39.4609 25.1815 39.2966 24.6141C38.6481 22.2977 38.1941 20.3939 38.2806 20.3939C38.367 20.3939 38.9594 22.2227 39.6123 24.5391C39.7636 25.1112 39.9149 25.6551 40.0446 26.1756C40.1483 26.4364 40.1651 26.7281 40.0922 27.0009C40.0589 27.0721 40.0114 27.1344 39.953 27.1831C39.8946 27.2317 39.827 27.2656 39.7549 27.2822C39.6457 27.2952 39.5355 27.2952 39.4263 27.2822C39.0123 27.3111 38.5966 27.2812 38.1898 27.1931Z" fill="#263238"/>
<path d="M36.0019 17.6742C35.8852 17.8759 35.1674 17.6039 34.2724 17.5195C33.3774 17.4351 32.6381 17.5195 32.5429 17.3038C32.5084 17.2006 32.6727 17.0225 32.9753 16.8771C33.4092 16.6951 33.8763 16.6254 34.3393 16.6734C34.8024 16.7214 35.2488 16.8859 35.6431 17.1538C35.9241 17.3695 36.0754 17.5805 36.0019 17.6742Z" fill="#263238"/>
<path d="M43.2052 19.156C43.0409 19.3342 42.4356 19.1045 41.7006 19.0529C40.9656 19.0013 40.33 19.1045 40.1959 18.8981C40.1397 18.8044 40.2478 18.6215 40.5289 18.4621C40.9141 18.2647 41.3413 18.1838 41.7654 18.2276C42.1902 18.2536 42.6001 18.4061 42.9501 18.6684C43.2009 18.8747 43.2787 19.0716 43.2052 19.156Z" fill="#263238"/>
<path d="M27.696 23.1558C27.6139 23.109 24.397 21.8288 24.2803 25.4676C24.1636 29.1063 27.5534 28.4827 27.562 28.3795C27.5706 28.2764 27.696 23.1558 27.696 23.1558Z" fill="#BA7F72"/>
<path d="M26.5848 26.9634C26.5848 26.9634 26.5243 27.0056 26.4249 27.0478C26.2861 27.1083 26.1312 27.1083 25.9925 27.0478C25.6423 26.893 25.3612 26.2694 25.3656 25.6129C25.3691 25.301 25.4355 24.9937 25.5601 24.7126C25.5955 24.6006 25.6552 24.4995 25.7342 24.4179C25.8133 24.3363 25.9093 24.2765 26.0141 24.2437C26.0823 24.2275 26.1535 24.2373 26.2157 24.2714C26.278 24.3056 26.3274 24.3621 26.3557 24.4312C26.3989 24.5344 26.3557 24.6047 26.3903 24.6141C26.4249 24.6235 26.4638 24.5532 26.4422 24.4031C26.425 24.3123 26.381 24.23 26.3168 24.1687C26.2259 24.0919 26.1116 24.055 25.9968 24.0655C25.8586 24.09 25.7285 24.1524 25.6187 24.2467C25.509 24.3411 25.4233 24.4644 25.3699 24.6047C25.2174 24.9153 25.1358 25.2611 25.1321 25.6129C25.1321 26.3444 25.4564 27.0478 25.9363 27.2166C26.0252 27.2479 26.1194 27.2574 26.2121 27.2445C26.3049 27.2315 26.3938 27.1963 26.4724 27.1416C26.5632 27.0478 26.5935 26.9681 26.5848 26.9634Z" fill="#8B5D54"/>
<path d="M42.427 12.7178C42.9761 12.4083 41.3936 10.4577 40.0792 9.76369C38.086 8.71332 35.0205 8.01465 33.1613 8.53045C30.9043 9.1541 29.0148 10.3123 27.8387 12.4881C26.7017 14.7069 26.1287 17.2136 26.1784 19.7515C26.1356 20.5256 26.2849 21.298 26.6108 21.9882C27.0432 22.8041 27.9468 23.3387 27.882 24.4453C27.8632 24.6458 27.8818 24.8484 27.9368 25.041C27.9917 25.2335 28.0819 25.4121 28.2019 25.566C28.7986 26.2928 29.5639 25.6504 29.9314 24.9892C30.701 23.5825 30.8264 21.8897 30.9302 20.2579C31.062 19.1031 31.0197 17.9327 30.8048 16.7927C30.6535 16.1831 30.4027 15.6016 30.286 14.9827C30.2101 14.6768 30.196 14.3568 30.2445 14.0444C30.293 13.7321 30.403 13.4347 30.567 13.1727C30.6525 13.0668 30.7465 12.9695 30.8481 12.8819C31.3265 12.4519 31.902 12.1679 32.5153 12.0592C33.1285 11.9504 33.7574 12.0207 34.3373 12.263C36.2095 13.0414 39.409 14.2183 40.2651 13.5478C41.5017 12.5818 41.8087 11.9347 41.8087 11.9347L42.427 12.7178Z" fill="#263238"/>
<path d="M36.1057 27.573C36.0625 27.573 36.0279 27.7793 36.1057 28.0935C36.1879 28.5134 36.3908 28.8943 36.6851 29.1813C36.9619 29.454 37.283 29.6686 37.632 29.8144C37.8957 29.9316 38.0644 29.9644 38.0946 29.9175C38.1249 29.8706 37.9779 29.7487 37.7487 29.5799C37.4534 29.3753 37.1729 29.1465 36.9099 28.8953C36.3089 28.3232 36.2181 27.5495 36.1057 27.573Z" fill="#263238"/>
<path d="M41.1601 9.65117C39.9008 8.39553 38.3455 7.5425 36.6665 7.18662C34.9876 6.83073 33.2506 6.98587 31.6479 7.63485C28.6732 8.91029 25.8541 12.0707 25.5471 15.5079L25.6293 18.0494L26.0617 17.8008C28.8678 16.6895 31.9765 15.3906 33.7925 14.9874C37.5671 14.1855 44.0008 15.5219 44.0008 15.5219C43.6629 13.2838 42.6664 11.2244 41.1601 9.65117Z" fill="#455A64"/>
<path d="M40.8921 12.8163C40.6777 12.488 40.3589 12.2575 39.997 12.1692C38.7376 11.8114 37.4188 11.7761 36.1446 12.066C35.8187 12.1017 35.5041 12.2155 35.2236 12.399C35.0818 12.4957 34.9714 12.6381 34.9079 12.8063C34.8443 12.9744 34.8307 13.1599 34.8691 13.3368C34.9988 13.8057 35.5652 13.9557 36.0192 13.9042C36.5013 13.921 36.9824 13.848 37.4417 13.6885C38.3456 13.5538 39.2641 13.5886 40.157 13.7916C40.2972 13.8369 40.4448 13.8481 40.5894 13.8245C40.6771 13.7884 40.7563 13.7315 40.8211 13.6579C40.8858 13.5843 40.9345 13.4958 40.9636 13.3991C40.9926 13.3023 41.0013 13.1997 40.9889 13.0989C40.9765 12.998 40.9434 12.9014 40.8921 12.8163Z" fill="#263238"/>
<path d="M36.9964 13.1211C37.3136 13.1996 37.6077 13.3629 37.8519 13.5961C38.096 13.8294 38.2825 14.1252 38.3942 14.4566C38.5059 14.7881 38.5395 15.1445 38.4917 15.4936C38.4439 15.8426 38.3163 16.1732 38.1206 16.4551C38.3637 16.3777 38.5876 16.2418 38.7755 16.0575C38.9634 15.8732 39.1105 15.6452 39.2058 15.3906C39.3484 15.7742 39.3484 16.2028 39.2058 16.5863C39.6475 16.3456 40.0165 15.9731 40.2695 15.5125C40.3723 15.9526 40.3871 16.4115 40.3127 16.8583C40.8089 16.5351 41.1678 16.0128 41.3115 15.4047C41.4473 14.7984 41.4309 14.1637 41.2639 13.5666C41.1761 13.1085 40.9302 12.7043 40.5765 12.4365C40.2145 12.2616 39.8146 12.1999 39.422 12.2583C38.5747 12.2725 37.7312 12.3841 36.9056 12.5912" fill="#263238"/>
<path d="M44.083 14.5138C43.8401 14.4927 43.5988 14.4535 43.3609 14.3965C43.1318 14.3497 42.8464 14.2934 42.4962 14.2465C42.146 14.1996 41.7914 14.1246 41.3763 14.0871C40.4017 13.9624 39.4218 13.892 38.4405 13.8761C37.2392 13.8598 36.0381 13.9193 34.8432 14.0542C33.6506 14.205 32.4669 14.4289 31.2977 14.7248C30.3428 14.9697 29.4004 15.2687 28.4743 15.6204C28.0722 15.7564 27.722 15.9158 27.4107 16.0424C27.0994 16.169 26.8313 16.2863 26.6194 16.3847C26.3981 16.497 26.1698 16.5926 25.9363 16.6708C26.1388 16.5237 26.3547 16.3996 26.5805 16.3003C26.7924 16.1831 27.0518 16.0518 27.3631 15.9158C27.6744 15.7798 28.0203 15.6063 28.4181 15.4469C29.3435 15.0764 30.2876 14.7633 31.2458 14.5091C33.5994 13.8762 36.0208 13.5891 38.4448 13.6557C39.4315 13.6838 40.4159 13.7715 41.3936 13.9183C41.826 13.9698 42.1892 14.0542 42.5178 14.1199C42.8464 14.1855 43.1274 14.2465 43.3566 14.3075C43.6037 14.3534 43.8468 14.4224 44.083 14.5138Z" fill="#263238"/>
<path d="M33.7752 7.24097C33.7968 7.27848 33.399 7.54576 32.8456 8.08501C31.3892 9.51207 30.4342 11.4427 30.1433 13.5478C30.0352 14.3497 30.0481 14.8608 30.0092 14.8608C29.9703 14.8608 29.9789 14.7342 29.9617 14.5044C29.9441 14.1791 29.9528 13.8527 29.9876 13.5291C30.1922 11.3509 31.1822 9.34863 32.7418 7.9584C32.9704 7.74672 33.2164 7.55836 33.4768 7.39571C33.6628 7.27848 33.7665 7.2269 33.7752 7.24097Z" fill="#263238"/>
<path d="M38.6956 12.2489C38.5888 11.9421 38.4979 11.629 38.4232 11.3111C38.1921 10.5666 37.8504 9.86811 37.4115 9.24322C36.9709 8.62094 36.4409 8.07948 35.842 7.63954C35.5766 7.47926 35.321 7.30071 35.0767 7.10498C35.3854 7.17269 35.6791 7.30488 35.9414 7.49418C37.2435 8.32025 38.1951 9.66705 38.5919 11.2455C38.6845 11.5699 38.7197 11.9103 38.6956 12.2489Z" fill="#263238"/>
<g opacity="0.3">
<path d="M26.1309 17.7868C24.0122 18.8137 21.7336 19.7796 20.0776 21.6412C20.3607 21.7864 20.6602 21.8904 20.9683 21.9507C21.8461 22.128 22.7406 22.1879 23.6317 22.1289C24.5204 22.0992 25.4016 21.9415 26.2519 21.66L26.1309 17.7868Z" fill="black"/>
</g>
<path d="M45.8427 66.6567L51.3166 72.0164C51.3166 72.0164 42.7469 82.1683 40.0965 84.4144C37.446 86.6605 41.1428 69.2029 41.1428 69.2029L45.8427 66.6567Z" fill="#FF725E"/>
<path d="M27.2464 34.8973L24.9678 38.3204L16.1041 41.8747L12.0831 74.5626L9.54504 103.752C9.54504 103.752 13.0948 98.2614 15.8101 98.1863C18.5254 98.1113 32.2706 102.275 33.2002 103.035L35.0118 96.4279L36.5078 104.081C36.5078 104.081 39.102 104.709 40.4338 100.526L39.863 86.0181C39.863 86.0181 41.679 59.8669 41.5925 55.9233C41.5061 51.9798 39.0329 41.0307 39.0329 41.0307L38.1162 44.2615L30.1346 36.8761L27.2464 34.8973Z" fill="#FF725E"/>
<path d="M18.6638 40.8807C18.6638 40.8807 12.8397 40.8807 10.9589 52.5566C9.07806 64.2325 6.36708 76.8087 7.76365 81.5025C9.16021 86.1963 14.6254 99.7197 14.6254 99.7197L22.1314 96.7843L19.0529 75.552L22.6157 54.7699C22.6157 54.7699 23.0524 41.7341 18.6638 40.8807Z" fill="#FF725E"/>
<path d="M22.6157 54.7698C22.6157 54.7698 22.6157 54.8964 22.5638 55.1403C22.5119 55.3841 22.4643 55.7545 22.3908 56.2281L21.699 60.3874C21.0894 63.998 20.2117 69.1936 19.1394 75.5661V75.5332C20.0041 81.5822 21.0764 88.8269 22.2352 96.7655V96.864L22.1487 96.8968L14.647 99.8322L14.5476 99.8697L14.5087 99.7666C13.7477 97.8487 12.9392 95.823 12.122 93.7692C10.6908 90.0929 9.29859 86.4964 8.09659 82.9842C7.94094 82.5435 7.80689 82.098 7.66421 81.6525C7.59935 81.4321 7.55612 81.1836 7.50423 80.9679C7.44478 80.741 7.40426 80.5087 7.38317 80.2739C7.32142 79.8156 7.28532 79.3537 7.27508 78.8906C7.25348 78.4345 7.25348 77.9775 7.27508 77.5214C7.32918 75.7463 7.47352 73.9759 7.70745 72.218C8.13982 68.7809 8.68029 65.5501 9.19049 62.5256C9.70069 59.5011 10.1979 56.683 10.6389 54.1134C10.8422 52.8239 11.0713 51.6 11.3134 50.4512L11.7458 48.7959C11.9144 48.2707 12.1004 47.769 12.2647 47.2813C12.8618 45.6103 13.7784 44.0954 14.954 42.836C15.7053 42.048 16.6115 41.4548 17.6045 41.1011C17.8626 41.0142 18.1274 40.953 18.3957 40.9182H18.5989H18.6681L18.3957 40.9557C18.1315 41.0012 17.8712 41.0702 17.6174 41.162C16.6439 41.534 15.7581 42.1344 15.0232 42.9204C13.8675 44.1781 12.9701 45.6866 12.3901 47.347C12.2257 47.8159 12.0441 48.3317 11.8842 48.8522C11.7242 49.3727 11.5988 49.9354 11.4518 50.5027C11.2226 51.6469 10.9935 52.8473 10.7946 54.1556C10.3622 56.7299 9.88661 59.548 9.37641 62.5725C8.86621 65.597 8.32142 68.8325 7.91499 72.2602C7.69014 74.0108 7.55446 75.7734 7.50856 77.5402C7.50856 78.0091 7.50856 78.4405 7.50856 78.8953C7.52095 79.3505 7.55704 79.8045 7.61665 80.2552C7.638 80.4819 7.67706 80.7062 7.73339 80.9257C7.78528 81.1508 7.82419 81.3946 7.88905 81.5916C8.02741 82.0323 8.16144 82.4778 8.32142 82.9186C9.52342 86.4401 10.9157 90.0367 12.3468 93.7036L14.7292 99.6822L14.5908 99.6165L22.0925 96.6905L22.0233 96.8171C20.8775 88.8738 19.8355 81.6291 18.9664 75.5801V75.5473L21.6039 60.3827C21.9239 58.5915 22.1703 57.1894 22.339 56.2328C22.4254 55.7639 22.4903 55.4029 22.5378 55.1497C22.5854 54.8964 22.6157 54.7698 22.6157 54.7698Z" fill="#263238"/>
<path d="M38.0773 44.2615C38.0312 44.4104 37.9733 44.5548 37.9044 44.6929L37.3726 45.8746L35.4009 49.9776L35.3231 50.137L35.2107 49.9776C34.5146 48.9413 33.7147 47.8206 32.8326 46.6952C31.3573 44.7755 29.7839 42.947 28.1198 41.2183C27.4799 40.5571 26.9524 40.032 26.5892 39.6662C26.3909 39.4885 26.2045 39.2957 26.0314 39.0894C26.2487 39.2395 26.454 39.4089 26.6454 39.5959C27.0259 39.9382 27.575 40.4446 28.2279 41.0964C29.9332 42.7906 31.5295 44.6096 33.0056 46.5405C33.8919 47.6893 34.6875 48.8194 35.3793 49.865H35.202L37.2342 45.7996L37.8309 44.6461C37.8982 44.5074 37.981 44.3783 38.0773 44.2615Z" fill="#263238"/>
<path d="M40.0403 46.0012C40.1138 45.9731 40.4727 47.4595 40.2219 49.4383L40.1743 49.7853L40.0187 49.4664C39.9322 49.2976 39.85 49.1148 39.7722 48.9319C39.3398 47.9003 39.1193 46.9249 38.8859 46.245C38.6524 45.5651 38.4794 45.1618 38.5097 45.1478C38.736 45.4592 38.9129 45.8095 39.0329 46.1841C39.3096 46.8546 39.5647 47.8299 39.9754 48.8287C40.0533 49.0116 40.1311 49.1851 40.2132 49.3492L40.0057 49.382C40.1238 48.5886 40.16 47.7834 40.1138 46.9812C40.0922 46.3669 40.0187 46.0153 40.0403 46.0012Z" fill="#263238"/>
<path d="M38.4578 45.9449C38.4641 45.9884 38.4641 46.0327 38.4578 46.0762C38.4578 46.1794 38.4578 46.3013 38.4578 46.4607C38.4578 46.7983 38.4578 47.2954 38.4578 47.9378C38.4578 49.2179 38.393 51.0701 38.2762 53.3584C38.0514 57.9397 37.5369 64.2418 37.0094 71.2099C36.4819 78.1779 35.963 84.466 35.6042 89.0285C35.4139 91.2934 35.2583 93.1362 35.1502 94.4304C35.094 95.054 35.0507 95.5417 35.0161 95.8981C34.9988 96.0544 34.9859 96.181 34.9772 96.2779C34.9733 96.3222 34.9661 96.3661 34.9556 96.4092C34.951 96.3655 34.951 96.3215 34.9556 96.2779C34.9556 96.1747 34.9556 96.0481 34.9772 95.8934C34.9772 95.537 35.0291 95.0446 35.068 94.421L35.4485 89.0098C35.7944 84.4285 36.2657 78.131 36.7889 71.1677C37.312 64.2043 37.8568 57.9022 38.1206 53.349C38.2589 51.0654 38.3324 49.2132 38.3757 47.9331C38.3973 47.3095 38.4146 46.8171 38.4232 46.4607C38.4232 46.3013 38.4232 46.1747 38.4232 46.0762C38.4292 46.0309 38.4408 45.9868 38.4578 45.9449Z" fill="#263238"/>
<path d="M41.6012 59.6793C41.6617 59.6793 41.3288 65.6157 40.8532 72.9308C40.3776 80.2458 39.9409 86.1681 39.8803 86.1634C39.8198 86.1588 40.1527 80.227 40.6283 72.912C41.104 65.597 41.5407 59.6746 41.6012 59.6793Z" fill="#263238"/>
<path d="M24.0684 49.5086C24.0295 49.5086 24.0295 48.9225 23.8176 48.0269C23.5442 46.8546 23.0056 45.7747 22.2507 44.8848C21.4958 43.9948 20.5483 43.323 19.4939 42.9298C18.6854 42.6203 18.1492 42.5734 18.1536 42.5265C18.2795 42.5033 18.4081 42.5033 18.5341 42.5265C18.8773 42.5676 19.2162 42.6446 19.5458 42.7563C20.6465 43.1153 21.6379 43.7888 22.4162 44.7062C23.1944 45.6236 23.7307 46.7511 23.969 47.9706C24.0427 48.336 24.0847 48.708 24.0944 49.0819C24.1123 49.2246 24.1035 49.3697 24.0684 49.5086Z" fill="#263238"/>
<g opacity="0.3">
<path d="M40.1873 84.2081C41.8269 79.3645 42.1275 74.1072 41.0521 69.081C40.7638 74.164 40.4756 79.2455 40.1873 84.3253" fill="black"/>
</g>
<path d="M21.6774 60.0638C21.5268 60.0369 21.3809 59.9847 21.2451 59.9091L20.0776 59.4074C19.0962 58.9854 17.7385 58.4086 16.2252 57.799C14.7119 57.1894 13.3326 56.6642 12.3338 56.2938L11.1491 55.8483C10.9986 55.805 10.8534 55.742 10.7168 55.6608C10.8643 55.6722 11.0098 55.7053 11.1491 55.7592C11.4388 55.839 11.8496 55.9656 12.3555 56.1297C13.3715 56.4626 14.7594 56.9597 16.2771 57.5692C17.7947 58.1788 19.148 58.7837 20.1122 59.2479C20.5965 59.4824 20.977 59.6793 21.2537 59.82C21.4028 59.884 21.545 59.9658 21.6774 60.0638Z" fill="white"/>
<path d="M23.2383 46.2919C22.8049 46.1985 22.3785 46.07 21.9628 45.9074C21.1845 45.6542 20.1079 45.3119 18.9059 44.9696C17.7039 44.6273 16.6057 44.3694 15.8101 44.1865C15.3712 44.1079 14.9378 43.9966 14.513 43.8536C14.9492 43.8599 15.3837 43.9133 15.8101 44.013C16.6143 44.1584 17.7255 44.3975 18.9319 44.7304C20.1382 45.0634 21.2148 45.4432 21.9844 45.7386C22.4187 45.8762 22.8388 46.0616 23.2383 46.2919Z" fill="white"/>
<path d="M28.4743 41.6403C27.2308 42.0311 25.9676 42.3442 24.6911 42.5781C23.4289 42.8868 22.1512 43.1154 20.8646 43.2627C22.1081 42.872 23.3713 42.5589 24.6478 42.3249C25.91 42.0163 27.1876 41.7877 28.4743 41.6403Z" fill="white"/>
<path d="M29.538 36.8715C29.252 37.48 28.9008 38.0498 28.4916 38.5689C28.1407 39.1333 27.7301 39.6511 27.268 40.1117C27.5559 39.5059 27.907 38.9379 28.3143 38.4189C28.6644 37.8525 29.0752 37.3331 29.538 36.8715Z" fill="white"/>
<path d="M35.682 42.5078C35.3403 43.2523 34.9304 43.9577 34.4584 44.6132C34.0456 45.3155 33.5738 45.9748 33.0488 46.5826C33.3916 45.8387 33.8015 45.1335 34.2724 44.4772C34.6852 43.7749 35.1571 43.1156 35.682 42.5078Z" fill="white"/>
<path d="M37.9087 57.1238C37.7062 57.1288 37.5036 57.1147 37.3034 57.0816C36.9142 57.0394 36.3565 56.969 35.669 56.8706C34.2897 56.6783 32.3916 56.3735 30.2989 55.9702C28.2062 55.567 26.3297 55.1543 24.9721 54.8261C24.2933 54.662 23.7485 54.5213 23.3723 54.4135C23.1733 54.3707 22.978 54.3095 22.7886 54.2306C22.9916 54.2369 23.1932 54.2683 23.3896 54.3244L25.0067 54.6573C26.3687 54.9433 28.2538 55.3325 30.3378 55.7311C32.4219 56.1297 34.32 56.4626 35.6906 56.7017L37.3163 56.9878C37.5176 57.011 37.7161 57.0565 37.9087 57.1238Z" fill="white"/>
<path d="M41.6487 56.4767C40.4749 56.3115 39.3246 55.9886 38.2243 55.5154C38.8127 55.5554 39.3939 55.6767 39.9538 55.8765C40.5396 55.9992 41.109 56.2008 41.6487 56.4767Z" fill="white"/>
<path d="M36.7672 73.953C36.7672 74.0186 32.9883 73.3622 28.3533 72.4853C23.7182 71.6084 19.9652 70.8441 19.9782 70.7738C19.9912 70.7034 23.7571 71.3646 28.3922 72.2415C33.0272 73.1183 36.7759 73.892 36.7672 73.953Z" fill="white"/>
<path d="M46.5216 77.287C45.683 75.9498 44.9066 74.5679 44.1954 73.1465C42.9675 70.8254 42.0336 68.9263 42.0638 68.8794C42.9043 70.2169 43.6808 71.6004 44.39 73.0246C45.1673 74.4049 45.8787 75.8276 46.5216 77.287Z" fill="white"/>
<g opacity="0.3">
<path d="M22.3043 56.5798C20.3803 67.407 18.8194 77.6809 19.0399 76.2741L22.1314 96.7984L23.956 99.7338C22.3649 85.9431 21.0548 70.3002 22.3043 56.5798Z" fill="black"/>
</g>
</g>
<defs>
<clipPath id="clip0_20_641">
<rect width="71" height="71" rx="35.5" fill="white"/>
</clipPath>
</defs>
</svg>
