<svg width="71" height="71" viewBox="0 0 71 71" fill="none" xmlns="http://www.w3.org/2000/svg">
<g clip-path="url(#clip0_20_559)">
<rect width="71" height="71" rx="35.5" fill="#E0E0E0"/>
<path d="M47.5588 49.0223C39.3642 49.9168 29.2083 49.676 20.9907 48.7642C17.4755 39.2793 20.0159 29.0661 20.7155 18.9734L38.5326 18.4286L47.5588 49.0223Z" fill="#263238"/>
<path d="M42.4378 17.276C42.4463 16.6635 42.2239 16.0703 41.8148 15.6144C41.4056 15.1585 40.8399 14.8734 40.2301 14.8158L28.761 9.39099C24.6035 8.98384 20.3542 16.3756 20.1248 20.5446C19.9563 25.1149 20.2425 29.6906 20.9793 34.2043C22.1262 41.1373 26.8055 41.3323 26.8055 41.3323L26.2321 64.9528L41.4916 52.6924L42.4378 17.276Z" fill="#FFBE9D"/>
<path d="M23.1641 26.7092C23.164 26.941 23.2545 27.1637 23.4163 27.3298C23.5781 27.4958 23.7983 27.5921 24.03 27.5981C24.1434 27.6066 24.2573 27.5924 24.365 27.5561C24.4727 27.5198 24.572 27.4622 24.6571 27.3868C24.7421 27.3114 24.8111 27.2196 24.86 27.117C24.909 27.0144 24.9368 26.9031 24.9418 26.7895C24.9419 26.5571 24.8516 26.3338 24.69 26.1669C24.5284 25.9999 24.3082 25.9024 24.0759 25.8949C23.9623 25.8872 23.8482 25.9022 23.7405 25.9392C23.6328 25.9761 23.5335 26.0342 23.4486 26.1101C23.3636 26.186 23.2947 26.2781 23.2458 26.3809C23.197 26.4838 23.1692 26.5954 23.1641 26.7092Z" fill="#263238"/>
<path d="M21.4036 23.7388C21.5011 23.8248 22.2007 23.7388 23.124 23.9452C24.0473 24.1517 24.6953 24.5703 24.8099 24.5187C24.9246 24.4671 24.7698 24.3696 24.4945 24.1861C24.0809 23.9306 23.6273 23.7465 23.1527 23.6413C22.6988 23.5308 22.229 23.5017 21.7649 23.5553C21.4725 23.5954 21.3578 23.6814 21.4036 23.7388Z" fill="#263238"/>
<path d="M31.7545 26.0612C31.7545 26.1784 31.7776 26.2945 31.8227 26.4027C31.8677 26.5109 31.9337 26.6091 32.0168 26.6918C32.1 26.7744 32.1986 26.8397 32.3071 26.8841C32.4156 26.9284 32.5318 26.9508 32.649 26.9501C32.7624 26.9586 32.8763 26.9443 32.984 26.908C33.0917 26.8717 33.191 26.8142 33.2761 26.7388C33.3611 26.6633 33.4301 26.5716 33.479 26.469C33.528 26.3664 33.5558 26.255 33.5608 26.1415C33.5609 25.9091 33.4706 25.6858 33.309 25.5188C33.1474 25.3519 32.9272 25.2544 32.6949 25.2469C32.579 25.2351 32.4619 25.2471 32.3508 25.2822C32.2397 25.3173 32.1369 25.3747 32.0488 25.451C31.9608 25.5272 31.8892 25.6207 31.8386 25.7257C31.788 25.8306 31.7593 25.9448 31.7545 26.0612Z" fill="#263238"/>
<path d="M30.8541 24.3638C30.9918 24.3982 31.5996 23.9223 32.5745 23.6413C33.5494 23.3603 34.4095 23.4291 34.4956 23.3316C34.5816 23.2341 34.3809 23.2055 34.0139 23.171C33.4885 23.1311 32.9603 23.1855 32.4541 23.3316C31.9597 23.4629 31.4946 23.6867 31.0835 23.9911C30.8484 24.2033 30.7853 24.3524 30.8541 24.3638Z" fill="#263238"/>
<path d="M27.3962 30.7176C26.8922 30.5602 26.3697 30.4695 25.8421 30.4481C25.5955 30.4481 25.3604 30.3793 25.3203 30.213C25.2982 29.9602 25.3521 29.7066 25.4751 29.4847C25.7045 28.9113 25.9396 28.269 26.1862 27.6152C27.1668 24.9544 27.9066 22.7696 27.7689 22.7294C27.6313 22.6893 26.7769 24.8168 25.7963 27.4776C25.5611 28.1314 25.3318 28.7564 25.1196 29.3585C24.9677 29.6556 24.925 29.9966 24.9992 30.3219C25.0361 30.4073 25.0919 30.4831 25.1625 30.5437C25.233 30.6043 25.3164 30.6481 25.4063 30.6717C25.541 30.7082 25.6797 30.7275 25.8192 30.7291C26.3432 30.7918 26.8731 30.7879 27.3962 30.7176Z" fill="#263238"/>
<path d="M26.8228 41.3323C30.0853 41.3984 33.2994 40.5352 36.0898 38.8435C36.0898 38.8435 33.8763 44.0046 26.9146 43.4311L26.8228 41.3323Z" fill="#EB996E"/>
<path d="M27.5797 33.0459C27.7724 32.7168 28.0361 32.4348 28.3515 32.2205C28.667 32.0062 29.0263 31.865 29.4033 31.8072C29.6214 31.7834 29.8416 31.8253 30.0357 31.9274C30.2299 32.0296 30.389 32.1874 30.4929 32.3807C30.6008 32.6377 30.6446 32.9171 30.6207 33.1948C30.5967 33.4725 30.5056 33.7402 30.3552 33.9749C30.2109 34.223 29.9972 34.4235 29.7405 34.5518C29.4838 34.6802 29.1952 34.7308 28.9101 34.6974C28.4389 34.5652 28.0177 34.2957 27.7001 33.9233C27.5906 33.8332 27.5058 33.7168 27.4536 33.5849C27.4262 33.5008 27.4187 33.4114 27.4316 33.3239C27.4446 33.2363 27.4776 33.153 27.5281 33.0803" fill="#EB996E"/>
<path d="M30.2234 31.3542C30.0685 31.3542 30.0743 32.3864 29.1912 33.1376C28.308 33.8888 27.2013 33.7741 27.1898 33.9232C27.1783 34.0723 27.4421 34.1182 27.9066 34.1297C28.5127 34.1386 29.1028 33.9358 29.5754 33.5562C30.0262 33.1821 30.314 32.6475 30.3782 32.0652C30.4126 31.6065 30.2979 31.3484 30.2234 31.3542Z" fill="#263238"/>
<path d="M30.0283 20.1833C30.1487 20.4299 31.0892 20.1833 32.2189 20.2177C33.3486 20.2522 34.2891 20.4357 34.4152 20.1891C34.4668 20.0686 34.2833 19.845 33.8934 19.6156C33.373 19.3609 32.8012 19.2284 32.2218 19.2284C31.6424 19.2284 31.0706 19.3609 30.5502 19.6156C30.1602 19.8393 29.971 20.0629 30.0283 20.1833Z" fill="#263238"/>
<path d="M21.0882 21.6112C21.3004 21.8234 22.1205 21.6112 23.1068 21.5653C24.0931 21.5195 24.9304 21.6915 25.1196 21.4621C25.1999 21.3474 25.068 21.1353 24.701 20.9288C24.1905 20.677 23.6234 20.5624 23.0552 20.5962C22.4906 20.6042 21.9383 20.7626 21.4553 21.055C21.1054 21.2786 20.9965 21.508 21.0882 21.6112Z" fill="#263238"/>
<path d="M49.3193 34.5139C48.7459 31.4287 47.0255 21.5367 44.3303 16.3584C41.635 11.1801 38.5155 9.10425 35.4647 8.33009C32.4139 7.55593 29.0535 8.22687 27.6944 9.47699C26.3353 10.7271 26.4959 14.5807 26.4959 14.5807C26.4959 14.5807 34.3465 16.3011 36.8639 20.4701C39.7312 25.2469 40.4709 27.6612 40.4709 27.6612L41.4171 30.2818C41.4171 30.2818 41.9906 43.9988 41.6924 46.522L50.4605 48.6782C49.7494 45.6504 49.8813 37.6048 49.3193 34.5139Z" fill="#263238"/>
<path d="M26.7826 14.7814C26.7826 14.7814 22.5792 14.3685 21.0481 19.1282C20.3714 21.2786 20.2108 27.5579 20.2108 27.5579C20.2108 27.5579 19.236 22.5689 19.4309 19.759C19.6259 16.9491 20.9907 13.3822 23.124 11.3981C25.2572 9.41392 26.9489 8.5308 30.6935 8.73724C29.6221 9.14706 28.692 9.85804 28.0155 10.7845C27.574 11.4956 27.3675 12.1034 26.7826 14.7814Z" fill="#263238"/>
<path d="M40.4194 28.0052C40.4289 27.649 40.5285 27.301 40.7088 26.9937C40.8891 26.6864 41.1443 26.4297 41.4506 26.2477C41.7569 26.0656 42.1044 25.9641 42.4605 25.9525C42.8166 25.941 43.1699 26.0198 43.4873 26.1816C44.2213 26.5945 44.7891 27.4375 44.7374 29.0489C44.6056 33.4014 40.2645 32.3692 40.2588 32.243C40.2531 32.1168 40.3505 29.8058 40.4194 28.0052Z" fill="#FFBE9D"/>
<path d="M41.6408 30.6603C41.6408 30.6603 41.7154 30.7119 41.8415 30.775C41.9323 30.8131 42.0298 30.8328 42.1283 30.8328C42.2267 30.8328 42.3242 30.8131 42.415 30.775C42.7004 30.6055 42.9357 30.3634 43.0969 30.0732C43.2581 29.783 43.3394 29.4553 43.3325 29.1234C43.3564 28.7496 43.2957 28.3752 43.1547 28.0281C43.1155 27.8886 43.0427 27.7608 42.9428 27.6559C42.8428 27.5509 42.7187 27.472 42.5813 27.426C42.4949 27.4013 42.4026 27.4073 42.32 27.4428C42.2375 27.4783 42.1697 27.5413 42.1283 27.621C42.0652 27.7414 42.0938 27.8332 42.0709 27.8389C42.048 27.8446 41.9792 27.7643 42.0193 27.5808C42.0457 27.4747 42.1086 27.3813 42.1971 27.3171C42.3202 27.23 42.4727 27.195 42.6214 27.2196C42.7996 27.2601 42.9643 27.3457 43.0999 27.4682C43.2355 27.5907 43.3373 27.746 43.3956 27.9192C43.5667 28.3026 43.6434 28.7215 43.6192 29.1406C43.5619 30.0123 43.0917 30.8209 42.4723 30.9814C42.3551 31.0129 42.2323 31.0173 42.1131 30.9945C41.9939 30.9717 41.8815 30.9221 41.7842 30.8495C41.6466 30.7635 41.6236 30.666 41.6408 30.6603Z" fill="#EB996E"/>
<path d="M31.2957 31.6237C31.2154 31.6237 31.0319 31.2625 30.5731 31.0503C30.1144 30.8381 29.7244 30.9643 29.69 30.8897C29.6556 30.8152 29.7588 30.7693 29.9481 30.712C30.1979 30.6471 30.4624 30.6684 30.6986 30.7725C30.9348 30.8766 31.129 31.0573 31.2498 31.2854C31.3358 31.4861 31.3301 31.6123 31.2957 31.6237Z" fill="#EB996E"/>
<path d="M31.7601 31.6237C31.6799 31.6237 31.525 31.3714 31.2784 31.0904C31.0319 30.8094 30.7853 30.6087 30.8254 30.5169C30.8656 30.4252 31.2154 30.5169 31.5078 30.8782C31.8003 31.2395 31.8347 31.6065 31.7601 31.6237Z" fill="#EB996E"/>
<path d="M22.2696 26.7551C22.2409 26.8296 22.0746 26.8354 21.9026 26.7551C21.7305 26.6748 21.6159 26.5659 21.6503 26.4913C21.6847 26.4168 21.8452 26.411 22.0173 26.4913C22.1893 26.5716 22.3269 26.6748 22.2696 26.7551Z" fill="#EB996E"/>
<path d="M18.0547 49.7161L24.6207 46.522C30.4355 48.2424 35.6883 48.7814 38.5097 44.0676C38.5097 44.0676 46.8535 42.72 49.348 44.0676C51.8425 45.4152 51.6418 62.1084 51.6418 62.1084L53.8668 83.5441C53.8668 83.5441 60.4557 96.613 59.3662 110.255L12.108 109.137C12.108 109.137 11.5919 101.912 13.8283 95.7012C15.1785 91.9482 15.8277 87.979 15.7437 83.9914L15.3767 66.0136L18.0547 49.7161Z" fill="#FF725E"/>
<g opacity="0.3">
<path d="M20.9047 88.9976C24.0108 86.7482 26.7235 84.0006 28.9331 80.866C29.8039 79.5095 30.7616 78.2108 31.8003 76.978C32.8453 75.7382 34.2741 74.8825 35.8604 74.5466C38.3491 74.1395 40.7232 75.5673 42.8393 76.9322L49.8526 81.4682C50.416 81.9023 51.0814 82.1847 51.7851 82.2882C52.4962 82.3341 53.5055 82.3283 53.58 81.623C51.6715 80.5487 49.8397 79.3435 48.0978 78.016C45.6893 76.158 43.1375 74.8563 40.7347 72.9983C39.6222 72.1381 38.4409 71.1518 38.1828 69.7697C38.177 69.2749 38.051 68.7888 37.8158 68.3533C37.4087 67.8487 36.6689 67.8601 36.0095 67.9175C34.7479 68.0322 33.4232 68.1641 32.3566 68.8522C30.8828 69.8042 30.2233 71.5819 29.5753 73.2162C27.3616 78.7791 24.2632 83.9475 20.4001 88.5216" fill="black"/>
</g>
<path d="M18.0547 49.7161C18.0547 49.7161 11.1446 51.1039 9.79698 61.2769C8.44937 71.45 4.54416 84.7885 6.84944 88.9976C7.49744 90.1846 9.68229 92.4956 10.9496 92.9601C14.6312 94.3192 18.5307 91.2742 21.0137 88.2349L28.027 77.7637L29.5008 74.9939L22.0459 70.1654L17.5787 74.8333L18.0547 49.7161Z" fill="#FF725E"/>
<path d="M47.9602 43.649C50.2522 44.034 52.4344 44.9085 54.3581 46.2127C56.2818 47.517 57.9019 49.2204 59.1081 51.2071C64.9401 60.5199 68.2833 76.525 67.4403 81.3363C66.6777 85.8149 59.0278 88.5962 57.0207 87.3919C55.1455 86.245 36.0897 70.0335 36.0897 70.0335L42.3231 63.2266L53.1155 68.8579L49.6748 57.6986L47.9602 43.649Z" fill="#FF725E"/>
<path d="M20.3657 63.0718C20.4689 63.0718 20.3141 65.2911 19.9528 67.9978C19.7808 69.2881 19.6202 70.4636 19.4883 71.4385C19.4469 71.9202 19.3663 72.3978 19.2475 72.8664C19.1442 72.8664 19.2991 70.6414 19.6603 67.9404C19.8324 66.6444 19.9929 65.4746 20.1248 64.4997C20.1655 64.0179 20.2461 63.5403 20.3657 63.0718Z" fill="#263238"/>
<path d="M50.5695 60.6346C50.5695 60.6346 50.5695 60.6748 50.6268 60.7665L50.7644 61.1794L51.2805 62.7736L53.1959 68.8063L53.2532 68.9956L53.0812 68.9038L42.2716 63.3069H42.4092L36.193 70.1253V69.9303C41.2165 74.3344 46.8994 79.3349 52.9837 84.5017L55.0481 86.2221C55.3979 86.4916 55.7363 86.7955 56.0861 87.0364C56.2484 87.1674 56.4254 87.279 56.6136 87.369C56.8097 87.4392 57.014 87.4835 57.2215 87.5009C58.0744 87.5528 58.9298 87.4578 59.7504 87.2199C60.5713 87.0018 61.3715 86.7121 62.1417 86.354C63.6552 85.6887 65.0113 84.7117 66.1215 83.4867C66.6469 82.895 67.0382 82.1966 67.2684 81.4395C67.4457 80.6886 67.5133 79.916 67.4691 79.1457C67.3096 76.2011 66.8893 73.2766 66.2132 70.4063C65.6398 67.6938 64.9344 65.1993 64.2234 62.9514C63.1643 59.3716 61.7344 55.9121 59.9569 52.6293C59.4517 51.7436 58.8764 50.8998 58.2365 50.1061C58.0301 49.8251 57.8351 49.6473 57.7261 49.5326C57.6653 49.4648 57.6078 49.394 57.5541 49.3204C57.8118 49.5641 58.0549 49.8226 58.2824 50.0946C58.9289 50.8733 59.5047 51.7081 60.0027 52.5891C61.8284 55.8616 63.2935 59.3226 64.3725 62.9112C65.1007 65.1649 65.7946 67.6652 66.4025 70.3661C67.0954 73.2518 67.5272 76.194 67.6927 79.1571C67.7432 79.962 67.6736 80.7698 67.4863 81.5542C67.2406 82.349 66.8281 83.0821 66.2763 83.7046C65.1374 84.9604 63.7486 85.9644 62.1991 86.6522C61.4143 87.0178 60.5987 87.3133 59.7619 87.5353C58.9063 87.7856 58.0136 87.8846 57.124 87.8277C56.8906 87.807 56.6611 87.7549 56.4416 87.6729C56.2361 87.5746 56.0435 87.4513 55.8682 87.3059C55.5012 87.0421 55.1685 86.7325 54.813 86.4801L52.7428 84.7598C46.6528 79.5987 40.9813 74.581 35.9694 70.1597L35.8661 70.0737L35.9579 69.9704L42.2028 63.175L42.2659 63.1062L42.3462 63.1464L53.1213 68.8121L53.0066 68.9096C52.2153 66.3176 51.5959 64.2646 51.1658 62.8482C50.9594 62.1543 50.7988 61.621 50.6899 61.2425L50.5695 60.8296V60.6346Z" fill="#263238"/>
<path d="M60.0371 68.7719C59.9798 68.8465 58.6494 67.8831 56.8028 67.0516C54.9563 66.2201 53.3621 65.9047 53.3621 65.7957C53.7253 65.7869 54.0875 65.8373 54.4345 65.9448C55.2851 66.1441 56.1147 66.4245 56.9118 66.7821C57.7168 67.1314 58.4852 67.5598 59.2056 68.0609C59.5189 68.252 59.7996 68.4921 60.0371 68.7719Z" fill="#263238"/>
<path d="M14.1495 78.4174C14.1878 78.3647 14.23 78.3148 14.2756 78.2683L14.6713 77.8325L16.2139 76.181L21.9484 70.0909L22 70.0335L22.0746 70.0737L29.7531 74.6613L29.8563 74.7244L29.799 74.8333L28.1188 77.8497L20.899 88.5905C19.7955 89.96 18.4789 91.143 16.9995 92.0943C15.7838 92.9158 14.365 93.386 12.8993 93.4533C12.5374 93.4562 12.1761 93.4217 11.8212 93.3501C11.4716 93.2579 11.1345 93.123 10.8177 92.9487C10.2014 92.6078 9.62444 92.2001 9.09735 91.733C8.05147 90.8566 7.17827 89.7928 6.52255 88.5962C6.44484 88.445 6.37963 88.2878 6.32758 88.126C6.2817 87.9654 6.25303 87.7991 6.21862 87.6385L6.10967 87.1511C6.10967 86.9905 6.08099 86.8242 6.06379 86.6637C6.00766 86.0249 5.98851 85.3835 6.00645 84.7426C6.13435 82.3608 6.414 79.9895 6.84369 77.6433C7.20496 75.4412 7.59491 73.394 7.94471 71.5303C8.66153 67.8028 9.23498 64.7807 9.58479 62.6876C9.76829 61.6439 9.89445 60.8296 9.98047 60.2791C10.0263 60.0153 10.0608 59.8032 10.0837 59.6483L10.1296 59.4362C10.1359 59.5087 10.1359 59.5816 10.1296 59.6541C10.1296 59.8089 10.0837 60.0211 10.055 60.2849C9.9862 60.8583 9.87725 61.6612 9.71095 62.7106C9.39555 64.8094 8.85077 67.8372 8.16263 71.5704C7.82429 73.4399 7.45155 75.4813 7.09601 77.6834C6.69675 80.0206 6.44013 82.3799 6.32758 84.7483C6.31145 85.3779 6.33252 86.0079 6.39066 86.635C6.39066 86.7956 6.39066 86.9561 6.43653 87.111L6.53976 87.5755C6.57416 87.7303 6.60284 87.8851 6.64298 88.0399C6.69433 88.1892 6.75563 88.3348 6.82648 88.4758C7.47013 89.6328 8.32161 90.6611 9.3382 91.5093C10.3589 92.3638 11.5231 93.2297 12.9337 93.1551C14.3432 93.0905 15.707 92.6359 16.8734 91.8419C18.3237 90.9042 19.6165 89.7429 20.704 88.4012L27.941 77.6777C28.5144 76.634 29.0879 75.6132 29.6613 74.667L29.7072 74.8391L22.0516 70.2515H22.1778L16.3573 76.2784C15.6748 76.9666 15.1473 77.5114 14.7745 77.8898L14.3616 78.3027C14.2011 78.3773 14.1552 78.4232 14.1495 78.4174Z" fill="#263238"/>
<path d="M22.7341 70.6815L22.0746 66.4896L18.978 63.089L19.3507 57.7272C19.3507 57.7272 20.4976 57.3488 20.4976 58.4039C20.4976 59.4591 20.8646 62.0339 20.8646 62.0339L21.7821 62.8654L21.633 57.6584L23.9785 54.6994C24.2495 54.9554 24.4375 55.2867 24.5183 55.6506C24.599 56.0145 24.5688 56.3943 24.4315 56.7409C24.2323 57.3922 23.924 58.0049 23.5197 58.553L23.7491 61.8045H24.5577V58.7824L27.9984 54.3267C27.9984 54.3267 28.3768 54.6249 27.9984 55.9839C27.7294 56.8986 27.3742 57.7858 26.9375 58.6333L28.1647 64.1499L29.3116 64.6775L29.885 63.7714L31.6054 60.1415C31.7517 60.1006 31.9065 60.1004 32.0529 60.1408C32.1994 60.1812 32.3322 60.2608 32.4369 60.3708C32.7408 60.7493 31.6054 63.6911 31.5308 64.2244C31.4563 64.7578 33.2225 68.1526 32.4885 69.8901L29.0478 74.3631L22.7341 70.6815Z" fill="#FFBE9D"/>
<path d="M25.6873 49.934V67.6422H35.7571V50.215L25.6873 49.934Z" fill="#263238"/>
<path d="M35.7571 53.7188C35.7571 53.7188 37.38 53.7188 37.5291 54.9288C37.6782 56.1388 37.6782 56.6492 38.7391 57.8763C39.8 59.1035 40.9297 60.1415 41.1533 62.7105L41.3942 64.0065L36.8467 68.835C36.8467 68.835 29.3402 68.6802 28.4112 68.3762C27.7439 68.1279 27.122 67.7714 26.5704 67.3211L25.5153 64.1499C25.5153 64.1499 25.8995 63.4331 26.5762 64.3563C27.1339 65.0657 27.7475 65.7292 28.4112 66.3405L30.6534 66.5641L31.7086 66.0366L27.5568 64.2245C27.5568 64.2245 24.5347 62.5614 24.5347 62.183C24.5347 61.8045 24.6666 60.9328 24.6666 60.9328C24.516 60.722 24.4244 60.4748 24.4012 60.2167C24.378 59.9587 24.4241 59.6991 24.5347 59.4648C24.9074 58.6333 26.4213 59.4648 26.4213 59.4648C26.4213 59.4648 31.009 61.1852 31.7086 61.2769C32.2621 61.3181 32.818 61.3181 33.3716 61.2769L26.6507 57.3488C26.6507 57.3488 26.6507 56.5918 28.0098 56.8957C29.3689 57.1997 33.4461 58.7824 34.2031 58.9315C34.7492 58.9879 35.2981 58.8543 35.7571 58.553V53.7188Z" fill="#FFBE9D"/>
<path d="M35.7571 53.7188C35.7571 53.7188 35.7571 53.8335 35.7571 54.0514C35.7571 54.2694 35.7571 54.5905 35.7571 54.9919C35.7571 55.8234 35.7571 57.0219 35.7973 58.553V58.5932C35.5206 58.7679 35.2161 58.894 34.897 58.9659C34.5458 59.0431 34.18 59.0192 33.8418 58.8971C33.1537 58.6849 32.4254 58.4269 31.6512 58.1574C30.8771 57.8878 30.0513 57.5839 29.1854 57.3201C28.744 57.1691 28.294 57.0446 27.8378 56.9474C27.6143 56.9045 27.3846 56.9045 27.1611 56.9474C27.0617 56.9596 26.9689 57.0036 26.8966 57.0728C26.8243 57.1421 26.7762 57.2328 26.7597 57.3316L26.7023 57.2341L33.4404 61.145L33.8189 61.363L33.383 61.3916C32.7975 61.446 32.2081 61.446 31.6226 61.3916C31.0405 61.2428 30.4663 61.0648 29.9022 60.8583C28.7553 60.4626 27.5797 60.0383 26.3869 59.591C26.138 59.4648 25.8767 59.3648 25.607 59.2928C25.3578 59.209 25.0856 59.2276 24.8501 59.3444C24.6675 59.5377 24.5686 59.7953 24.5748 60.0612C24.569 60.3421 24.6534 60.6175 24.8157 60.8469L24.8501 60.8985V60.9558C24.7927 61.34 24.7411 61.7414 24.7182 62.1314C24.678 62.1887 24.8902 62.355 25.0279 62.464C25.1852 62.5903 25.3498 62.7071 25.521 62.8138C26.2034 63.2668 26.9317 63.6854 27.6657 64.0983L30.7738 65.4517L31.8233 65.9104L32.1157 66.0366L31.829 66.1799L30.7738 66.7075H30.7337H30.6936L28.4456 66.4781H28.394L28.3596 66.4437C27.8576 65.9764 27.381 65.4825 26.9317 64.9642C26.7023 64.7119 26.5074 64.3908 26.3009 64.1958C26.2151 64.0993 26.0967 64.038 25.9683 64.0238C25.9106 64.0308 25.8554 64.0517 25.8075 64.0847C25.7596 64.1176 25.7203 64.1616 25.6931 64.213V64.0983L26.7482 67.2695L26.7023 67.2064C27.0594 67.4951 27.4435 67.7486 27.8492 67.9634C28.047 68.072 28.2543 68.1622 28.4686 68.2329C28.6836 68.2849 28.9021 68.3214 29.1223 68.3419C30.0284 68.4394 30.9287 68.4852 31.8118 68.5254C33.578 68.6114 35.2525 68.663 36.8868 68.7031L36.7894 68.7433L41.377 63.9263V64.018C41.291 63.5535 41.2164 63.1349 41.1419 62.722C41.0903 61.9089 40.8962 61.1111 40.5684 60.3651C40.2491 59.7129 39.8399 59.1088 39.3527 58.5702C38.9134 58.1066 38.5126 57.6079 38.1542 57.0793C37.8691 56.6155 37.6981 56.0908 37.6553 55.5482C37.6635 55.1322 37.5584 54.7219 37.3513 54.3611C37.1542 54.1284 36.8929 53.9589 36.6001 53.8737C36.3584 53.8012 36.1109 53.7494 35.8604 53.7188C36.1165 53.7063 36.3728 53.7393 36.6173 53.8163C36.9267 53.8965 37.2046 54.0684 37.4144 54.3095C37.5501 54.4735 37.6375 54.6721 37.6667 54.8829C37.7069 55.0951 37.7298 55.313 37.7642 55.5539C37.8176 56.0773 37.9902 56.5814 38.2689 57.0277C38.6306 57.5447 39.0333 58.0318 39.4731 58.4842C39.9787 59.0286 40.4035 59.6428 40.7347 60.3078C41.0491 61.0794 41.2239 61.9007 41.2508 62.7335C41.3254 63.1407 41.4056 63.5593 41.4917 64.0295V64.0811L41.4515 64.1213L36.9212 68.9555L36.8868 69.0013H36.8295C35.2124 69.0013 33.5149 68.9268 31.7487 68.8465C30.8599 68.8064 29.9595 68.7662 29.0363 68.6745C28.7988 68.6497 28.5632 68.6094 28.3309 68.554C28.1029 68.4738 27.8806 68.378 27.6657 68.2673C27.2407 68.0413 26.8376 67.7764 26.4615 67.476H26.4328V67.4358C26.083 66.3979 25.7275 65.337 25.3719 64.2646V64.2015L25.4006 64.1442C25.4519 64.0471 25.5274 63.9649 25.6199 63.9056C25.7123 63.8463 25.8185 63.8119 25.9282 63.8059C26.1337 63.8172 26.3269 63.9076 26.4672 64.0582C26.731 64.3277 26.8916 64.5972 27.121 64.8495C27.5626 65.3583 28.0316 65.8426 28.5259 66.3004L28.4399 66.2602L30.6878 66.4839H30.6075L31.6627 65.9563V66.1742L30.6133 65.7155L27.488 64.3621C26.7425 63.9492 26.0199 63.5249 25.3203 63.0661C25.1483 62.9514 24.9762 62.8367 24.8099 62.7048L24.5634 62.4984C24.522 62.4532 24.4837 62.4053 24.4487 62.355C24.4256 62.3116 24.4083 62.2653 24.3971 62.2174C24.3918 62.187 24.3918 62.156 24.3971 62.1256C24.3971 61.707 24.4773 61.3171 24.5289 60.9214L24.5634 61.0361C24.3578 60.7511 24.2511 60.4067 24.2594 60.0555C24.234 59.8799 24.2563 59.7007 24.3241 59.5368C24.392 59.3729 24.5027 59.2303 24.6448 59.124C24.7869 59.0178 24.9549 58.9518 25.1314 58.9331C25.3078 58.9143 25.486 58.9435 25.6472 59.0175C25.9443 59.0938 26.2311 59.2055 26.5016 59.3501C27.6887 59.7974 28.8642 60.2275 30.0054 60.6289C30.5789 60.8182 31.1523 61.0304 31.6914 61.1508C32.2636 61.2038 32.8395 61.2038 33.4117 61.1508L33.3601 61.3974L26.645 57.452L26.5819 57.4176V57.3545C26.5959 57.2043 26.6601 57.0632 26.7641 56.9539C26.8682 56.8447 27.006 56.7737 27.1554 56.7524C27.4092 56.7035 27.67 56.7035 27.9238 56.7524C28.388 56.855 28.8456 56.9852 29.2943 57.1423C30.166 57.4291 31.0147 57.7158 31.7602 57.9968C32.5057 58.2778 33.2569 58.5416 33.9336 58.7595C34.2383 58.8608 34.5626 58.8891 34.8803 58.8423C35.198 58.7955 35.5003 58.6748 35.7629 58.49V58.5473C35.7629 56.999 35.7629 55.789 35.803 54.946C35.803 54.5637 35.803 54.2541 35.803 54.017C35.7786 53.9193 35.7632 53.8194 35.7571 53.7188Z" fill="#EB996E"/>
<path d="M32.5917 64.0066C32.1723 63.9945 31.7569 63.9211 31.3588 63.7887C30.3851 63.5351 29.4276 63.2229 28.4916 62.8539C27.5506 62.4908 26.6316 62.0734 25.739 61.6038C25.3547 61.4328 24.9973 61.2068 24.6781 60.9329C25.0753 61.0552 25.4595 61.2166 25.825 61.4146C26.5246 61.73 27.4995 62.1486 28.5948 62.5615C29.6901 62.9743 30.6879 63.3299 31.4219 63.565C31.8249 63.6749 32.2166 63.8228 32.5917 64.0066Z" fill="#EB996E"/>
<path d="M33.5264 65.8416C33.5666 65.9104 33.3429 66.1054 32.9989 66.0882C32.6548 66.071 32.4254 65.8473 32.5057 65.7843C32.586 65.7212 32.7637 65.7843 33.0161 65.7843C33.2684 65.7843 33.4863 65.7671 33.5264 65.8416Z" fill="#EB996E"/>
<path d="M34.702 63.8288C34.7765 63.8632 34.6217 64.213 34.2031 64.3277C33.7845 64.4424 33.4748 64.2245 33.5207 64.1556C33.5666 64.0868 33.8246 64.1556 34.0941 64.041C34.3637 63.9263 34.6274 63.7829 34.702 63.8288Z" fill="#EB996E"/>
<path d="M36.0897 61.0705C36.1585 61.1164 36.0209 61.3916 35.6883 61.4776C35.3557 61.5637 35.1149 61.3974 35.1149 61.3285C35.1149 61.2597 35.3615 61.2597 35.5908 61.1909C35.8202 61.1221 36.0267 61.0131 36.0897 61.0705Z" fill="#EB996E"/>
<path d="M37.294 58.2377C37.294 58.3179 36.9156 58.4384 36.4339 58.5588C35.9522 58.6792 35.5507 58.7538 35.5163 58.6792C35.4819 58.6047 35.8604 58.3925 36.3593 58.2663C36.8582 58.1402 37.2826 58.1459 37.294 58.2377Z" fill="#EB996E"/>
<path d="M42.3977 32.0882C41.5662 29.7543 40.7978 27.2827 39.8115 25.0061C39.6394 24.5989 39.1348 24.4326 38.9685 24.0197C37.684 20.8428 36.732 17.4709 34.7364 14.6839C32.7408 11.897 29.3345 9.75799 25.9855 10.4691L27.2357 15.2517C28.956 17.8322 32.6777 18.7268 33.9106 21.5596C34.6963 23.3717 34.2318 25.5164 34.9084 27.3744C35.3557 28.6131 36.2847 29.6281 36.8238 30.8151C37.5807 32.5011 37.5291 34.4279 37.466 36.2801L37.2367 43.001C37.1965 44.1938 37.1793 45.4898 37.8961 46.4417C39.0086 47.9327 41.6752 48.0187 43.5217 47.7951C44.3303 47.6976 45.2421 47.7606 45.6263 47.6861C45.6263 47.6861 44.8234 41.5215 44.7718 41.1488C44.1181 36.6357 43.9174 36.3547 42.3977 32.0882Z" fill="#263238"/>
<path d="M46.7904 42.4677C46.7802 42.3341 46.7802 42.1999 46.7904 42.0663C46.7904 41.7681 46.8363 41.3839 46.8707 40.9194C46.9337 39.9101 47.0542 38.4592 47.1 36.6586C47.1782 34.5476 47.0418 32.4341 46.6929 30.3506C46.477 29.1315 46.1408 27.9367 45.6894 26.7838C45.2098 25.5468 44.5759 24.3753 43.8027 23.2972C43.0308 22.2168 42.0898 21.2679 41.0157 20.4873C39.9997 19.7856 38.8947 19.2225 37.7298 18.8128C35.4991 18.01 33.3888 17.4996 31.7545 16.6853C30.4317 16.1043 29.256 15.2343 28.3138 14.1392C27.9672 13.742 27.6918 13.288 27.4995 12.7973C27.7704 13.2411 28.0732 13.6647 28.4055 14.0646C29.365 15.1122 30.5384 15.9414 31.8462 16.496C33.4691 17.2702 35.5622 17.7576 37.8216 18.5547C39.0164 18.9729 40.1489 19.5517 41.1877 20.2751C42.2939 21.0676 43.2625 22.0362 44.055 23.1424C44.8446 24.2417 45.4884 25.4387 45.9703 26.7035C46.4274 27.8742 46.7637 29.0886 46.9739 30.3277C47.3159 32.4214 47.4332 34.5457 47.3237 36.6643C47.2491 38.4707 47.1 39.9216 46.9968 40.9251C46.9395 41.4068 46.8936 41.7853 46.8592 42.072C46.8518 42.2061 46.8287 42.3389 46.7904 42.4677Z" fill="#E0E0E0"/>
<path d="M45.9531 20.407C45.2733 19.7165 44.5194 19.103 43.7052 18.5777C42.7981 18.0438 41.837 17.6074 40.8379 17.276C39.61 16.8687 38.362 16.5242 37.099 16.2437C34.7909 15.6919 32.5805 14.7908 30.5445 13.5715C29.9363 13.1941 29.3608 12.7663 28.8241 12.2927C28.6093 12.1267 28.4166 11.934 28.2507 11.7192C28.4708 11.8618 28.6798 12.0209 28.8757 12.1952C29.4392 12.6283 30.0312 13.023 30.6477 13.3765C32.6923 14.5293 34.8864 15.3938 37.1679 15.9456C38.4383 16.2283 39.6922 16.5805 40.924 17.0007C41.9292 17.353 42.8912 17.8186 43.7912 18.3885C44.3998 18.7773 44.9567 19.2417 45.4485 19.7705C45.5805 19.9149 45.7049 20.0661 45.8212 20.2235C45.9245 20.3439 45.9589 20.4013 45.9531 20.407Z" fill="#E0E0E0"/>
<path d="M42.3347 47.3822C41.8928 47.1066 41.4946 46.7664 41.1534 46.3729C40.1856 45.3107 39.5376 43.9968 39.2839 42.5824C39.2027 42.1165 39.1605 41.6446 39.1578 41.1717C39.1738 40.6575 39.2313 40.1455 39.3298 39.6406C39.5248 38.5969 39.8746 37.5245 40.1154 36.3776C40.4311 35.2056 40.3709 33.964 39.9434 32.828C39.4445 31.6811 38.4295 30.7348 37.879 29.4331C37.3285 28.1314 37.3399 26.7494 37.0991 25.5107C36.8671 24.3127 36.3844 23.1772 35.6826 22.1789C35.0475 21.2684 34.3191 20.4267 33.5093 19.6672C32.8154 18.9906 32.0632 18.3766 31.2613 17.8322C30.0651 17.0764 28.9704 16.1706 28.0041 15.137C27.6515 14.7486 27.3753 14.2972 27.1898 13.8065C27.4528 14.2488 27.7541 14.6671 28.0901 15.0567C29.0795 16.0544 30.1845 16.9304 31.3818 17.6659C32.1987 18.2091 32.9662 18.8232 33.6756 19.5009C34.5083 20.263 35.2562 21.1128 35.9063 22.0356C36.6414 23.0626 37.146 24.2363 37.3858 25.4763C37.6324 26.7494 37.6381 28.1084 38.1542 29.3414C38.6703 30.5743 39.6796 31.509 40.2072 32.7305C40.6609 33.9225 40.7231 35.2281 40.385 36.4579C40.1269 37.6048 39.7714 38.6886 39.5707 39.7094C39.4711 40.1988 39.4116 40.6955 39.3929 41.1946C39.3866 41.6553 39.4192 42.1157 39.4904 42.5709C39.7155 43.9515 40.31 45.2454 41.2107 46.3155C41.5657 46.6913 41.9409 47.0473 42.3347 47.3822Z" fill="#E0E0E0"/>
</g>
<defs>
<clipPath id="clip0_20_559">
<rect width="71" height="71" rx="35.5" fill="white"/>
</clipPath>
</defs>
</svg>
