<svg width="302" height="226" viewBox="0 0 302 226" fill="none" xmlns="http://www.w3.org/2000/svg">
<path d="M151 225.71C215.678 225.71 268.11 222.649 268.11 218.873C268.11 215.096 215.678 212.035 151 212.035C86.3221 212.035 33.8903 215.096 33.8903 218.873C33.8903 222.649 86.3221 225.71 151 225.71Z" fill="#F5F5F5"/>
<path d="M141.378 123.024L142.888 114.314L145.854 115.172L141.378 123.024Z" fill="#37474F"/>
<path d="M142.375 125.814L150.867 123.356L149.683 120.499L142.375 125.814Z" fill="#37474F"/>
<path d="M143.885 122.534L148.723 113.39L151.985 115.655L143.885 122.534Z" fill="#37474F"/>
<path d="M198.541 37.6662H189.741C189.373 37.6425 189.028 37.4797 188.777 37.2111C188.525 36.9424 188.385 36.5879 188.385 36.2197C188.385 35.8514 188.525 35.4969 188.777 35.2282C189.028 34.9596 189.373 34.7968 189.741 34.7731H198.541C198.908 34.7968 199.253 34.9596 199.505 35.2282C199.757 35.4969 199.897 35.8514 199.897 36.2197C199.897 36.5879 199.757 36.9424 199.505 37.2111C199.253 37.4797 198.908 37.6425 198.541 37.6662Z" fill="#37474F"/>
<g opacity="0.7">
<path d="M198.541 37.6662H189.741C189.373 37.6425 189.028 37.4797 188.777 37.2111C188.525 36.9424 188.385 36.5879 188.385 36.2197C188.385 35.8514 188.525 35.4969 188.777 35.2282C189.028 34.9596 189.373 34.7968 189.741 34.7731H198.541C198.908 34.7968 199.253 34.9596 199.505 35.2282C199.757 35.4969 199.897 35.8514 199.897 36.2197C199.897 36.5879 199.757 36.9424 199.505 37.2111C199.253 37.4797 198.908 37.6425 198.541 37.6662Z" fill="white"/>
</g>
<path d="M230.825 67.3287L197.085 129.42C196.876 129.803 196.523 130.088 196.104 130.211C195.685 130.335 195.234 130.287 194.85 130.078L137.44 98.8636C137.057 98.6543 136.772 98.3014 136.649 97.8824C136.525 97.4634 136.573 97.0126 136.782 96.6288L180.662 15.886C180.872 15.5026 181.225 15.218 181.644 15.0946C182.063 14.9711 182.514 15.019 182.897 15.2276L221.553 36.2468L230.825 67.3287Z" fill="#37474F"/>
<g opacity="0.2">
<path d="M230.825 67.3287L197.085 129.42C196.876 129.803 196.523 130.088 196.104 130.211C195.685 130.335 195.234 130.287 194.85 130.078L137.44 98.8636C137.057 98.6543 136.772 98.3014 136.649 97.8824C136.525 97.4634 136.573 97.0126 136.782 96.6288L180.662 15.886C180.872 15.5026 181.225 15.218 181.644 15.0946C182.063 14.9711 182.514 15.019 182.897 15.2276L221.553 36.2468L230.825 67.3287Z" fill="white"/>
</g>
<path d="M211.881 81.2714L169.005 58.137L167.571 60.7948L210.446 83.9292L211.881 81.2714Z" fill="#37474F"/>
<path d="M206.025 92.1298L163.149 68.9954L161.715 71.6532L204.591 94.7876L206.025 92.1298Z" fill="#37474F"/>
<path d="M200.164 102.994L157.288 79.8597L155.854 82.5175L198.729 105.652L200.164 102.994Z" fill="#37474F"/>
<path d="M221.632 36.2167L211.461 54.9407C211.252 55.3244 211.204 55.7753 211.327 56.1943C211.451 56.6133 211.736 56.9662 212.119 57.1755L230.789 67.3227L221.632 36.2167Z" fill="#37474F"/>
<path opacity="0.7" d="M221.632 36.2167L211.461 54.9407C211.252 55.3244 211.204 55.7753 211.327 56.1943C211.451 56.6133 211.736 56.9662 212.119 57.1755L230.789 67.3227L221.632 36.2167Z" fill="white"/>
<path d="M239.619 65.2389L205.886 127.33C205.676 127.714 205.323 127.998 204.904 128.122C204.485 128.245 204.035 128.197 203.651 127.989L146.24 96.7979C145.856 96.5896 145.57 96.2371 145.446 95.8181C145.321 95.399 145.368 94.9476 145.576 94.5631L189.457 13.8021C189.665 13.4177 190.018 13.1318 190.437 13.0072C190.856 12.8826 191.307 12.9296 191.692 13.1377L230.378 34.157L239.619 65.2389Z" fill="#37474F"/>
<g opacity="0.5">
<path d="M239.619 65.2389L205.886 127.33C205.676 127.714 205.323 127.998 204.904 128.122C204.485 128.245 204.035 128.197 203.651 127.989L146.24 96.7979C145.856 96.5896 145.57 96.2371 145.446 95.8181C145.321 95.399 145.368 94.9476 145.576 94.5631L189.457 13.8021C189.665 13.4177 190.018 13.1318 190.437 13.0072C190.856 12.8826 191.307 12.9296 191.692 13.1377L230.378 34.157L239.619 65.2389Z" fill="white"/>
</g>
<path d="M219.548 78.5571L178.959 56.6621C178.809 56.5805 178.645 56.5294 178.475 56.5117C178.306 56.494 178.134 56.5101 177.971 56.5589C177.808 56.6078 177.655 56.6885 177.523 56.7963C177.391 56.9042 177.282 57.0372 177.202 57.1875L177.002 57.556C176.921 57.7062 176.869 57.8711 176.852 58.0411C176.834 58.2112 176.85 58.3831 176.899 58.547C176.947 58.7108 177.028 58.8634 177.136 58.996C177.244 59.1286 177.377 59.2386 177.528 59.3197L218.117 81.2147C218.419 81.3777 218.775 81.4139 219.104 81.3154C219.434 81.2169 219.711 80.9917 219.874 80.6892L220.074 80.3147C220.155 80.165 220.206 80.0005 220.224 79.8309C220.242 79.6613 220.225 79.4899 220.177 79.3265C220.128 79.1631 220.047 79.011 219.939 78.879C219.831 78.7469 219.698 78.6375 219.548 78.5571Z" fill="#37474F"/>
<path d="M213.68 89.4255L173.09 67.5244C172.459 67.1838 171.671 67.4194 171.33 68.0506L171.13 68.4227C170.789 69.0538 171.025 69.8416 171.656 70.1822L212.246 92.0833C212.877 92.4238 213.665 92.1882 214.005 91.5571L214.206 91.185C214.547 90.5538 214.311 89.766 213.68 89.4255Z" fill="#37474F"/>
<path d="M207.821 100.295L167.232 78.3941C166.6 78.0535 165.813 78.2891 165.472 78.9203L165.271 79.2924C164.931 79.9236 165.166 80.7113 165.797 81.0519L206.387 102.953C207.018 103.294 207.806 103.058 208.147 102.427L208.348 102.055C208.688 101.424 208.453 100.636 207.821 100.295Z" fill="#37474F"/>
<path d="M230.432 34.1328L220.255 52.8568C220.151 53.0466 220.086 53.255 220.063 53.47C220.04 53.6851 220.061 53.9025 220.122 54.1097C220.184 54.317 220.286 54.5099 220.423 54.6774C220.56 54.8449 220.728 54.9836 220.919 55.0856L239.589 65.2328L230.432 34.1328Z" fill="#37474F"/>
<path opacity="0.7" d="M230.432 34.1328L220.255 52.8568C220.151 53.0466 220.086 53.255 220.063 53.47C220.04 53.6851 220.061 53.9025 220.122 54.1097C220.184 54.317 220.286 54.5099 220.423 54.6774C220.56 54.8449 220.728 54.9836 220.919 55.0856L239.589 65.2328L230.432 34.1328Z" fill="white"/>
<path d="M228.101 5.66626L230.94 18.2718C220.188 21.2193 210.542 31.8618 203.602 41.9124C200.762 46.0859 198.478 50.6117 196.807 55.3755C196.807 55.3755 218.491 35.7636 230.444 34.616L229.87 55.448C229.87 55.448 242.271 31.288 266.34 22.4696C266.364 22.4635 246.178 7.94334 228.101 5.66626Z" fill="#37474F"/>
<path d="M152.637 183.381L156.943 179.812L146.083 169.507L141.451 173.464L152.637 183.381Z" fill="#CB7A63"/>
<path d="M160.434 178.435C159.943 178.293 159.418 178.318 158.943 178.507C158.653 178.592 158.339 178.694 158.085 178.791C157.831 178.888 157.68 178.948 157.517 179.015L157.04 179.226C157.012 179.233 156.987 179.249 156.969 179.272C156.952 179.295 156.943 179.324 156.943 179.353C156.939 179.362 156.937 179.373 156.937 179.383C156.937 179.393 156.939 179.404 156.943 179.413C156.963 179.443 156.993 179.465 157.028 179.474C157.64 179.634 158.264 179.741 158.894 179.794C159.204 179.833 159.519 179.809 159.818 179.721H159.861C160.033 179.664 160.199 179.589 160.356 179.498C160.455 179.418 160.533 179.315 160.583 179.198C160.632 179.081 160.652 178.954 160.64 178.827C160.641 178.75 160.623 178.673 160.587 178.605C160.551 178.536 160.499 178.478 160.434 178.435ZM160.374 178.833C160.389 178.919 160.379 179.007 160.346 179.087C160.313 179.167 160.258 179.236 160.187 179.286C160.042 179.39 159.874 179.457 159.698 179.48C159.455 179.523 159.207 179.538 158.961 179.522C158.575 179.5 158.192 179.452 157.813 179.377L157.529 179.323C158.044 179.076 158.585 178.888 159.142 178.761C159.444 178.684 159.751 178.628 160.06 178.592C160.149 178.587 160.237 178.608 160.314 178.652C160.341 178.673 160.361 178.701 160.372 178.733C160.383 178.766 160.383 178.801 160.374 178.833Z" fill="#37474F"/>
<path d="M158.459 176.176C158.321 176.2 158.19 176.253 158.072 176.329C157.955 176.406 157.855 176.506 157.777 176.623C157.728 176.695 157.685 176.772 157.65 176.852C157.421 177.554 157.375 178.302 157.517 179.027C157.519 179.036 157.519 179.047 157.517 179.057C157.522 179.08 157.533 179.102 157.549 179.12C157.565 179.138 157.585 179.152 157.608 179.159C157.621 179.165 157.635 179.169 157.65 179.169C157.665 179.169 157.679 179.165 157.692 179.159C157.703 179.159 157.714 179.156 157.723 179.151C157.733 179.146 157.741 179.138 157.747 179.129C157.866 179.028 157.977 178.917 158.079 178.797C158.27 178.57 158.442 178.328 158.592 178.072C158.967 177.468 159.233 176.774 159.069 176.417C159.009 176.26 158.852 176.103 158.459 176.176ZM158.822 176.538C158.925 176.768 158.719 177.311 158.417 177.843C158.233 178.168 158.015 178.471 157.765 178.749C157.682 178.201 157.71 177.642 157.849 177.106C157.884 176.99 157.937 176.88 158.006 176.78C158.106 176.633 158.253 176.524 158.423 176.472H158.508C158.761 176.399 158.81 176.496 158.852 176.526L158.822 176.538Z" fill="#37474F"/>
<path d="M156.382 179.558L150.946 182.288C150.842 182.337 150.76 182.421 150.714 182.525C150.667 182.629 150.659 182.747 150.692 182.856L152.286 187.917C152.326 188.036 152.389 188.147 152.471 188.241C152.553 188.336 152.653 188.414 152.765 188.47C152.877 188.526 153 188.559 153.125 188.568C153.25 188.577 153.376 188.561 153.494 188.521L153.585 188.479C162.856 185.224 165.701 182.916 166.668 182.391C169.428 180.887 167.876 178.93 166.849 179.171C162.222 180.277 160.67 179.993 158.671 179.48C157.913 179.32 157.127 179.347 156.382 179.558Z" fill="#263238"/>
<path opacity="0.2" d="M146.089 169.514L151.586 174.388L146.947 178.338L141.451 173.464L146.089 169.514Z" fill="black"/>
<path d="M144.374 178.302L151.29 171.923L149.768 169.254L141.771 176.121L144.374 178.302Z" fill="#37474F"/>
<path opacity="0.5" d="M144.374 178.302L151.29 171.923L149.768 169.254L141.771 176.121L144.374 178.302Z" fill="white"/>
<path d="M148.681 170.19L147.75 170.987L146.367 172.195L145.564 172.878L143.148 174.968L142.683 175.36C142.683 175.36 132.832 169.809 127.347 165.092C123.596 161.849 123.258 160.635 122.86 160.937C117.563 164.971 101.883 178.9 92.9978 186.142C92.7079 186.178 92.3938 186.202 92.128 186.226C87.3806 186.571 83.672 186.051 80.7487 184.946C80.7487 181.092 84.0163 172.093 84.2881 171.223C84.2881 171.223 97.401 158.195 118.65 147.178C118.858 147.072 119.072 146.977 119.29 146.894C119.562 146.767 119.84 146.654 120.123 146.555C121.163 146.141 122.262 145.893 123.379 145.819C124.319 145.781 125.257 145.928 126.139 146.253C126.646 146.433 127.139 146.651 127.613 146.906C128.029 147.121 128.432 147.359 128.821 147.619C129.479 148.035 130.114 148.5 130.712 148.959C132.071 150.01 142.333 163.232 147.847 169.332C148.143 169.616 148.421 169.918 148.681 170.19Z" fill="#37474F"/>
<g opacity="0.1">
<path d="M148.681 170.19L147.75 170.987L146.367 172.195L145.564 172.878L143.148 174.968L142.683 175.36C142.683 175.36 132.832 169.809 127.347 165.092C123.596 161.849 123.258 160.635 122.86 160.937C117.563 164.971 101.883 178.9 92.9978 186.142C92.7079 186.178 92.3938 186.202 92.128 186.226C87.3806 186.571 83.672 186.051 80.7487 184.946C80.7487 181.092 84.0163 172.093 84.2881 171.223C84.2881 171.223 97.401 158.195 118.65 147.178C118.858 147.072 119.072 146.977 119.29 146.894C119.562 146.767 119.84 146.654 120.123 146.555C121.163 146.141 122.262 145.893 123.379 145.819C124.319 145.781 125.257 145.928 126.139 146.253C126.646 146.433 127.139 146.651 127.613 146.906C128.029 147.121 128.432 147.359 128.821 147.619C129.479 148.035 130.114 148.5 130.712 148.959C132.071 150.01 142.333 163.232 147.847 169.332C148.143 169.616 148.421 169.918 148.681 170.19Z" fill="black"/>
</g>
<path d="M78.7071 114.568C79.5406 118.325 80.4104 123.815 77.8253 126.4C81.0349 132.039 84.8858 137.289 89.3013 142.044C94.9608 132.204 89.5972 126.122 89.5972 126.122C85.3692 125.216 85.4236 123.507 86.088 120.559L78.7071 114.568Z" fill="#CB7A63"/>
<path d="M75.2039 126.859C75.5117 125.843 76.1493 124.959 77.0159 124.346C77.8676 123.7 86.6799 123.603 88.9449 124.346C90.2808 124.77 91.4167 125.665 92.1401 126.865L75.2039 126.859Z" fill="#37474F"/>
<path d="M115.775 141.838L118.046 140.799L118.16 144.508C117.505 145.079 116.75 145.524 115.932 145.819C115.676 145.894 115.405 145.901 115.146 145.838C114.888 145.776 114.65 145.646 114.457 145.462C114.264 145.279 114.123 145.047 114.048 144.792C113.973 144.536 113.966 144.265 114.029 144.007C114.141 143.538 114.356 143.101 114.658 142.726C114.96 142.351 115.341 142.048 115.775 141.838Z" fill="#CB7A63"/>
<path d="M120.957 141.844L120.836 143.209C120.819 143.414 120.738 143.608 120.603 143.764C120.468 143.919 120.288 144.027 120.087 144.073L118.142 144.508L118.028 140.799L120.003 140.83C120.127 140.827 120.251 140.85 120.367 140.896C120.482 140.941 120.588 141.01 120.676 141.097C120.765 141.184 120.836 141.288 120.884 141.403C120.932 141.518 120.957 141.641 120.957 141.766V141.844Z" fill="#CB7A63"/>
<path d="M86.8974 152.384C90.5068 154.239 94.6041 154.925 98.621 154.347C103.453 153.532 111.909 148.669 115.575 145.891L114.367 144.079C112.555 144.472 97.5821 152.07 87.9242 145.196C86.1122 143.916 79.0514 138.643 76.5569 138.752C72.504 138.933 72.8543 143.179 74.5939 144.949C76.6052 146.972 84.1008 151.007 86.8974 152.384Z" fill="#CB7A63"/>
<g opacity="0.2">
<path d="M120.836 143.209C120.821 143.413 120.741 143.607 120.607 143.762C120.473 143.916 120.293 144.023 120.093 144.067L118.16 144.508C117.505 145.08 116.75 145.524 115.932 145.819C115.817 145.857 115.696 145.877 115.575 145.879C111.903 148.67 103.495 153.526 98.627 154.335C94.6121 154.91 90.5176 154.224 86.9094 152.372C84.1129 150.995 76.6052 146.936 74.5697 144.894C72.8302 143.125 72.4798 138.854 76.5327 138.697C79.0272 138.589 86.094 143.862 87.9 145.142C97.117 151.696 111.142 145.088 114.011 144.121C114.008 144.077 114.008 144.033 114.011 143.988C114.116 143.523 114.322 143.085 114.615 142.708C114.917 142.334 115.299 142.033 115.732 141.826L117.985 140.793L119.948 140.824C120.072 140.822 120.195 140.845 120.31 140.891C120.425 140.938 120.53 141.006 120.618 141.093C120.706 141.181 120.776 141.284 120.824 141.399C120.872 141.513 120.897 141.636 120.897 141.76V141.844L120.836 143.209Z" fill="black"/>
<path d="M118.046 140.799L118.028 140.805V140.799H118.046Z" fill="black"/>
</g>
<path d="M99.5633 132.929C104.691 144.23 92.7985 147.461 98.2465 165.992L72.3953 166.596C72.5644 156.666 76.0978 158.799 71.441 140.129C71.0484 138.546 70.3961 134.01 72.0812 129.861C72.7255 128.245 73.9102 126.902 75.4334 126.062C77.3421 125.035 85.7498 125.838 89.5852 126.098C93.7407 125.536 98.8022 131.516 99.5633 132.929Z" fill="#37474F"/>
<path opacity="0.5" d="M99.5633 132.929C104.691 144.23 92.7985 147.461 98.2465 165.992L72.3953 166.596C72.5644 156.666 76.0978 158.799 71.441 140.129C71.0484 138.546 70.3961 134.01 72.0812 129.861C72.7255 128.245 73.9102 126.902 75.4334 126.062C77.3421 125.035 85.7498 125.838 89.5852 126.098C93.7407 125.536 98.8022 131.516 99.5633 132.929Z" fill="white"/>
<path d="M94.6225 110.509C94.55 111.004 94.7494 111.409 95.0574 111.451C95.3654 111.493 95.6614 111.149 95.752 110.672C95.8426 110.195 95.6191 109.778 95.3111 109.729C95.003 109.681 94.689 110.038 94.6225 110.509Z" fill="#263238"/>
<path d="M95.1722 109.736L96.3802 109.573C96.3802 109.573 95.6433 110.382 95.1722 109.736Z" fill="#263238"/>
<path d="M94.701 111.161C94.9648 112.304 95.3877 113.404 95.9574 114.429C95.6903 114.567 95.3961 114.645 95.0956 114.658C94.7951 114.67 94.4955 114.617 94.2178 114.501L94.701 111.161Z" fill="#A02724"/>
<path d="M96.3319 107.187C96.378 107.17 96.4186 107.14 96.4495 107.102C96.4803 107.064 96.5002 107.018 96.507 106.969C96.5176 106.895 96.499 106.819 96.455 106.759C96.4111 106.698 96.3453 106.656 96.2715 106.643C95.8307 106.566 95.3778 106.596 94.951 106.73C94.5242 106.865 94.136 107.1 93.8192 107.416C93.787 107.44 93.7601 107.47 93.7402 107.504C93.7204 107.539 93.7081 107.577 93.7041 107.617C93.7001 107.657 93.7045 107.697 93.717 107.735C93.7296 107.773 93.75 107.807 93.7769 107.837C93.8038 107.866 93.8366 107.89 93.8732 107.906C93.9098 107.922 93.9493 107.93 93.9892 107.929C94.0291 107.929 94.0685 107.92 94.1048 107.904C94.141 107.887 94.1734 107.863 94.1997 107.833L94.236 107.791C94.4906 107.543 94.8 107.36 95.1391 107.255C95.4781 107.15 95.8371 107.127 96.1869 107.187C96.2344 107.199 96.2843 107.199 96.3319 107.187Z" fill="#263238"/>
<path d="M78.9789 106.595C78.4897 112.484 78.1575 114.966 80.6641 118.391C84.4451 123.537 91.7958 122.861 94.0185 117.237C96.0419 112.17 96.501 103.394 91.1314 100.247C90.2196 99.707 89.2102 99.3524 88.1611 99.2033C87.112 99.0541 86.0439 99.1134 85.0177 99.3776C83.9916 99.6419 83.0276 100.106 82.181 100.743C81.3345 101.381 80.622 102.179 80.0842 103.092C79.4481 104.157 79.0696 105.357 78.9789 106.595Z" fill="#CB7A63"/>
<path d="M94.1575 116.881C93.7088 116.495 93.3711 115.997 93.179 115.437C93.1739 115.406 93.1795 115.374 93.1949 115.347C93.2103 115.32 93.2345 115.298 93.2636 115.286C93.294 115.279 93.3261 115.284 93.3531 115.299C93.3802 115.315 93.4 115.341 93.4085 115.371C93.5861 115.851 93.8736 116.284 94.2481 116.633L94.1575 116.881Z" fill="#263238"/>
<path d="M74.7811 98.9421C72.5403 101.962 71.5195 102.771 74.2979 110.871C75.4153 114.127 78.6588 118.439 80.2353 118.832C83.062 119.545 85.8102 117.563 87.9302 115.564C89.8598 113.886 91.4755 111.877 92.7018 109.633C93.8374 107.344 94.2541 104.596 93.3058 102.222C92.2911 99.6427 88.7094 97.3415 86.0276 96.7858C82.8868 96.1093 76.6475 96.4113 74.7811 98.9421Z" fill="#263238"/>
<path d="M92.4119 110.134C92.4119 110.134 93.1186 111.342 92.2247 112.254V110.642L92.4119 110.134Z" fill="#263238"/>
<path d="M92.4119 110.134C92.4119 110.134 92.6716 111.994 91.1133 112.689L91.9468 110.684L92.4119 110.134Z" fill="#263238"/>
<path d="M82.011 118.149C82.011 118.149 80.2956 118.928 80.5432 120.614L81.7935 118.832L82.011 118.149Z" fill="#263238"/>
<path d="M82.0774 118.192C82.0774 118.192 80.7728 119.544 81.6305 121.024L82.1318 118.904L82.0774 118.192Z" fill="#263238"/>
<path d="M94.7434 107.7C95.3806 107.094 95.9442 106.415 96.4225 105.677C96.9117 104.936 97.1255 104.046 97.0265 103.164C96.9048 102.608 96.6621 102.085 96.3155 101.633C95.9689 101.181 95.527 100.811 95.0212 100.549C94.011 100.028 92.9275 99.6634 91.8079 99.4676C91.2777 99.277 90.6951 99.2943 90.1771 99.5159C89.9615 99.6752 89.7921 99.8889 89.686 100.135C89.5798 100.381 89.5409 100.651 89.5731 100.917C89.6308 101.453 89.7778 101.976 90.008 102.463C90.7443 104.419 91.2865 106.442 91.6267 108.503C91.8139 109.542 91.675 110.237 92.7018 109.832C93.336 109.597 94.2239 108.25 94.7434 107.7Z" fill="#263238"/>
<path d="M86.6135 110.611C86.5509 111.974 87.0309 113.305 87.9483 114.314C89.1563 115.643 90.7388 114.773 91.1858 113.106C91.5904 111.62 91.4394 109.138 89.8268 108.425C88.2141 107.712 86.698 108.95 86.6135 110.611Z" fill="#CB7A63"/>
<path d="M155.119 186.093L159.782 181.551L150.752 170.202L145.117 173.53L155.119 186.093Z" fill="#CB7A63"/>
<path d="M164.542 180.15C164.028 179.969 162.965 180.549 162.156 181.062C161.951 181.189 161.769 181.316 161.612 181.424L161.534 181.485C161.353 181.612 161.22 181.708 161.171 181.751C161.144 181.764 161.122 181.786 161.108 181.813C161.095 181.841 161.092 181.872 161.099 181.902C161.108 181.932 161.126 181.959 161.151 181.978C161.176 181.998 161.206 182.009 161.238 182.01C161.794 182.034 162.351 182.016 162.905 181.956L163.273 181.914C163.673 181.884 164.058 181.75 164.391 181.527C164.512 181.453 164.626 181.366 164.729 181.267C164.816 181.162 164.876 181.037 164.902 180.903C164.929 180.769 164.921 180.631 164.88 180.5C164.856 180.419 164.812 180.345 164.753 180.284C164.694 180.223 164.622 180.177 164.542 180.15ZM164.578 180.585C164.608 180.673 164.614 180.767 164.596 180.858C164.578 180.949 164.536 181.034 164.475 181.104C164.223 181.348 163.903 181.508 163.557 181.563C163.149 181.657 162.732 181.711 162.313 181.726C162.12 181.726 161.918 181.726 161.709 181.726L161.914 181.575C161.96 181.537 162.008 181.503 162.059 181.473C162.708 181.015 163.423 180.659 164.179 180.416C164.272 180.389 164.37 180.389 164.463 180.416C164.496 180.43 164.524 180.454 164.545 180.484C164.565 180.514 164.577 180.549 164.578 180.585Z" fill="#37474F"/>
<path d="M161.957 178.223C161.819 178.276 161.694 178.357 161.59 178.461C161.486 178.565 161.405 178.69 161.353 178.827C160.966 179.751 161.534 181.189 161.624 181.412C161.635 181.437 161.651 181.458 161.673 181.474C161.694 181.49 161.719 181.5 161.745 181.503C161.775 181.509 161.806 181.509 161.836 181.503C161.857 181.496 161.874 181.481 161.884 181.461C161.979 181.331 162.064 181.193 162.138 181.05C162.585 180.21 163.002 178.809 162.639 178.326C162.549 178.193 162.349 178.06 161.957 178.223ZM161.806 181.074C161.522 180.405 161.455 179.664 161.612 178.954C161.684 178.775 161.816 178.627 161.987 178.537L162.065 178.501C162.325 178.398 162.391 178.501 162.416 178.501C162.681 178.87 162.277 180.301 161.806 181.074Z" fill="#37474F"/>
<path opacity="0.2" d="M150.281 169.507L154.527 174.943L148.783 178.151L144.471 172.854L150.281 169.507Z" fill="black"/>
<path d="M72.1597 164.633L71.5557 166.983C71.4651 167.164 71.6886 167.339 71.9846 167.333L98.6029 166.729C98.8385 166.729 99.0257 166.602 99.0378 166.451L98.3734 163.993C98.3734 163.836 98.1801 163.703 97.9264 163.709L72.5584 164.458C72.4829 164.454 72.4077 164.468 72.3385 164.499C72.2693 164.529 72.2081 164.575 72.1597 164.633Z" fill="#263238"/>
<path d="M95.8487 166.983L95.148 167.061C95.0091 167.061 94.8943 167.019 94.8943 166.928V163.908C94.8943 163.818 95.0091 163.733 95.142 163.721L95.8426 163.637C95.9815 163.637 96.0963 163.685 96.0963 163.776V166.796C96.0963 166.886 95.9876 166.971 95.8487 166.983Z" fill="#37474F"/>
<path d="M86.3175 167.116L85.6169 167.188C85.484 167.188 85.3693 167.146 85.3693 167.055V164.035C85.3693 163.951 85.484 163.866 85.6229 163.848L86.3175 163.77C86.4565 163.77 86.5712 163.812 86.5712 163.902V166.922C86.5712 167.019 86.4565 167.116 86.3175 167.116Z" fill="#37474F"/>
<path d="M86.3175 167.116L85.6169 167.188C85.484 167.188 85.3693 167.146 85.3693 167.055V164.035C85.3693 163.951 85.484 163.866 85.6229 163.848L86.3175 163.77C86.4565 163.77 86.5712 163.812 86.5712 163.902V166.922C86.5712 167.019 86.4565 167.116 86.3175 167.116Z" fill="#37474F"/>
<path d="M153.851 171.948L152.673 172.612L150.644 173.76L148.832 174.78L146.965 175.831L146.246 176.236L145.8 175.904C145.691 175.831 145.564 175.741 145.419 175.626C144.972 175.294 144.356 174.835 143.607 174.261C139.856 171.289 133.17 165.455 131.177 160.145C129.89 161.68 128.35 163.606 126.586 165.732C118.988 174.895 107.198 187.827 93.0159 189.512L92.1461 189.603C87.4047 190.007 83.6901 189.536 80.7607 188.467C73.3979 185.767 71.3443 179.298 71.8457 173.796C71.894 171.217 72.3953 166.626 72.3953 166.626H99.2613C103.042 162.03 110.641 154.83 118.402 150.318C118.583 150.204 118.77 150.095 118.958 149.998C119.145 149.902 119.423 149.732 119.652 149.606C121.995 148.283 124.498 147.268 127.1 146.586C127.631 146.459 128.157 146.35 128.676 146.272C129.208 146.192 129.745 146.141 130.283 146.121C133.961 145.957 137.156 147.329 139.343 150.995L153.446 171.344L153.851 171.948Z" fill="#37474F"/>
<path d="M139.355 144.031L109.674 145.257L110.544 126.37L140.225 125.144L139.355 144.031Z" fill="#37474F"/>
<path d="M139.011 145.517L109.759 146.725C109.566 146.737 109.374 146.708 109.193 146.64C109.013 146.572 108.85 146.466 108.714 146.329C108.578 146.192 108.474 146.028 108.407 145.847C108.34 145.666 108.313 145.473 108.327 145.281L109.185 126.515C109.211 126.106 109.385 125.72 109.676 125.431C109.966 125.142 110.352 124.969 110.761 124.944L140.013 123.736C140.205 123.725 140.398 123.754 140.577 123.823C140.757 123.891 140.92 123.998 141.056 124.134C141.191 124.271 141.296 124.435 141.363 124.615C141.43 124.795 141.458 124.988 141.445 125.18L140.581 143.946C140.558 144.355 140.385 144.741 140.095 145.031C139.806 145.321 139.42 145.494 139.011 145.517Z" fill="#263238"/>
<path d="M139.355 144.031L109.674 145.257L110.544 126.37L140.225 125.144L139.355 144.031Z" fill="#37474F"/>
<path opacity="0.9" d="M139.355 144.031L109.674 145.257L110.544 126.37L140.225 125.144L139.355 144.031Z" fill="white"/>
<path opacity="0.1" d="M121.078 124.528L116.173 146.453L118.124 146.374L122.962 124.449L121.078 124.528Z" fill="white"/>
<path opacity="0.1" d="M124.086 124.401L119.181 146.326L123.053 146.169L127.891 124.244L124.086 124.401Z" fill="white"/>
<path d="M129.721 145.752L139.602 145.474C139.772 146.622 139.282 147.051 138.654 147.069L135.495 147.147L133.381 147.196L130.102 147.286L109.753 147.89L109.59 146.459L129.721 145.752Z" fill="#37474F"/>
<path d="M129.721 145.752L139.603 145.474C139.772 146.622 139.282 147.051 138.654 147.069L135.495 147.147L133.381 147.196L130.102 147.286L104.915 148.059C104.773 148.065 104.633 148.029 104.512 147.956C104.391 147.883 104.293 147.776 104.232 147.649C104.18 147.539 104.156 147.419 104.162 147.297C104.168 147.176 104.204 147.059 104.267 146.955C104.33 146.851 104.418 146.765 104.522 146.704C104.627 146.642 104.745 146.608 104.866 146.604L129.721 145.752Z" fill="#37474F"/>
<path opacity="0.2" d="M129.721 145.752L139.603 145.474C139.772 146.622 139.282 147.051 138.654 147.069L135.495 147.147L133.381 147.196L130.102 147.286L104.915 148.059C104.773 148.065 104.633 148.029 104.512 147.956C104.391 147.883 104.293 147.776 104.232 147.649C104.18 147.539 104.156 147.419 104.162 147.297C104.168 147.176 104.204 147.059 104.267 146.955C104.33 146.851 104.418 146.765 104.522 146.704C104.627 146.642 104.745 146.608 104.866 146.604L129.721 145.752Z" fill="black"/>
<path opacity="0.2" d="M139.602 145.474L139.663 145.873C139.686 146.02 139.678 146.171 139.638 146.314C139.598 146.458 139.528 146.592 139.433 146.706C139.337 146.82 139.218 146.913 139.084 146.978C138.95 147.042 138.803 147.078 138.654 147.081L135.495 147.16L129.624 147.371L129.721 145.764L139.602 145.474Z" fill="black"/>
<path opacity="0.2" d="M88.4194 133.485C88.4194 133.485 87.0242 136.33 91.0529 143.843L92.738 146.906C93.2937 147.914 96.966 145.855 98.0895 143.964C98.0895 143.964 91.0227 139.724 88.4194 133.485Z" fill="black"/>
<path d="M122.612 142.243L125.421 141.415L124.974 145.752C124.974 145.752 121.054 148.373 119.695 145.867L120.244 144.472C120.447 143.947 120.765 143.474 121.174 143.088C121.584 142.702 122.076 142.413 122.612 142.243Z" fill="#CB7A63"/>
<path d="M128.652 143.119L128.302 144.683C128.25 144.919 128.125 145.132 127.943 145.291C127.761 145.45 127.533 145.546 127.293 145.565L124.955 145.752L125.408 141.409L127.704 141.772C127.998 141.811 128.265 141.965 128.446 142.2C128.627 142.436 128.708 142.734 128.67 143.028L128.652 143.119Z" fill="#CB7A63"/>
<path d="M99.2008 149.6C101.164 152.257 103.918 154.48 107.156 155.114C110.973 155.857 118.317 150.457 121.76 146.966C121.591 145.492 121.688 144.695 120.22 144.49C120.22 144.49 116.427 147.268 109.282 148.935C106.968 149.473 105.428 147.123 103.417 143.674C102.414 141.965 99.1888 134.934 97.9385 133.37C95.9694 130.857 90.3764 132.657 92.5991 138.703C93.5293 141.228 97.6002 147.413 99.2008 149.6Z" fill="#CB7A63"/>
<path d="M97.111 129.239C101.079 132.863 103.012 139.338 103.012 139.338L93.7407 144.991C93.7407 144.991 86.9759 135.472 88.1839 132.156C89.1382 129.583 90.9079 127.892 93.2333 127.747C93.9467 127.723 94.6575 127.843 95.3236 128.099C95.9897 128.355 96.5976 128.743 97.111 129.239Z" fill="#37474F"/>
<path d="M75.8381 167.472H75.1374C74.9985 167.472 74.8838 167.406 74.8958 167.315L75.1556 164.295C75.1556 164.204 75.2824 164.132 75.4213 164.126H76.122C76.2609 164.126 76.3756 164.198 76.3636 164.283L76.1038 167.303C76.0895 167.36 76.054 167.409 76.0045 167.44C75.9551 167.472 75.8956 167.483 75.8381 167.472Z" fill="#37474F"/>
<path d="M145.099 177.523L154.135 173.005L153.362 169.791L143.057 174.491L145.099 177.523Z" fill="#37474F"/>
<path opacity="0.5" d="M145.099 177.523L154.135 173.005L153.362 169.791L143.057 174.491L145.099 177.523Z" fill="white"/>
<path d="M159.42 181.056L153.186 182.941C153.068 182.973 152.965 183.047 152.896 183.149C152.827 183.251 152.798 183.374 152.812 183.496L153.567 189.15C153.588 189.283 153.636 189.41 153.707 189.524C153.777 189.639 153.87 189.738 153.98 189.816C154.09 189.894 154.214 189.95 154.345 189.98C154.476 190.009 154.612 190.013 154.745 189.989H154.854C165.266 188.256 168.703 186.365 169.821 185.967C173.022 184.885 171.741 182.53 170.606 182.596C165.508 182.91 163.92 182.318 161.896 181.388C161.111 181.074 160.26 180.96 159.42 181.056Z" fill="#263238"/>
<path d="M75.6025 106.528C73.7301 106.824 71.8758 105.387 71.29 103.587C71.0483 102.67 71.0003 101.714 71.149 100.778C71.2977 99.8419 71.6399 98.9472 72.1537 98.1509C72.8604 96.9429 77.4931 94.0799 79.2084 97.3053C82.6271 103.696 75.6025 106.528 75.6025 106.528Z" fill="#263238"/>
<path d="M139.089 131.619L120.818 132.392L120.903 130.58L139.174 129.807L139.089 131.619Z" fill="#37474F"/>
<g opacity="0.7">
<path d="M139.089 131.619L120.818 132.392L120.903 130.58L139.174 129.807L139.089 131.619Z" fill="white"/>
</g>
<path d="M138.98 134.131L120.709 134.91L120.788 133.098L139.059 132.319L138.98 134.131Z" fill="#37474F"/>
<g opacity="0.7">
<path d="M138.98 134.131L120.709 134.91L120.788 133.098L139.059 132.319L138.98 134.131Z" fill="white"/>
</g>
<path d="M138.866 136.65L120.595 137.429L120.679 135.611L138.944 134.838L138.866 136.65Z" fill="#37474F"/>
<g opacity="0.7">
<path d="M138.866 136.65L120.595 137.429L120.679 135.611L138.944 134.838L138.866 136.65Z" fill="white"/>
</g>
<path d="M138.751 139.163L120.48 139.942L120.564 138.13L138.835 137.351L138.751 139.163Z" fill="#37474F"/>
<g opacity="0.7">
<path d="M138.751 139.163L120.48 139.942L120.564 138.13L138.835 137.351L138.751 139.163Z" fill="white"/>
</g>
<path d="M138.642 141.681L120.371 142.46L120.45 140.648L138.721 139.869L138.642 141.681Z" fill="#37474F"/>
<g opacity="0.7">
<path d="M138.642 141.681L120.371 142.46L120.45 140.648L138.721 139.869L138.642 141.681Z" fill="white"/>
</g>
<path d="M113.43 133.416L111.964 133.479L111.99 134.082L113.456 134.019L113.43 133.416Z" fill="#37474F"/>
<g opacity="0.5">
<path d="M113.43 133.416L111.964 133.479L111.99 134.082L113.456 134.019L113.43 133.416Z" fill="white"/>
</g>
<path d="M113.36 135.162L111.894 135.225L111.92 135.829L113.386 135.766L113.36 135.162Z" fill="#37474F"/>
<g opacity="0.5">
<path d="M113.36 135.162L111.894 135.225L111.92 135.829L113.386 135.766L113.36 135.162Z" fill="white"/>
</g>
<path d="M112.918 137.378L111.451 137.437L111.475 138.041L112.942 137.982L112.918 137.378Z" fill="#37474F"/>
<g opacity="0.5">
<path d="M112.918 137.378L111.451 137.437L111.475 138.041L112.942 137.982L112.918 137.378Z" fill="white"/>
</g>
<path d="M113.226 138.644L111.76 138.707L111.785 139.311L113.252 139.248L113.226 138.644Z" fill="#37474F"/>
<g opacity="0.5">
<path d="M113.226 138.644L111.76 138.707L111.785 139.311L113.252 139.248L113.226 138.644Z" fill="white"/>
</g>
<path d="M112.768 140.863L111.3 140.922L111.324 141.526L112.792 141.467L112.768 140.863Z" fill="#37474F"/>
<g opacity="0.5">
<path d="M111.722 141.047L111.776 140.443L113.238 140.377L113.183 140.987L111.722 141.047Z" fill="white"/>
</g>
<path d="M113.089 142.128L111.622 142.19L111.648 142.794L113.114 142.732L113.089 142.128Z" fill="#37474F"/>
<g opacity="0.5">
<path d="M113.089 142.128L111.622 142.19L111.648 142.794L113.114 142.732L113.089 142.128Z" fill="white"/>
</g>
<path d="M114.965 131.745L111.933 132.875L111.963 132.078L113.643 131.806L111.982 131.691L112.012 130.894L114.965 131.745Z" fill="#37474F"/>
<path d="M133.478 128.864L120.818 129.402L120.878 128.146L133.538 127.608L133.478 128.864Z" fill="#37474F"/>
<g opacity="0.7">
<path d="M133.478 128.864L120.818 129.402L120.878 128.146L133.538 127.608L133.478 128.864Z" fill="white"/>
</g>
<path d="M116.397 129.511L114.542 129.595L115.291 129.118L115.497 129.305L115.72 129.112L116.397 129.511Z" fill="#37474F"/>
<path d="M115.219 129.058L114.47 129.541L114.524 128.429L115.219 129.058Z" fill="#37474F"/>
<path d="M116.518 128.399L116.457 129.444L115.775 129.045L116.518 128.399Z" fill="#37474F"/>
<path d="M115.517 128.862L115.476 128.906L115.48 128.911L115.521 128.867L115.517 128.862Z" fill="white"/>
<path d="M115.487 128.869L115.482 128.874L115.524 128.918L115.528 128.913L115.487 128.869Z" fill="white"/>
<path d="M116.518 128.291L115.72 129.015L115.497 129.215L115.291 129.021L114.597 128.393L114.542 128.345L116.518 128.291Z" fill="#37474F"/>
<path d="M113.433 128.5L111.967 128.562L111.975 128.743L113.441 128.681L113.433 128.5Z" fill="#37474F"/>
<path d="M113.435 128.959L111.968 129.021L111.976 129.202L113.442 129.14L113.435 128.959Z" fill="#37474F"/>
<path d="M113.436 129.429L111.97 129.492L111.978 129.673L113.444 129.61L113.436 129.429Z" fill="#37474F"/>
<path d="M81.8479 143.378L87.3262 206.001H78.5199L72.6248 138.613H76.6716C77.9734 138.619 79.226 139.11 80.1837 139.992C81.1413 140.874 81.7349 142.082 81.8479 143.378Z" fill="#37474F"/>
<path opacity="0.2" d="M81.9023 143.946L87.3383 206.001H78.5199L72.6248 138.613H76.1039C77.5612 138.619 78.9636 139.17 80.0362 140.156C81.1088 141.143 81.7743 142.495 81.9023 143.946Z" fill="black"/>
<path d="M76.1039 142.696L81.6425 206.001H29.0945L23.6585 143.475C23.604 142.858 23.6786 142.235 23.8776 141.648C24.0765 141.061 24.3955 140.522 24.8141 140.064C25.2328 139.607 25.742 139.242 26.3094 138.992C26.8768 138.742 27.49 138.613 28.1099 138.613H71.7067C72.8156 138.627 73.8797 139.052 74.6923 139.807C75.5049 140.561 76.008 141.591 76.1039 142.696Z" fill="#37474F"/>
<path opacity="0.2" d="M76.1703 143.385L81.6486 206.001H29.1005L23.6826 144.297C23.619 143.575 23.7061 142.848 23.9385 142.162C24.1709 141.476 24.5434 140.845 25.0325 140.311C25.5215 139.776 26.1164 139.349 26.7793 139.057C27.4422 138.765 28.1586 138.613 28.8831 138.613H70.9699C72.2763 138.614 73.5349 139.105 74.4976 139.988C75.4602 140.871 76.057 142.083 76.1703 143.385Z" fill="white"/>
<path d="M168.631 206.001H29.3179L27.7838 188.636H161.51C163.03 188.664 164.488 189.247 165.608 190.277C166.727 191.306 167.431 192.71 167.586 194.223L168.631 206.001Z" fill="#37474F"/>
<path opacity="0.2" d="M168.631 206.001H29.3179L27.7838 188.636H161.51C163.03 188.664 164.488 189.247 165.608 190.277C166.727 191.306 167.431 192.71 167.586 194.223L168.631 206.001Z" fill="white"/>
<path d="M175.021 212.651H27.6811C26.7637 212.65 25.8843 212.285 25.2356 211.636C24.5869 210.987 24.2218 210.108 24.2202 209.19C24.2202 208.273 24.5848 207.392 25.2338 206.743C25.8829 206.094 26.7632 205.729 27.6811 205.729H175.021C175.939 205.729 176.819 206.094 177.468 206.743C178.117 207.392 178.482 208.273 178.482 209.19C178.48 210.108 178.115 210.987 177.467 211.636C176.818 212.285 175.938 212.65 175.021 212.651Z" fill="#37474F"/>
<path opacity="0.2" d="M175.021 212.651H89.4885C88.5706 212.651 87.6903 212.287 87.0413 211.638C86.3922 210.989 86.0276 210.108 86.0276 209.19C86.0268 208.736 86.1158 208.285 86.2894 207.865C86.4631 207.445 86.718 207.063 87.0395 206.741C87.361 206.42 87.7429 206.165 88.1631 205.991C88.5834 205.818 89.0338 205.729 89.4885 205.729H175.021C175.939 205.729 176.819 206.094 177.468 206.743C178.117 207.392 178.482 208.273 178.482 209.19C178.48 210.108 178.115 210.987 177.467 211.636C176.818 212.285 175.939 212.65 175.021 212.651Z" fill="black"/>
<path d="M29.6139 212.651L31.3595 218.589H34.8506L36.7713 212.651H29.6139Z" fill="#263238"/>
<path opacity="0.5" d="M29.6139 212.651L31.3595 218.589H34.8506L36.7713 212.651H29.6139Z" fill="white"/>
<path d="M79.6433 212.651L81.3889 218.589H84.88L86.8068 212.651H79.6433Z" fill="#263238"/>
<path opacity="0.5" d="M79.6433 212.651L81.3889 218.589H84.88L86.8068 212.651H79.6433Z" fill="white"/>
<path d="M117.937 212.651L119.683 218.589H123.174L125.094 212.651H117.937Z" fill="#263238"/>
<path opacity="0.5" d="M117.937 212.651L119.683 218.589H123.174L125.094 212.651H117.937Z" fill="white"/>
<path d="M167.966 212.651L169.712 218.589H173.203L175.124 212.651H167.966Z" fill="#263238"/>
<path opacity="0.5" d="M167.966 212.651L169.712 218.589H173.203L175.124 212.651H167.966Z" fill="white"/>
<path d="M63.9574 136.257H60.1341C60.054 136.257 59.9772 136.225 59.9205 136.169C59.8639 136.112 59.8321 136.035 59.8321 135.955C59.8321 135.875 59.8639 135.798 59.9205 135.742C59.9772 135.685 60.054 135.653 60.1341 135.653H63.9574C64.037 135.655 64.113 135.687 64.1693 135.743C64.2256 135.8 64.2579 135.876 64.2594 135.955C64.2594 136.035 64.2276 136.112 64.171 136.169C64.1143 136.225 64.0375 136.257 63.9574 136.257Z" fill="#37474F"/>
<path d="M57.5912 136.257H38.4263C38.3462 136.257 38.2694 136.225 38.2127 136.169C38.1561 136.112 38.1243 136.035 38.1243 135.955C38.1258 135.876 38.1581 135.8 38.2144 135.743C38.2707 135.687 38.3467 135.655 38.4263 135.653H57.5912C57.6708 135.655 57.7468 135.687 57.8031 135.743C57.8594 135.8 57.8917 135.876 57.8932 135.955C57.8932 136.035 57.8614 136.112 57.8048 136.169C57.7481 136.225 57.6713 136.257 57.5912 136.257Z" fill="#37474F"/>
<path d="M125.541 171.211C125.466 171.209 125.394 171.181 125.336 171.132C125.308 171.104 125.285 171.071 125.27 171.034C125.255 170.997 125.247 170.958 125.247 170.918C125.247 170.878 125.255 170.838 125.27 170.802C125.285 170.765 125.308 170.731 125.336 170.703L127.148 168.759C127.176 168.73 127.209 168.708 127.246 168.692C127.283 168.677 127.323 168.669 127.362 168.669C127.402 168.669 127.442 168.677 127.479 168.692C127.515 168.708 127.549 168.73 127.577 168.759C127.633 168.816 127.664 168.893 127.664 168.973C127.664 169.053 127.633 169.13 127.577 169.187L125.765 171.132C125.703 171.187 125.623 171.215 125.541 171.211Z" fill="#37474F"/>
<path d="M109.167 186.691C109.111 186.692 109.056 186.676 109.009 186.646C108.962 186.616 108.924 186.573 108.901 186.522C108.883 186.487 108.871 186.449 108.868 186.409C108.865 186.369 108.869 186.329 108.882 186.292C108.894 186.254 108.914 186.219 108.94 186.189C108.966 186.159 108.998 186.135 109.034 186.118C114.627 183.285 123.5 172.691 123.59 172.582C123.615 172.551 123.646 172.526 123.681 172.508C123.716 172.489 123.755 172.478 123.794 172.474C123.834 172.471 123.873 172.476 123.911 172.488C123.949 172.5 123.983 172.52 124.013 172.546C124.074 172.598 124.112 172.673 124.119 172.753C124.125 172.833 124.101 172.912 124.049 172.974C123.687 173.409 114.989 183.768 109.306 186.655C109.263 186.679 109.216 186.692 109.167 186.691Z" fill="#37474F"/>
</svg>
