<svg width="302" height="234" viewBox="0 0 302 234" fill="none" xmlns="http://www.w3.org/2000/svg">
<path d="M153.18 233.204C219.52 233.204 273.298 231.73 273.298 229.912C273.298 228.094 219.52 226.62 153.18 226.62C86.8413 226.62 33.0627 228.094 33.0627 229.912C33.0627 231.73 86.8413 233.204 153.18 233.204Z" fill="#F5F5F5"/>
<path d="M258.832 123.578H203.433V227.514H258.832V123.578Z" fill="#37474F"/>
<path d="M203.433 155.294H200.311V158.416H203.433V155.294Z" fill="#263238"/>
<path d="M203.433 129.134H200.311V132.257H203.433V129.134Z" fill="#263238"/>
<path opacity="0.2" d="M251.747 158.416H203.433V158.954H251.747V158.416Z" fill="black"/>
<path d="M251.747 123.578H251.21V227.514H251.747V123.578Z" fill="#263238"/>
<path d="M258.832 100.04V123.596H251.747V107.125C251.747 106.194 251.931 105.273 252.287 104.413C252.643 103.554 253.165 102.773 253.822 102.115C254.48 101.457 255.261 100.935 256.121 100.579C256.981 100.223 257.902 100.04 258.832 100.04Z" fill="#37474F"/>
<path opacity="0.5" d="M258.832 100.04V123.596H251.747V107.125C251.747 106.194 251.931 105.273 252.287 104.413C252.643 103.554 253.165 102.773 253.822 102.115C254.48 101.457 255.261 100.935 256.121 100.579C256.981 100.223 257.902 100.04 258.832 100.04Z" fill="white"/>
<path d="M225.051 121.778H209.371V123.578H225.051V121.778Z" fill="#263238"/>
<path d="M247.399 121.778H231.719V123.578H247.399V121.778Z" fill="#263238"/>
<path d="M217.241 227.514H210.579V229.912H217.241V227.514Z" fill="#263238"/>
<path d="M249.857 227.514H243.195V229.912H249.857V227.514Z" fill="#263238"/>
<path d="M69.1639 123.173H100.572C100.746 123.173 100.917 123.132 101.072 123.053C101.227 122.974 101.361 122.859 101.463 122.718C101.565 122.577 101.632 122.414 101.659 122.242C101.686 122.07 101.671 121.895 101.617 121.729L94.7736 100.976C94.7013 100.755 94.5615 100.563 94.3739 100.427C94.1864 100.29 93.9606 100.216 93.7286 100.215H62.3508C62.1768 100.215 62.0053 100.256 61.8503 100.335C61.6954 100.414 61.5614 100.529 61.4594 100.67C61.3573 100.81 61.2902 100.974 61.2636 101.145C61.2369 101.317 61.2514 101.493 61.3059 101.658L68.119 122.418C68.1931 122.637 68.3335 122.827 68.5208 122.962C68.7081 123.098 68.9329 123.171 69.1639 123.173Z" fill="#263238"/>
<path opacity="0.3" d="M82.1922 112.772C82.4097 114.203 81.5882 115.357 80.4165 115.357C79.2447 115.357 78.0669 114.203 77.8434 112.772C77.6199 111.34 78.4474 110.193 79.6192 110.193C80.791 110.193 81.9687 111.347 82.1922 112.772Z" fill="white"/>
<path d="M111.74 122.72L112.404 124.719C112.447 124.859 112.456 125.007 112.431 125.151C112.406 125.294 112.348 125.431 112.261 125.548C112.174 125.665 112.061 125.761 111.931 125.827C111.8 125.892 111.656 125.927 111.51 125.927H69.931C69.7343 125.928 69.5424 125.867 69.3829 125.752C69.2234 125.636 69.1044 125.474 69.0431 125.287L68.1794 122.72H111.74Z" fill="#263238"/>
<g opacity="0.3">
<path opacity="0.4" d="M111.74 122.72L112.404 124.719C112.447 124.859 112.456 125.007 112.431 125.151C112.406 125.294 112.348 125.431 112.261 125.548C112.174 125.665 112.061 125.761 111.931 125.827C111.8 125.892 111.656 125.927 111.51 125.927H69.931C69.7343 125.928 69.5424 125.867 69.3829 125.752C69.2234 125.636 69.1044 125.474 69.0431 125.287L68.1794 122.72H111.74Z" fill="white"/>
</g>
<path d="M127.106 125.939H50.3191V132.257H127.106V125.939Z" fill="#37474F"/>
<path d="M90.3039 132.257H87.1269V227.514H90.3039V132.257Z" fill="#263238"/>
<path d="M110.931 229.882H66.5124C67.2799 228.636 68.3532 227.608 69.6303 226.894C70.9074 226.181 72.3458 225.806 73.8087 225.805H103.622C105.088 225.805 106.528 226.181 107.808 226.896C109.087 227.61 110.162 228.64 110.931 229.888V229.882Z" fill="#37474F"/>
<path d="M95.9997 46.1688H40.3591V51.9612H95.9997V46.1688Z" fill="#37474F"/>
<path d="M44.7985 51.9612L47.3474 57.7052H51.1043V51.9612H44.7985Z" fill="#37474F"/>
<path d="M44.7985 51.9612L47.3474 57.7052H51.1043V51.9612H44.7985Z" fill="#37474F"/>
<path opacity="0.3" d="M44.7985 51.9612L47.3474 57.7052H51.1043V51.9612H44.7985Z" fill="black"/>
<path d="M91.5603 51.9612L89.0114 57.7052H85.2545V51.9612H91.5603Z" fill="#37474F"/>
<path opacity="0.3" d="M91.5603 51.9612L89.0114 57.7052H85.2545V51.9612H91.5603Z" fill="black"/>
<path d="M57.6094 31.7453V20.9397C57.6151 20.9019 57.6126 20.8633 57.6021 20.8265C57.5915 20.7897 57.5731 20.7556 57.5482 20.7266C57.5232 20.6975 57.4923 20.6742 57.4575 20.6583C57.4227 20.6423 57.3849 20.634 57.3466 20.634C57.3084 20.634 57.2705 20.6423 57.2357 20.6583C57.201 20.6742 57.17 20.6975 57.1451 20.7266C57.1201 20.7556 57.1017 20.7897 57.0912 20.8265C57.0806 20.8633 57.0781 20.9019 57.0839 20.9397V31.7453H57.6094Z" fill="#37474F"/>
<g opacity="0.3">
<path d="M57.6094 31.7453V20.9397C57.6151 20.9019 57.6126 20.8633 57.6021 20.8265C57.5915 20.7897 57.5731 20.7556 57.5482 20.7266C57.5232 20.6975 57.4923 20.6742 57.4575 20.6583C57.4227 20.6423 57.3849 20.634 57.3466 20.634C57.3084 20.634 57.2705 20.6423 57.2357 20.6583C57.201 20.6742 57.17 20.6975 57.1451 20.7266C57.1201 20.7556 57.1017 20.7897 57.0912 20.8265C57.0806 20.8633 57.0781 20.9019 57.0839 20.9397V31.7453H57.6094Z" fill="black"/>
</g>
<path d="M52.9707 44.1635L53.2364 45.142L53.2908 45.3473L53.5143 46.1627H61.179L61.4025 45.3473L61.4569 45.142L61.7227 44.1635L61.777 43.9521L64.4044 34.2216L64.4588 34.0163L64.7245 33.0378L64.7789 32.8264L65.0688 31.7452H49.6245L49.9144 32.8264L49.9688 33.0378L50.2345 34.0163L50.2889 34.2216L52.9163 43.9521L52.9707 44.1635Z" fill="#263238"/>
<path d="M56.4135 24.6604C56.5598 24.6972 56.7139 24.6887 56.8552 24.6358C56.9966 24.5829 57.1185 24.4882 57.2047 24.3644C57.2666 24.2828 57.308 24.1875 57.3255 24.0865C57.3351 24.0326 57.3351 23.9774 57.3255 23.9235C57.3257 23.7497 57.266 23.5812 57.1564 23.4463C56.1537 22.2383 51.1164 16.3976 48.7366 18.8378C45.9038 21.7913 53.6532 23.9899 56.4135 24.6604Z" fill="#37474F"/>
<g opacity="0.3">
<path d="M51.9439 21.2477L57.2047 24.3583C57.2666 24.2767 57.308 24.1814 57.3255 24.0805L52.1009 20.988C52.0664 20.9682 52.0255 20.9627 51.987 20.9729C51.9486 20.9831 51.9157 21.008 51.8955 21.0423C51.8846 21.0588 51.8772 21.0773 51.8738 21.0968C51.8703 21.1162 51.8709 21.1362 51.8754 21.1554C51.8799 21.1747 51.8883 21.1928 51.9001 21.2086C51.9119 21.2245 51.9268 21.2378 51.9439 21.2477Z" fill="black"/>
</g>
<path d="M57.3436 26.8166C57.3377 26.8708 57.3377 26.9255 57.3436 26.9797C57.367 27.0798 57.4101 27.1742 57.4705 27.2575C57.5589 27.3789 57.681 27.4716 57.8217 27.5242C57.9623 27.5768 58.1153 27.587 58.2617 27.5535C61.022 26.877 68.7774 24.6784 65.9144 21.7309C63.5528 19.3149 58.5033 25.1254 57.5007 26.3334C57.3966 26.4728 57.3414 26.6426 57.3436 26.8166Z" fill="#37474F"/>
<path opacity="0.3" d="M57.3799 26.9797C57.4033 27.0798 57.4464 27.1742 57.5067 27.2575L62.7676 24.1469C62.8001 24.1237 62.8231 24.0894 62.832 24.0504C62.8409 24.0114 62.8351 23.9705 62.8159 23.9355C62.806 23.9184 62.7927 23.9035 62.7768 23.8917C62.761 23.8799 62.7429 23.8715 62.7236 23.867C62.7044 23.8625 62.6845 23.8619 62.665 23.8654C62.6456 23.8689 62.627 23.8763 62.6105 23.8872L57.3799 26.9797Z" fill="black"/>
<path d="M56.7759 20.8914C56.7983 21.0659 56.8792 21.2277 57.0054 21.3504C57.0446 21.3882 57.0871 21.4226 57.1322 21.4531C57.222 21.5041 57.3202 21.5389 57.4221 21.5558C57.5717 21.5743 57.7234 21.5487 57.8586 21.4822C57.9938 21.4157 58.1066 21.3111 58.1832 21.1813C59.5965 18.723 63.3534 11.5898 59.2462 11.626C55.8397 11.6502 56.5826 19.3391 56.7759 20.8914Z" fill="#37474F"/>
<g opacity="0.3">
<path d="M57.1262 21.4531C57.216 21.5041 57.3142 21.5389 57.4161 21.5557L58.7933 15.6003C58.8007 15.5612 58.7929 15.5207 58.7716 15.4871C58.7503 15.4534 58.717 15.4291 58.6785 15.4191C58.6591 15.4146 58.6389 15.4141 58.6193 15.4175C58.5996 15.4208 58.5808 15.428 58.564 15.4387C58.5471 15.4494 58.5326 15.4633 58.5211 15.4796C58.5097 15.4959 58.5016 15.5144 58.4973 15.5339L57.1262 21.4531Z" fill="black"/>
</g>
<path d="M56.4135 30.8635C56.5598 30.9003 56.7139 30.8918 56.8552 30.8389C56.9966 30.786 57.1185 30.6914 57.2047 30.5675C57.2666 30.4859 57.308 30.3906 57.3255 30.2897C57.3351 30.2357 57.3351 30.1805 57.3255 30.1266C57.3257 29.9528 57.266 29.7843 57.1564 29.6494C56.1537 28.4414 51.1164 22.6007 48.7366 25.0409C45.9038 27.9945 53.6532 30.193 56.4135 30.8635Z" fill="#37474F"/>
<g opacity="0.3">
<path d="M51.9439 27.4569L57.2047 30.5675C57.2666 30.4859 57.308 30.3906 57.3255 30.2897L52.1009 27.1972C52.0664 27.1774 52.0255 27.172 51.987 27.1822C51.9486 27.1923 51.9157 27.2173 51.8955 27.2516C51.8846 27.268 51.8772 27.2866 51.8738 27.306C51.8703 27.3255 51.8709 27.3454 51.8754 27.3647C51.8799 27.3839 51.8883 27.402 51.9001 27.4179C51.9119 27.4337 51.9268 27.447 51.9439 27.4569Z" fill="black"/>
</g>
<path d="M68.119 41.9468H67.5634V41.1133H88.6128C89.2618 41.145 89.8738 41.4252 90.3219 41.8957C90.77 42.3663 91.02 42.9912 91.02 43.641C91.02 44.2908 90.77 44.9157 90.3219 45.3863C89.8738 45.8569 89.2618 46.137 88.6128 46.1688H67.5634V45.45H68.119V41.9468Z" fill="#37474F"/>
<path d="M67.9741 41.9469V45.4501H87.3021C87.5289 45.447 87.753 45.3991 87.9613 45.3094C88.1697 45.2197 88.3584 45.0898 88.5166 44.9271C88.6747 44.7645 88.7993 44.5722 88.8832 44.3614C88.967 44.1506 89.0086 43.9254 89.0054 43.6985C89.009 43.235 88.8312 42.7885 88.5101 42.4543C88.3524 42.2939 88.1644 42.1664 87.957 42.0793C87.7496 41.9922 87.527 41.9472 87.3021 41.9469H67.9741Z" fill="white"/>
<path d="M67.9741 42.8287V43.3663H86.7887C86.8592 43.3663 86.9268 43.3383 86.9766 43.2885C87.0265 43.2386 87.0545 43.171 87.0545 43.1005C87.0545 43.0295 87.0267 42.9612 86.977 42.9104C86.9273 42.8596 86.8597 42.8303 86.7887 42.8287H67.9741Z" fill="#E6E6E6"/>
<path d="M67.9741 44.1515V44.683H86.7887C86.8592 44.683 86.9268 44.655 86.9766 44.6052C87.0265 44.5553 87.0545 44.4877 87.0545 44.4173C87.0545 44.3468 87.0265 44.2792 86.9766 44.2293C86.9268 44.1795 86.8592 44.1515 86.7887 44.1515H67.9741Z" fill="#E6E6E6"/>
<path d="M68.119 36.8914H67.5634V36.0579H88.6128C89.2618 36.0896 89.8738 36.3698 90.3219 36.8403C90.77 37.3109 91.02 37.9358 91.02 38.5856C91.02 39.2354 90.77 39.8603 90.3219 40.3309C89.8738 40.8014 89.2618 41.0816 88.6128 41.1133H67.5634V40.3946H68.119V36.8914Z" fill="#37474F"/>
<g opacity="0.3">
<path d="M68.119 36.8914H67.5634V36.0579H88.6128C89.2618 36.0896 89.8738 36.3698 90.3219 36.8403C90.77 37.3109 91.02 37.9358 91.02 38.5856C91.02 39.2354 90.77 39.8603 90.3219 40.3309C89.8738 40.8014 89.2618 41.0816 88.6128 41.1133H67.5634V40.3946H68.119V36.8914Z" fill="black"/>
</g>
<path d="M67.9741 36.8914V40.3946H87.3021C87.5289 40.3914 87.753 40.3436 87.9613 40.2539C88.1697 40.1641 88.3584 40.0342 88.5166 39.8716C88.6747 39.7089 88.7993 39.5167 88.8832 39.3059C88.967 39.0951 89.0086 38.8698 89.0054 38.643C89.0087 38.1813 88.8309 37.7368 88.5101 37.4048C88.3535 37.2425 88.1659 37.1133 87.9583 37.0251C87.7508 36.9369 87.5276 36.8914 87.3021 36.8914H67.9741Z" fill="white"/>
<path d="M67.9741 37.7792V38.3107H86.7887C86.8592 38.3107 86.9268 38.2827 86.9766 38.2329C87.0265 38.183 87.0545 38.1154 87.0545 38.0449C87.0545 37.9745 87.0265 37.9069 86.9766 37.857C86.9268 37.8072 86.8592 37.7792 86.7887 37.7792H67.9741Z" fill="#E6E6E6"/>
<path d="M67.9741 39.0959V39.6335H86.7887C86.8597 39.6319 86.9273 39.6026 86.977 39.5518C87.0267 39.501 87.0545 39.4328 87.0545 39.3617C87.0545 39.2912 87.0265 39.2236 86.9766 39.1738C86.9268 39.1239 86.8592 39.0959 86.7887 39.0959H67.9741Z" fill="#E6E6E6"/>
<path d="M195.611 34.4754C195.616 36.144 195.188 37.7854 194.37 39.2396C193.551 40.6939 192.37 41.9115 190.942 42.7738C189.513 43.6362 187.886 44.114 186.218 44.1606C184.55 44.2073 182.898 43.8213 181.424 43.0401L177.8 45.4561L179.134 41.3429C178.006 40.2231 177.171 38.8422 176.704 37.3227C176.237 35.8031 176.152 34.1918 176.457 32.6315C176.761 31.0712 177.446 29.6101 178.45 28.3778C179.455 27.1455 180.747 26.18 182.214 25.5668C183.681 24.9537 185.276 24.7118 186.859 24.8627C188.441 25.0136 189.962 25.5526 191.287 26.4319C192.611 27.3111 193.698 28.5036 194.451 29.9035C195.205 31.3034 195.601 32.8675 195.605 34.4572L195.611 34.4754Z" fill="#37474F"/>
<g opacity="0.5">
<path d="M195.611 34.4754C195.616 36.144 195.188 37.7854 194.37 39.2396C193.551 40.6939 192.37 41.9115 190.942 42.7738C189.513 43.6362 187.886 44.114 186.218 44.1606C184.55 44.2073 182.898 43.8213 181.424 43.0401L177.8 45.4561L179.134 41.3429C178.006 40.2231 177.171 38.8422 176.704 37.3227C176.237 35.8031 176.152 34.1918 176.457 32.6315C176.761 31.0712 177.446 29.6101 178.45 28.3778C179.455 27.1455 180.747 26.18 182.214 25.5668C183.681 24.9537 185.276 24.7118 186.859 24.8627C188.441 25.0136 189.962 25.5526 191.287 26.4319C192.611 27.3111 193.698 28.5036 194.451 29.9035C195.205 31.3034 195.601 32.8675 195.605 34.4572L195.611 34.4754Z" fill="white"/>
</g>
<path d="M185.935 35.6833C186.603 35.6833 187.143 35.1425 187.143 34.4753C187.143 33.8082 186.603 33.2673 185.935 33.2673C185.268 33.2673 184.727 33.8082 184.727 34.4753C184.727 35.1425 185.268 35.6833 185.935 35.6833Z" fill="white"/>
<path d="M181.858 35.6833C182.526 35.6833 183.066 35.1425 183.066 34.4753C183.066 33.8082 182.526 33.2673 181.858 33.2673C181.191 33.2673 180.65 33.8082 180.65 34.4753C180.65 35.1425 181.191 35.6833 181.858 35.6833Z" fill="white"/>
<path d="M190.012 35.6833C190.68 35.6833 191.22 35.1425 191.22 34.4753C191.22 33.8082 190.68 33.2673 190.012 33.2673C189.345 33.2673 188.804 33.8082 188.804 34.4753C188.804 35.1425 189.345 35.6833 190.012 35.6833Z" fill="white"/>
<path d="M145.226 61.2326L145.135 61.4077L141.112 69.302C138.751 68.1725 136.456 66.9585 134.197 65.678C132.88 64.9291 131.575 64.1559 130.271 63.3526C128.495 62.2594 126.755 61.1178 124.968 59.8071L124.291 59.3118L123.59 58.7441L123.234 58.4481L122.805 58.0736C122.521 57.82 122.322 57.6086 122.08 57.367C121.229 56.473 120.546 55.6335 119.876 54.7879C117.242 51.4055 114.995 48.0049 112.767 44.5501C110.538 41.0952 108.466 37.5557 106.455 33.9921L110.157 31.4553L117.913 40.769C120.486 43.8434 123.083 46.954 125.71 49.7505C126.357 50.4391 127.027 51.1156 127.625 51.635C127.758 51.7377 127.921 51.8887 128.024 51.9551L128.181 52.0638L128.434 52.2209L128.966 52.547L129.57 52.8974C131.165 53.8215 132.922 54.7094 134.668 55.6516C137.374 57.071 140.14 58.4783 142.858 59.934C143.577 60.3205 144.296 60.7071 145.002 61.0997L145.226 61.2326Z" fill="#37474F"/>
<path opacity="0.2" d="M144.99 61.1117L145.135 61.4197L141.112 69.314C138.751 68.1846 136.456 66.9705 134.197 65.69C135.217 61.0513 140.237 60.1272 142.846 59.9641L144.99 61.1117Z" fill="black"/>
<path d="M107.107 35.1397C107.107 35.1397 103.296 33.2854 101.412 32.4881C99.6962 31.7633 97.5761 30.0721 97.8298 28.9668C98.8204 24.7388 104.081 28.1635 104.081 28.1635L110.121 31.3767C110.248 32.6512 108.768 34.3907 107.107 35.1397Z" fill="#FFB573"/>
<path d="M82.9532 25.4093L82.4096 25.2522L82.1741 26.0616L102.71 31.9989C103.364 32.1871 104.067 32.1077 104.663 31.7781C105.258 31.4485 105.699 30.8957 105.887 30.2413C106.075 29.5869 105.996 28.8845 105.666 28.2887C105.337 27.6929 104.784 27.2524 104.13 27.0642L83.5935 21.1329L83.3881 21.8336L83.9317 21.9906L82.9532 25.4093Z" fill="#37474F"/>
<path d="M82.8083 25.367L83.7988 21.9484L102.638 27.3844C102.858 27.4507 103.064 27.5599 103.242 27.7058C103.421 27.8517 103.568 28.0313 103.677 28.2344C103.786 28.4376 103.854 28.6602 103.876 28.8895C103.899 29.1188 103.876 29.3504 103.809 29.5709C103.68 30.0216 103.382 30.4048 102.976 30.6399C102.778 30.7546 102.558 30.8282 102.331 30.8562C102.104 30.8842 101.873 30.8661 101.653 30.803L82.8083 25.367Z" fill="white"/>
<path d="M83.062 24.5032L83.213 23.9838L101.569 29.2869C101.602 29.2966 101.634 29.3129 101.661 29.3349C101.689 29.3569 101.712 29.3842 101.729 29.4151C101.745 29.446 101.756 29.48 101.76 29.515C101.763 29.55 101.76 29.5854 101.75 29.6191C101.73 29.6877 101.684 29.7457 101.622 29.7807C101.56 29.8158 101.486 29.825 101.418 29.8063L83.062 24.5032Z" fill="#D6D6D6"/>
<path d="M83.4304 23.2167L83.5814 22.6973L101.937 28.0004C101.971 28.0094 102.004 28.0253 102.032 28.047C102.06 28.0688 102.083 28.0959 102.101 28.1269C102.118 28.1579 102.129 28.192 102.133 28.2274C102.137 28.2627 102.134 28.2985 102.124 28.3326C102.115 28.3672 102.098 28.3996 102.076 28.4277C102.053 28.4559 102.026 28.4794 101.994 28.4968C101.963 28.5143 101.928 28.5253 101.892 28.5292C101.857 28.5331 101.821 28.53 101.786 28.5198L83.4304 23.2167Z" fill="#D6D6D6"/>
<path d="M110.127 31.3768C110.127 31.3768 106.98 27.8917 106.086 27.6139C105.193 27.336 100.542 27.8494 100.995 28.4715C101.448 29.0937 105.035 30.0057 105.035 30.0057L106.751 31.3889L110.127 31.3768Z" fill="#FFB573"/>
<path d="M167.423 64.6814L166.777 64.4035C165.732 63.9747 164.687 63.5096 163.648 63.0566L162.742 62.658L161.504 62.1204L157.952 69.6825L157.91 69.7731C160.7 71.126 163.485 72.3522 166.366 73.4635L167.417 73.8622C167.737 73.989 168.063 74.1038 168.389 74.2246L169.096 74.4783C170.69 75.0823 172.315 75.5836 174 76.0668H174.037L174.176 76.103L167.423 64.6814ZM167.737 56.8716C167.803 56.9803 167.87 57.0891 167.942 57.1978C168.005 57.2031 168.067 57.2031 168.129 57.1978C169.023 57.7655 171.307 55.6757 171.439 54.2986C171.162 54.0026 170.884 53.6946 170.6 53.4167C170.503 53.3141 170.407 53.2053 170.304 53.1027L167.954 54.9147L167.006 55.6576C167.017 55.6818 167.031 55.7043 167.048 55.724L167.737 56.8716Z" fill="#37474F"/>
<path d="M185.935 73.3368C185.935 73.4757 185.935 73.6146 185.935 73.7596L185.905 73.983C185.887 74.097 185.863 74.2098 185.833 74.3213C185.803 74.43 185.766 74.5448 185.73 74.6474C185.694 74.7501 185.646 74.8709 185.567 75.0461C185.406 75.3641 185.203 75.6587 184.963 75.9219C184.689 76.227 184.369 76.4878 184.015 76.695C183.707 76.868 183.378 77 183.036 77.0876L182.722 77.1601L182.511 77.1963C181.712 77.3275 180.901 77.358 180.095 77.2869C179.43 77.2386 178.832 77.154 178.283 77.0574C177.135 76.8641 176.078 76.6165 175.051 76.3507C174.767 76.2722 174.49 76.1997 174.212 76.1152L167.477 64.6814C169.029 65.3519 170.576 66.0102 172.122 66.6444C172.968 66.9887 173.813 67.327 174.653 67.6471L173.348 65.6599C171.544 62.8654 169.75 60.0467 167.966 57.2039C168.029 57.2092 168.091 57.2092 168.154 57.2039C169.048 57.7717 171.331 55.6818 171.464 54.3047C173.815 56.7932 176.1 59.338 178.319 61.9393C179.618 63.4432 180.886 64.9593 182.142 66.5599C182.777 67.3511 183.393 68.1544 184.009 69.0182C184.323 69.453 184.613 69.894 184.963 70.4194C185.164 70.7384 185.346 71.0692 185.507 71.41C185.567 71.5308 185.621 71.6576 185.694 71.8449C185.804 72.1458 185.881 72.4576 185.923 72.775C185.942 72.9617 185.946 73.1495 185.935 73.3368Z" fill="#37474F"/>
<path opacity="0.2" d="M174.465 76.6406L174.405 76.5681L173.982 76.0668L166.45 67.0793L164.451 64.6934L162.742 62.658L163.648 63.0566C164.687 63.5096 165.732 63.9747 166.777 64.4035L167.423 64.6814L174.157 76.1151L174.465 76.6406Z" fill="black"/>
<path d="M171.439 54.3289C171.307 55.706 169.023 57.7958 168.129 57.2281C168.067 57.2334 168.005 57.2334 167.942 57.2281C167.807 57.208 167.676 57.1715 167.55 57.1193C167.274 57.0179 167.011 56.8862 166.764 56.7267C166.003 56.2822 165.377 55.6392 164.952 54.8664C164.917 54.7957 164.89 54.7206 164.874 54.6429C164.693 53.7611 164.602 52.7705 164.421 51.9974C164.398 51.9299 164.397 51.8571 164.418 51.7889C164.438 51.7208 164.48 51.6607 164.536 51.6169C164.637 51.5635 164.75 51.5355 164.865 51.5355C164.98 51.5355 165.093 51.5635 165.194 51.6169C165.319 51.6639 165.435 51.7312 165.538 51.8162C165.556 51.8227 165.571 51.8356 165.581 51.8525C165.62 51.8781 165.655 51.9109 165.683 51.9491C165.883 52.1428 166.027 52.387 166.1 52.6558C166.366 53.9906 168.468 53.7128 168.468 53.7128L169.325 51.2545L169.621 50.3968L170.171 48.8143C170.187 48.8268 170.201 48.841 170.213 48.8566C170.213 48.8989 170.256 48.9412 170.274 48.9774C170.612 49.7687 171.186 53.1148 171.403 53.9121C171.446 54.0466 171.459 54.189 171.439 54.3289Z" fill="#FFB573"/>
<path d="M170.509 53.5919L167.489 57.1857C167.458 57.2348 167.412 57.2733 167.359 57.2966C167.305 57.3198 167.246 57.3267 167.188 57.3164C167.131 57.3061 167.078 57.279 167.036 57.2385C166.993 57.1981 166.964 57.1461 166.952 57.0891L163.467 49.0317C163.411 48.8888 163.392 48.7341 163.412 48.5821C163.433 48.4301 163.491 48.2856 163.581 48.1619L166.601 44.5379C166.783 44.3265 167.024 44.3749 167.139 44.6406L170.612 52.6799C170.677 52.8274 170.702 52.9895 170.684 53.1498C170.666 53.31 170.605 53.4625 170.509 53.5919Z" fill="#263238"/>
<g opacity="0.3">
<path d="M169.754 52.8369L167.308 55.7603C167.211 55.869 167.091 55.8449 167.03 55.706L163.98 48.6391C163.952 48.5655 163.943 48.486 163.953 48.408C163.964 48.3299 163.994 48.2557 164.04 48.1922L166.517 45.2688C166.607 45.1601 166.734 45.1843 166.795 45.3232L169.815 52.3839C169.844 52.4583 169.855 52.539 169.844 52.6184C169.833 52.6977 169.802 52.773 169.754 52.8369Z" fill="white"/>
</g>
<path d="M170.231 48.8807C170.116 48.5584 169.913 48.2746 169.645 48.0612C169.377 47.8478 169.055 47.7133 168.715 47.6727C168.208 47.6727 168.009 49.9257 168.154 50.4572C168.45 51.5565 169.241 49.5089 169.241 49.5089L169.682 50.5176C170.141 50.0042 170.582 49.5391 170.231 48.8807Z" fill="#FFB573"/>
<path d="M169.41 46.8634C169.081 46.4176 168.595 46.1132 168.051 46.0117C167.544 46.0117 167.302 48.1318 167.447 48.6572C167.743 49.7565 168.582 47.8479 168.582 47.8479L169.645 49.0015C170.104 48.4821 169.899 47.7573 169.41 46.8634Z" fill="#FFB573"/>
<path d="M168.583 45.7943C168.516 45.6131 168.105 44.7252 167.598 44.7373C167.091 44.7494 166.674 46.4104 166.819 46.9419C167.115 48.0412 167.954 46.1325 167.954 46.1325L169.017 47.2862C169.199 46.9963 169.072 46.6882 168.583 45.7943Z" fill="#FFB573"/>
<path d="M203.427 92.5742L202.135 96.627C197.935 95.5801 193.747 94.5029 189.571 93.3956C187.482 92.8339 185.392 92.2661 183.29 91.6682C181.188 91.0702 179.11 90.4602 176.912 89.7052C176.622 89.5964 176.356 89.5058 176.054 89.385L175.601 89.2038L175.088 88.9683C174.588 88.7314 174.116 88.4397 173.68 88.0985L173.197 87.7059C173.07 87.5912 172.937 87.4825 172.81 87.3616C171.868 86.4677 171.149 85.6463 170.394 84.8128L169.543 83.8584L168.878 83.0914C168.069 82.1612 167.278 81.231 166.462 80.3009L166.1 79.8358C163.304 76.5077 160.579 73.1918 157.874 69.7671L165.061 64.2526C167.604 67.6591 170.183 71.0959 172.774 74.4602C174.073 76.1393 175.377 77.8124 176.694 79.4069C177.34 80.1982 178.029 80.9955 178.597 81.6357C178.663 81.7022 178.718 81.7807 178.784 81.8592L179.038 82.1431L179.316 82.3001C179.497 82.4088 179.726 82.5236 179.92 82.6323C181.689 83.5262 183.658 84.396 185.597 85.2416C187.536 86.0872 189.517 86.9207 191.498 87.7482C195.448 89.3851 199.441 90.9977 203.427 92.5742Z" fill="#37474F"/>
<path opacity="0.2" d="M169.537 83.8585L168.872 83.0914C168.063 82.1613 167.272 81.2311 166.456 80.3009L166.215 67.9854C166.348 68.3478 167.229 72.2798 168.631 74.7441C170.564 78.1205 170.878 82.0042 169.537 83.8585Z" fill="black"/>
<path d="M202.135 96.627C204.501 96.9886 206.883 97.2305 209.274 97.3518C211.285 97.3518 215.477 95.1653 214.982 94.4103C214.486 93.6553 209.25 92.7976 209.25 92.7976L202.539 92.1936C201.736 93.1962 201.162 95.117 202.135 96.627Z" fill="#FFB573"/>
<path d="M218.936 94.1029L205.314 93.7771L205.282 95.1297L218.904 95.4555L218.936 94.1029Z" fill="#263238"/>
<path d="M218.093 93.2567L237.723 93.6493L237.709 94.356C237.687 95.4773 237.22 96.5438 236.411 97.3209C235.602 98.0979 234.518 98.5219 233.397 98.4995L222.223 98.276C221.101 98.2535 220.035 97.7866 219.258 96.9778C218.481 96.1691 218.057 95.0847 218.079 93.9634L218.093 93.2567Z" fill="#263238"/>
<path d="M226.337 93.003C226.337 93.003 222.006 89.53 225.431 86.359C228.856 83.1879 228.952 80.7236 226.337 78.3076C226.337 78.3076 230.263 80.1196 231.67 83.8342C233.078 87.5488 226.234 90.4601 226.337 93.003Z" fill="#37474F"/>
<path opacity="0.8" d="M226.337 93.003C226.337 93.003 222.006 89.53 225.431 86.359C228.856 83.1879 228.952 80.7236 226.337 78.3076C226.337 78.3076 230.263 80.1196 231.67 83.8342C233.078 87.5488 226.234 90.4601 226.337 93.003Z" fill="white"/>
<path d="M202.539 92.2118C202.539 92.2118 207.003 91.0038 207.897 91.2756C208.791 91.5474 212.342 94.4466 211.636 94.7184C210.929 94.9902 207.48 93.8124 207.48 93.8124L205.318 94.0358L202.539 92.2118Z" fill="#FFB573"/>
<path d="M162.633 218.037L164.089 224.989H167.749L168.148 218.037H162.633Z" fill="#FFB573"/>
<path d="M178.21 229.912C178.089 227.641 177.117 226.964 175.891 226.892C174.665 226.819 170.105 225.279 170.105 225.279C170.105 225.279 169.205 223.842 168.371 223.552C167.538 223.262 166.704 224.114 166.704 224.114L164.415 223.836C164.415 223.836 163.763 222.797 163.255 223.703C162.476 225.11 162.434 229 162.47 229.912H178.21Z" fill="#37474F"/>
<path d="M177.932 229.32H175.082L162.597 229.26C162.44 229.26 162.476 229.012 162.633 229.018H163.479V228.982C163.662 228.722 163.789 228.427 163.852 228.115C163.914 227.803 163.91 227.481 163.84 227.171C163.77 226.86 163.635 226.568 163.445 226.313C163.255 226.058 163.013 225.846 162.736 225.69C162.609 225.618 162.772 225.406 162.893 225.485C163.189 225.653 163.447 225.881 163.65 226.154C163.854 226.428 163.999 226.74 164.076 227.072C164.153 227.404 164.161 227.748 164.099 228.083C164.036 228.418 163.905 228.736 163.714 229.018H165.496L177.975 229.084C178.132 229.078 178.089 229.32 177.932 229.32Z" fill="black"/>
<path d="M169.386 226.264C170.062 225.497 171.017 225.279 171.687 225.859C171.796 225.95 171.953 225.738 171.844 225.648C171.071 224.989 169.96 225.273 169.199 226.137C169.084 226.264 169.271 226.385 169.386 226.264Z" fill="white"/>
<path d="M170.66 226.668C171.337 225.901 172.291 225.69 172.961 226.264C173.07 226.354 173.227 226.149 173.125 226.052C172.351 225.394 171.24 225.684 170.473 226.548C170.364 226.674 170.552 226.795 170.66 226.668Z" fill="white"/>
<path d="M171.983 227.073C172.659 226.312 173.614 226.095 174.284 226.668C174.393 226.759 174.55 226.554 174.441 226.463C173.674 225.799 172.557 226.089 171.796 226.952C171.681 227.079 171.868 227.2 171.983 227.073Z" fill="white"/>
<path d="M124.309 211.725L122.117 218.732L125.674 220.508L129.123 214.413L124.309 211.725Z" fill="#FFB573"/>
<path d="M132.421 229.912C133.417 227.87 132.898 226.807 131.865 226.143C130.832 225.479 127.601 221.915 127.601 221.915C127.601 221.915 127.51 220.224 126.93 219.559C126.351 218.895 125.191 219.239 125.191 219.239L122.853 217.741C122.853 217.741 122.853 216.231 122.117 217.065C121.066 218.273 119.465 221.577 119.054 222.392L132.421 229.912Z" fill="#37474F"/>
<path d="M132.614 229.078L130.156 227.732L119.423 221.861C119.284 221.788 119.423 221.583 119.568 221.655L120.293 222.054H120.323C120.604 221.892 120.851 221.676 121.049 221.418C121.246 221.16 121.39 220.865 121.473 220.551C121.555 220.237 121.575 219.91 121.53 219.588C121.485 219.266 121.376 218.957 121.211 218.678C121.132 218.551 121.368 218.43 121.44 218.557C121.791 219.162 121.89 219.881 121.716 220.559C121.542 221.237 121.109 221.819 120.51 222.181L122.008 222.984L132.741 228.855C132.88 228.946 132.747 229.151 132.614 229.078Z" fill="black"/>
<path d="M126.49 222.422C127.45 222.084 128.392 222.362 128.7 223.189C128.749 223.322 128.984 223.22 128.936 223.087C128.586 222.132 127.474 221.843 126.387 222.223C126.224 222.277 126.333 222.477 126.49 222.422Z" fill="white"/>
<path d="M127.408 223.401C128.368 223.063 129.31 223.34 129.612 224.168C129.667 224.301 129.902 224.198 129.854 224.065C129.504 223.111 128.392 222.821 127.305 223.201C127.142 223.256 127.251 223.455 127.408 223.401Z" fill="white"/>
<path d="M128.362 224.397C129.322 224.059 130.265 224.337 130.573 225.165C130.621 225.297 130.857 225.195 130.808 225.062C130.458 224.108 129.347 223.818 128.259 224.198C128.096 224.252 128.205 224.452 128.362 224.397Z" fill="white"/>
<path d="M150.565 126.948C151.328 136.262 152.639 145.523 154.491 154.684C155.143 158.07 155.896 161.694 156.75 165.556C153.301 187.813 162.79 219.97 162.79 219.97L168.444 219.843C168.444 219.843 170.364 183.905 170.334 165.091C170.286 134.286 167.519 104.902 167.519 104.902L152.142 104.841C152.142 104.841 149.303 109.432 150.565 126.948Z" fill="#263238"/>
<path opacity="0.2" d="M150.565 126.948C151.328 136.262 152.639 145.524 154.491 154.684C158.115 142.356 153.174 116.028 153.174 116.028L150.565 126.948Z" fill="black"/>
<path d="M169.017 221.148L169.277 218.732H161.745L162.089 221.148H169.017Z" fill="#263238"/>
<path d="M135.858 104.237L135.532 165.948C131.461 170.357 122.926 212.867 122.926 212.867L129.498 216.455C129.498 216.455 147.455 175.425 149.925 169.089C152.395 162.753 155.832 116.076 155.832 116.076L151.658 105.953L135.858 104.237Z" fill="#263238"/>
<path d="M129.939 217.916L131.11 215.79L122.407 211.339L121.501 213.598L129.939 217.916Z" fill="#263238"/>
<path d="M168.063 107.016C168.063 109.824 147.448 111.153 135.181 107.106C135.387 106.345 135.682 105.017 135.858 104.25C135.948 103.893 136.027 103.525 136.105 103.144C136.359 101.936 136.572 100.597 136.746 99.1276C136.746 99.0672 136.746 98.9947 136.746 98.9283C137.059 96.1041 137.227 93.2655 137.247 90.424C137.247 89.6206 137.247 88.7931 137.247 87.9475C137.247 86.9026 137.199 85.8335 137.144 84.7282C136.897 79.3719 136.302 74.0374 135.362 68.7584C135.201 67.8477 135.233 66.9131 135.456 66.0155C135.68 65.118 136.09 64.2775 136.659 63.5488C137.229 62.8201 137.946 62.2195 138.763 61.7861C139.58 61.3527 140.48 61.0962 141.402 61.0333C142.453 60.9547 143.559 60.9064 144.688 60.8883C145.818 60.8702 146.905 60.8521 147.956 60.8521C150.818 60.7993 153.682 60.9345 156.527 61.2567L157.179 61.3413C158.248 61.4802 159.329 61.6554 160.38 61.8305C164.916 62.6157 166.873 65.7565 167.024 71.1926C167.199 77.2326 171.784 80.9955 165.985 85.0846C165.26 90.1944 168.063 99.0914 168.063 107.016Z" fill="#37474F"/>
<path opacity="0.2" d="M137.277 90.4119C137.277 89.6086 137.277 88.7811 137.277 87.9355C137.277 86.8906 137.229 85.8215 137.174 84.7162L141.94 75.1005L137.277 90.4119Z" fill="black"/>
<path opacity="0.2" d="M142.955 70.4919L136.836 79.709C136.739 78.6037 136.631 77.4742 136.492 76.3326L142.955 70.4919Z" fill="black"/>
<path d="M147.98 60.84C150.885 65.9438 157.716 69 157.716 69C158.641 66.7169 158.32 63.0506 157.203 61.3292L156.551 61.2447C153.706 60.9224 150.843 60.7872 147.98 60.84Z" fill="#FFB573"/>
<path d="M165.599 51.8162C165.599 51.8162 169.035 47.099 166.046 42.6414C163.056 38.1839 158.194 40.0382 158.194 40.0382L165.599 51.8162Z" fill="#263238"/>
<path d="M157.269 62.8453C157.293 62.9291 157.33 63.0086 157.378 63.0808C158.363 64.6392 157.294 66.0646 155.566 65.9378C155.402 65.9275 155.238 65.9053 155.077 65.8713C154.464 65.7495 153.906 65.4365 153.482 64.9774C152.174 63.5773 150.76 62.279 149.254 61.0937C151.809 59.7226 152.739 54.8604 152.975 51.8223L156.943 56.8717L157.686 57.971C157.326 58.5859 157.038 59.2406 156.829 59.9219C156.656 60.4079 156.606 60.9289 156.683 61.4388C156.76 61.9488 156.961 62.4319 157.269 62.8453Z" fill="#FFB573"/>
<g opacity="0.2">
<path d="M156.847 59.9038C157.056 59.2224 157.344 58.5677 157.704 57.9529L156.961 56.8838L154.467 56.9381C154.91 58.1629 155.747 59.2059 156.847 59.9038Z" fill="black"/>
</g>
<path d="M152.268 46.3982C151.87 51.3933 151.598 53.4953 153.694 56.3824C156.847 60.7251 162.947 60.097 164.801 55.3193C166.468 51.0128 166.837 43.5715 162.385 40.9381C157.934 38.3046 152.691 41.4092 152.293 46.3741L152.268 46.3982Z" fill="#FFB573"/>
<path d="M153.368 49.6659C150.861 49.0015 151.846 46.4164 151.846 46.4164L155.536 47.0204C155.536 47.0204 155.868 50.3303 153.368 49.6659Z" fill="#263238"/>
<path d="M163.473 41.3972C163.473 41.3972 163.406 44.1635 160.024 44.3085C156.641 44.4535 156.889 49.6358 153.138 48.6694C148.505 47.4614 150.263 43.5233 151.38 41.8079C152.087 40.7147 159.667 34.1734 163.473 41.3972Z" fill="#263238"/>
<path d="M158.363 39.3677C158.363 39.3677 158.435 33.1767 153.017 32.3854C148.034 31.6546 146.12 36.2873 146.295 41.989C146.512 48.8747 141.463 47.0808 141.463 47.0808C141.94 48.143 142.699 49.0542 143.657 49.7154C144.615 50.3767 145.736 50.7627 146.899 50.8316C156.116 51.6953 158.363 39.3677 158.363 39.3677Z" fill="#263238"/>
<path d="M151.948 41.1314C151.921 41.1402 151.891 41.1402 151.864 41.1314C151.847 41.121 151.833 41.1074 151.822 41.0913C151.81 41.0752 151.803 41.057 151.799 41.0378C151.795 41.0186 151.795 40.9988 151.799 40.9796C151.802 40.9604 151.81 40.9422 151.821 40.9261C152.553 39.9265 153.52 39.1234 154.637 38.588C155.754 38.0527 156.986 37.8018 158.224 37.8578C158.244 37.8585 158.263 37.8632 158.281 37.8715C158.299 37.8799 158.315 37.8916 158.329 37.9062C158.342 37.9208 158.353 37.9379 158.36 37.9565C158.366 37.9752 158.37 37.995 158.369 38.0148C158.37 38.0352 158.366 38.0555 158.359 38.0744C158.351 38.0933 158.339 38.1103 158.324 38.1241C158.309 38.138 158.291 38.1483 158.272 38.1545C158.253 38.1606 158.232 38.1624 158.212 38.1598C157.027 38.1047 155.846 38.3433 154.776 38.8543C153.705 39.3654 152.777 40.1331 152.075 41.0892C152.058 41.1051 152.038 41.1172 152.016 41.1245C151.994 41.1318 151.971 41.1342 151.948 41.1314Z" fill="#37474F"/>
<path d="M162.718 54.0933C162.718 54.0933 160.302 52.994 159.752 51.937C159.752 51.937 159.396 53.8336 160.67 54.5282C161.003 54.7284 161.399 54.7949 161.779 54.7142C162.159 54.6335 162.495 54.4116 162.718 54.0933Z" fill="white"/>
<path d="M160.483 48.6271C160.428 49.0318 160.598 49.3882 160.857 49.4244C161.117 49.4606 161.383 49.1647 161.461 48.76C161.54 48.3553 161.353 47.999 161.087 47.9627C160.821 47.9265 160.567 48.2224 160.483 48.6271Z" fill="#263238"/>
<path d="M164.578 49.2915C164.524 49.6962 164.693 50.0525 164.952 50.0888C165.212 50.125 165.478 49.8291 165.556 49.4304C165.635 49.0318 165.448 48.6694 165.182 48.6331C164.916 48.5969 164.662 48.8928 164.578 49.2915Z" fill="#263238"/>
<path d="M165.043 48.6391L166.046 48.4941C166.046 48.4941 165.442 49.1827 165.043 48.6391Z" fill="#263238"/>
<path d="M163.08 49.2129C163.08 49.2129 163.63 50.3786 164.252 51.4115C164.301 51.4895 164.332 51.5778 164.343 51.6698C164.353 51.7617 164.342 51.8547 164.31 51.9417C164.279 52.0287 164.228 52.1072 164.161 52.1713C164.094 52.2354 164.014 52.2833 163.926 52.3114C163.499 52.4411 163.059 52.5241 162.615 52.5591L163.08 49.2129Z" fill="#ED893E"/>
<path d="M150.028 49.5814C150.152 50.0198 150.369 50.4269 150.662 50.7757C150.956 51.1245 151.32 51.407 151.731 51.6048C152.788 52.0638 153.507 50.9343 153.368 49.6659C153.247 48.5244 152.546 46.9117 151.411 46.9962C150.275 47.0808 149.671 48.4277 150.028 49.5814Z" fill="#FFB573"/>
<path d="M152.667 50.8861C152.667 51.0199 152.627 51.1507 152.553 51.2619C152.479 51.3732 152.373 51.4599 152.249 51.5111C152.126 51.5623 151.99 51.5757 151.859 51.5496C151.727 51.5235 151.607 51.459 151.512 51.3644C151.418 51.2698 151.353 51.1493 151.327 51.0181C151.301 50.8868 151.314 50.7508 151.366 50.6272C151.417 50.5036 151.503 50.3979 151.615 50.3236C151.726 50.2493 151.857 50.2096 151.991 50.2096C152.17 50.2096 152.342 50.2809 152.469 50.4077C152.596 50.5346 152.667 50.7067 152.667 50.8861Z" fill="white"/>
<path d="M159.384 47.0144C159.415 47.0147 159.447 47.0084 159.476 46.9959C159.505 46.9834 159.531 46.965 159.553 46.942C159.754 46.7204 160.005 46.55 160.286 46.445C160.566 46.3399 160.868 46.3032 161.165 46.338C161.227 46.347 161.291 46.3321 161.342 46.2962C161.394 46.2603 161.43 46.2061 161.443 46.1447C161.454 46.0823 161.439 46.0182 161.403 45.9663C161.367 45.9143 161.312 45.8786 161.25 45.8668C160.873 45.8207 160.49 45.8663 160.135 45.9999C159.78 46.1335 159.462 46.351 159.208 46.6339C159.164 46.6791 159.139 46.7398 159.139 46.803C159.139 46.8663 159.164 46.927 159.208 46.9722C159.255 47.0139 159.315 47.0375 159.377 47.0386L159.384 47.0144Z" fill="#263238"/>
<path d="M166.462 47.7392C166.508 47.7415 166.554 47.7307 166.594 47.7081C166.634 47.6854 166.667 47.6518 166.688 47.6112C166.71 47.5707 166.719 47.5248 166.716 47.479C166.712 47.4332 166.695 47.3893 166.668 47.3526C166.438 47.0501 166.138 46.8076 165.794 46.6456C165.45 46.4837 165.072 46.4071 164.693 46.4225C164.63 46.4286 164.572 46.4593 164.531 46.5078C164.49 46.5564 164.47 46.619 164.475 46.6822C164.483 46.7457 164.515 46.8039 164.564 46.8444C164.614 46.885 164.677 46.9048 164.741 46.8996C165.041 46.892 165.338 46.956 165.608 47.0862C165.878 47.2165 166.113 47.4093 166.293 47.6486C166.314 47.6747 166.339 47.6963 166.368 47.7119C166.397 47.7275 166.429 47.7368 166.462 47.7392Z" fill="#263238"/>
<path d="M160.948 47.9688L161.951 47.8298C161.951 47.8298 161.347 48.5124 160.948 47.9688Z" fill="#263238"/>
<path d="M144.96 68.0941C143.233 72.3704 141.336 76.5018 139.3 80.6271C138.286 82.6928 137.223 84.7343 136.099 86.7758C134.976 88.8173 133.798 90.8287 132.397 92.9185L131.841 93.7098C131.654 93.9695 131.448 94.2473 131.237 94.5252C131.026 94.803 130.766 95.1292 130.506 95.3889C130.398 95.5278 130.192 95.7211 130.035 95.8842L129.781 96.1318L129.618 96.2768C128.803 96.9714 127.963 97.7143 127.13 98.4632L122.062 102.945C118.668 105.965 115.231 108.906 111.686 111.763L108.726 108.912C111.462 105.252 114.319 101.725 117.248 98.2398C118.716 96.5002 120.196 94.7728 121.718 93.0574C122.485 92.1997 123.246 91.3481 124.062 90.4783C124.11 90.424 124.176 90.3575 124.2 90.3213L124.237 90.2669C124.271 90.2224 124.304 90.176 124.333 90.128C124.436 89.9831 124.527 89.8562 124.653 89.6569C124.78 89.4576 124.889 89.3005 125.01 89.0891C125.131 88.8777 125.257 88.6784 125.384 88.4851C126.393 86.7396 127.341 84.7403 128.302 82.7773C129.262 80.8143 130.174 78.7728 131.104 76.7373C132.916 72.6845 134.777 68.5652 136.643 64.5365L144.96 68.0941Z" fill="#37474F"/>
<path d="M109.324 108.085C109.324 108.085 112.948 109.824 111.649 111.775C110.351 113.726 107.512 114.614 106.491 116.221C105.47 117.827 103.429 122.037 102.976 122.007C102.523 121.977 103.906 115.738 104.377 114.65C104.848 113.563 107.023 111.026 107.023 111.026L109.324 108.085Z" fill="#FFB573"/>
<path d="M104.069 115.508C104.069 115.508 102.68 117.538 102.601 118.437C102.498 119.643 102.271 120.835 101.925 121.995C101.659 122.527 102.891 122.158 103.32 120.425C103.657 118.8 103.907 117.159 104.069 115.508Z" fill="#FFB573"/>
<path d="M111.402 110.918C111.292 111.781 110.986 112.607 110.508 113.334C109.752 114.441 109.123 115.63 108.635 116.879C108.249 117.93 107.216 118.311 106.932 117.846C106.648 117.381 107.627 115.484 107.989 113.926C108.351 112.367 111.402 110.918 111.402 110.918Z" fill="#FFB573"/>
</svg>
