<svg width="302" height="226" viewBox="0 0 302 226" fill="none" xmlns="http://www.w3.org/2000/svg">
<path d="M151 225.513C215.678 225.513 268.11 222.452 268.11 218.676C268.11 214.9 215.678 211.839 151 211.839C86.3222 211.839 33.8904 214.9 33.8904 218.676C33.8904 222.452 86.3222 225.513 151 225.513Z" fill="#F5F5F5"/>
<path d="M191.341 44.6271H190.713V48.6014H191.341V44.6271Z" fill="#37474F"/>
<path d="M191.341 41.3957H190.737C190.734 39.0808 189.813 36.8618 188.175 35.2256C186.538 33.5893 184.318 32.6694 182.004 32.6678V32.0638C184.477 32.0718 186.846 33.0573 188.595 34.8055C190.345 36.5537 191.332 38.9226 191.341 41.3957Z" fill="#37474F"/>
<path d="M181.979 34.2383H98.6151C94.6588 34.2383 91.4517 37.4455 91.4517 41.4017V211.428C91.4517 215.384 94.6588 218.591 98.6151 218.591H181.979C185.936 218.591 189.143 215.384 189.143 211.428V41.4017C189.143 37.4455 185.936 34.2383 181.979 34.2383Z" fill="#37474F"/>
<path opacity="0.95" d="M185.894 211.428V41.3956C185.894 38.9638 183.922 36.9924 181.49 36.9924L98.1262 36.9924C95.6944 36.9924 93.7231 38.9638 93.7231 41.3956L93.7231 211.428C93.7231 213.86 95.6944 215.831 98.1262 215.831H181.49C183.922 215.831 185.894 213.86 185.894 211.428Z" fill="white"/>
<path d="M139.814 209.006C142.566 209.006 144.797 206.775 144.797 204.023C144.797 201.271 142.566 199.04 139.814 199.04C137.061 199.04 134.831 201.271 134.831 204.023C134.831 206.775 137.061 209.006 139.814 209.006Z" fill="#37474F"/>
<path d="M136.002 36.4912C136.002 37.5821 136.435 38.6283 137.207 39.3997C137.978 40.1711 139.024 40.6045 140.115 40.6045C141.206 40.6045 142.252 40.1711 143.024 39.3997C143.795 38.6283 144.229 37.5821 144.229 36.4912H136.002Z" fill="#37474F"/>
<path opacity="0.7" d="M167.012 54.3394H113.256C111.063 54.3457 108.962 55.2196 107.412 56.77C105.861 58.3205 104.987 60.4215 104.981 62.6142V68.1347C104.987 70.3274 105.861 72.4284 107.412 73.9789C108.962 75.5293 111.063 76.4032 113.256 76.4095H167.012L175.287 81.314V62.59C175.272 60.402 174.395 58.3081 172.846 56.7632C171.296 55.2183 169.2 54.3473 167.012 54.3394Z" fill="#37474F"/>
<path d="M165.514 62.2457H114.723V63.6228H165.514V62.2457Z" fill="white"/>
<path d="M165.514 67.1261H124.496V68.5032H165.514V67.1261Z" fill="white"/>
<path opacity="0.15" d="M113.226 91.0868H166.982C169.175 91.0932 171.276 91.967 172.826 93.5175C174.377 95.0679 175.25 97.1689 175.257 99.3616V104.876C175.25 107.069 174.377 109.17 172.826 110.72C171.276 112.271 169.175 113.145 166.982 113.151H113.226L104.951 118.055V99.3314C104.964 97.1435 105.841 95.0493 107.391 93.505C108.941 91.9607 111.038 91.0915 113.226 91.0868Z" fill="#37474F"/>
<path opacity="0.5" d="M165.514 98.9872H114.723V100.364H165.514V98.9872Z" fill="#37474F"/>
<path opacity="0.5" d="M138.279 103.874H114.723V105.251H138.279V103.874Z" fill="#37474F"/>
<path opacity="0.5" d="M151.537 103.874H141.957V105.251H151.537V103.874Z" fill="#37474F"/>
<path opacity="0.7" d="M167.012 127.828H113.256C111.063 127.834 108.962 128.708 107.412 130.259C105.861 131.809 104.987 133.91 104.981 136.103V141.617C104.986 143.811 105.859 145.913 107.41 147.463C108.961 149.014 111.063 149.887 113.256 149.892H167.012L175.287 154.797V136.073C175.271 133.886 174.393 131.793 172.844 130.25C171.294 128.706 169.199 127.836 167.012 127.828Z" fill="#37474F"/>
<path d="M165.514 135.729H114.723V137.106H165.514V135.729Z" fill="white"/>
<path d="M165.514 140.615H124.496V141.992H165.514V140.615Z" fill="white"/>
<path opacity="0.15" d="M113.226 164.57H134.142C136.335 164.578 138.435 165.452 139.985 167.002C141.535 168.552 142.409 170.652 142.417 172.844V178.365C142.409 180.557 141.535 182.657 139.985 184.207C138.435 185.757 136.335 186.632 134.142 186.64H113.226L104.951 191.538V172.844C104.957 170.652 105.831 168.551 107.382 167C108.932 165.45 111.033 164.576 113.226 164.57Z" fill="#37474F"/>
<path opacity="0.5" d="M117.418 175.605C117.418 176.083 117.276 176.55 117.01 176.947C116.745 177.344 116.368 177.654 115.926 177.837C115.485 178.02 114.999 178.068 114.53 177.974C114.062 177.881 113.631 177.651 113.293 177.313C112.955 176.975 112.725 176.545 112.632 176.076C112.539 175.607 112.587 175.122 112.77 174.68C112.952 174.239 113.262 173.861 113.659 173.596C114.057 173.33 114.524 173.189 115.002 173.189C115.64 173.197 116.25 173.454 116.701 173.905C117.153 174.356 117.41 174.966 117.418 175.605Z" fill="#37474F"/>
<path opacity="0.5" d="M122.304 176.094C123.655 176.094 124.75 174.999 124.75 173.648C124.75 172.297 123.655 171.202 122.304 171.202C120.953 171.202 119.857 172.297 119.857 173.648C119.857 174.999 120.953 176.094 122.304 176.094Z" fill="#37474F"/>
<path opacity="0.5" d="M132.077 178.534C132.077 179.012 131.935 179.479 131.67 179.876C131.404 180.274 131.027 180.583 130.585 180.766C130.144 180.949 129.658 180.997 129.19 180.904C128.721 180.81 128.29 180.58 127.953 180.242C127.615 179.905 127.385 179.474 127.291 179.005C127.198 178.537 127.246 178.051 127.429 177.609C127.612 177.168 127.921 176.791 128.319 176.525C128.716 176.26 129.183 176.118 129.661 176.118C130.302 176.118 130.916 176.373 131.369 176.826C131.822 177.279 132.077 177.893 132.077 178.534Z" fill="#37474F"/>
<path d="M207.975 169.728C208.64 171.051 209.232 172.379 209.854 173.708C210.476 175.037 211.062 176.39 211.618 177.743C212.173 179.096 212.753 180.455 213.285 181.838C213.816 183.221 214.354 184.604 214.843 186.066L212.681 184.031C213.941 184.461 215.262 184.689 216.595 184.707C218.14 184.749 219.686 184.678 221.221 184.496C222.816 184.326 224.422 184.061 226.053 183.759C227.684 183.457 229.315 183.082 230.885 182.714L232.317 186.193C230.745 187.057 229.119 187.817 227.448 188.47C225.775 189.141 224.063 189.71 222.32 190.173C220.509 190.661 218.657 190.985 216.788 191.14C214.702 191.342 212.598 191.17 210.573 190.632L209.153 190.24L208.38 188.579C207.22 186.036 205.964 183.427 204.756 180.823C204.152 179.519 203.518 178.208 202.914 176.897C202.31 175.587 201.706 174.27 201.102 172.953L207.975 169.728Z" fill="#FFC3BD"/>
<path d="M228.916 183.777L231.29 181.457L235.059 185.534C235.059 185.534 233.694 187.92 230.299 186.531L228.916 183.777Z" fill="#FFC3BD"/>
<path d="M234.871 179.923L236.949 183.312L235.064 185.534L231.295 181.457L234.871 179.923Z" fill="#FFC3BD"/>
<path d="M197.309 164.298C202.141 162.431 205.885 165.216 211.992 172.923L204.841 180.274C204.841 180.274 187.886 167.91 197.309 164.298Z" fill="#263238"/>
<path opacity="0.2" d="M206.381 172.271C204.098 170.791 202.111 171.208 200.432 172.585C201.066 174.934 202.691 177.628 204.255 179.833C204.623 180.123 204.859 180.28 204.859 180.28L208.845 176.178C208.741 175.388 208.467 174.629 208.042 173.954C207.616 173.28 207.05 172.705 206.381 172.271Z" fill="black"/>
<path d="M234.11 215.535L239.896 214.865L239.413 203.002L233.633 203.666L234.11 215.535Z" fill="#FFC3BD"/>
<path d="M239.945 212.37L233.428 212.461C233.322 212.466 233.222 212.509 233.145 212.582C233.069 212.656 233.021 212.754 233.011 212.859L232.274 217.987C232.252 218.108 232.257 218.233 232.287 218.352C232.318 218.471 232.374 218.582 232.451 218.678C232.529 218.774 232.626 218.852 232.736 218.907C232.846 218.961 232.966 218.992 233.089 218.996C235.113 218.93 236.043 218.779 238.598 218.736C240.174 218.736 244.922 218.827 247.096 218.797C249.271 218.767 249.416 216.381 248.516 216.169C244.475 215.263 242.149 213.965 240.803 212.708C240.573 212.487 240.264 212.365 239.945 212.37Z" fill="#263238"/>
<path d="M241.328 210.86C241.42 210.826 241.518 210.814 241.614 210.825C241.711 210.837 241.804 210.872 241.884 210.927C241.948 210.958 242.003 211.005 242.044 211.063C242.085 211.121 242.111 211.188 242.12 211.259C242.192 211.863 240.912 212.95 240.737 213.071C240.719 213.084 240.698 213.091 240.676 213.091C240.654 213.091 240.633 213.084 240.616 213.071C240.595 213.06 240.579 213.043 240.568 213.023C240.557 213.002 240.553 212.979 240.555 212.956C240.598 212.304 240.749 211.144 241.262 210.884L241.328 210.86ZM240.803 212.708C241.31 212.268 241.938 211.603 241.896 211.271C241.896 211.235 241.896 211.18 241.794 211.132C241.734 211.089 241.664 211.062 241.59 211.056C241.517 211.049 241.443 211.063 241.377 211.096C241.099 211.247 240.888 211.845 240.803 212.708Z" fill="#37474F"/>
<path d="M241.268 212.491C241.482 212.378 241.716 212.31 241.956 212.289C242.197 212.268 242.439 212.296 242.669 212.37C242.748 212.42 242.809 212.494 242.843 212.581C242.876 212.668 242.881 212.763 242.856 212.853C242.844 212.938 242.812 213.019 242.762 213.089C242.713 213.16 242.648 213.217 242.572 213.258C241.968 213.59 240.688 213.095 240.634 213.077C240.615 213.068 240.598 213.056 240.585 213.04C240.571 213.024 240.561 213.006 240.555 212.986C240.551 212.967 240.552 212.946 240.559 212.927C240.565 212.908 240.576 212.891 240.591 212.878C240.793 212.711 241.022 212.58 241.268 212.491ZM242.391 213.095L242.458 213.065C242.505 213.037 242.546 213 242.577 212.955C242.608 212.91 242.629 212.859 242.639 212.805C242.639 212.66 242.609 212.606 242.56 212.582C242.27 212.394 241.383 212.636 240.905 212.944C241.377 213.131 241.892 213.184 242.391 213.095Z" fill="#37474F"/>
<path opacity="0.2" d="M233.633 203.673L239.413 203.002L239.661 209.121L233.85 209.145L233.633 203.673Z" fill="black"/>
<path d="M205.263 196.787C205.263 196.787 220.279 182.822 230.027 182.611C237.143 182.46 242.228 205.992 242.228 205.992L233.772 206.155C233.772 206.155 232.286 197.832 226.76 195.537C218.775 207.52 186.225 231.203 189.312 205.527C194.144 203.709 205.263 196.787 205.263 196.787Z" fill="#37474F"/>
<path opacity="0.2" d="M205.263 196.787C205.263 196.787 220.279 182.822 230.027 182.611C237.143 182.46 242.228 205.992 242.228 205.992L233.772 206.155C233.772 206.155 232.286 197.832 226.76 195.537C218.775 207.52 186.225 231.203 189.312 205.527C194.144 203.709 205.263 196.787 205.263 196.787Z" fill="black"/>
<path d="M242.198 207.158L232.256 208.112L232.286 204.488L242.802 203.238L242.198 207.158Z" fill="#263238"/>
<path d="M185.549 206.415C185.549 206.415 179.092 193.803 178.301 173.491C178.12 168.707 182.426 164.195 187.361 163.941C191.504 163.724 195.889 163.67 199.441 163.682C202.992 163.694 205.71 166.049 206.115 169.468C207.009 177.006 207.166 188.452 211.787 202.084L185.549 206.415Z" fill="#263238"/>
<path opacity="0.2" d="M181.327 173.593C184.884 169.577 186.11 170.857 186.642 171.34C191.57 175.804 184.334 189.702 182.885 191.75C181.866 186.559 181.26 181.296 181.073 176.009C181.036 175.196 181.121 174.381 181.327 173.593Z" fill="black"/>
<path d="M192.169 151.867C191.77 155.57 190.792 161.254 188.273 163.893C190.254 165.759 193.479 167.596 198.064 168.363C200.431 167.384 200.745 165.204 199.598 163.688C195.551 162.981 195.599 161.833 197.127 159.254L192.169 151.867Z" fill="#FFC3BD"/>
<path opacity="0.2" d="M194.193 154.881L197.128 159.248C196.739 159.849 196.436 160.502 196.228 161.187C194.791 160.583 193.208 158.385 193.522 156.766C193.632 156.103 193.859 155.465 194.193 154.881Z" fill="black"/>
<path d="M202.775 145.042C205.148 147.561 210.137 147.573 207.993 144.589C205.849 141.605 200.926 143.079 202.775 145.042Z" fill="#263238"/>
<path d="M193.153 144.77C191.83 149.602 190.816 152.308 192.32 155.642C192.776 156.73 193.524 157.67 194.479 158.361C195.435 159.052 196.563 159.467 197.738 159.56C198.914 159.653 200.093 159.421 201.145 158.888C202.197 158.356 203.083 157.544 203.705 156.542C206.121 152.725 207.897 145.507 204.025 141.841C203.223 141.022 202.217 140.431 201.111 140.129C200.005 139.827 198.839 139.826 197.732 140.124C196.625 140.422 195.617 141.01 194.813 141.826C194.008 142.643 193.435 143.659 193.153 144.77Z" fill="#FFC3BD"/>
<path d="M192.072 149.252C192.676 149.143 195.66 148.237 197.116 146.836C198.753 145.26 198.765 143.732 198.324 143.037C197.883 142.342 194.428 141.008 192.815 141.316C190.266 141.805 190.895 146.317 190.931 147.537C190.95 147.899 191.066 148.249 191.267 148.551C191.468 148.852 191.746 149.095 192.072 149.252Z" fill="#FFC3BD"/>
<path opacity="0.7" d="M192.072 149.252C192.676 149.143 195.66 148.237 197.116 146.836C198.753 145.26 198.765 143.732 198.324 143.037C197.883 142.342 194.428 141.008 192.815 141.316C190.266 141.805 190.895 146.317 190.931 147.537C190.95 147.899 191.066 148.249 191.267 148.551C191.468 148.852 191.746 149.095 192.072 149.252Z" fill="#263238"/>
<path d="M189.542 149.584C190.012 150.622 190.855 151.446 191.903 151.892C193.293 152.453 194.084 151.288 193.782 149.868C193.51 148.618 192.459 146.812 191.028 146.848C189.596 146.884 188.974 148.304 189.542 149.584Z" fill="#FFC3BD"/>
<path d="M194.083 142.759C200.244 144.076 204.623 147.543 207.534 145.459C209.594 143.985 208.241 141.297 205.879 139.353C203.862 137.691 201.047 137.178 200.202 135.819C200.103 136.271 200.141 136.742 200.311 137.172C200.481 137.603 200.775 137.972 201.156 138.235C201.156 138.235 195.593 137.377 194.053 135.928C193.684 136.792 195.11 138.459 195.11 138.459C195.11 138.459 193.539 139.95 189.07 138.265C189.336 139.709 190.58 142.01 194.083 142.759Z" fill="#263238"/>
<path d="M206.32 145.948H206.079V145.634C206.611 145.7 207.15 145.59 207.614 145.321C208.077 145.051 208.44 144.637 208.646 144.142C208.877 143.48 208.894 142.763 208.695 142.09C208.495 141.418 208.089 140.826 207.535 140.397C207.001 139.982 206.419 139.633 205.801 139.359C204.37 138.64 202.745 137.824 201.96 135.451L202.256 135.354C202.998 137.601 204.496 138.374 205.946 139.075C206.592 139.363 207.2 139.728 207.758 140.162C208.368 140.629 208.814 141.278 209.031 142.015C209.248 142.753 209.225 143.54 208.966 144.263C208.754 144.783 208.385 145.225 207.912 145.527C207.438 145.829 206.882 145.976 206.32 145.948Z" fill="#263238"/>
<path d="M200.135 149.463C200.002 149.844 200.099 150.237 200.34 150.333C200.582 150.43 200.89 150.2 201.023 149.82C201.156 149.439 201.059 149.047 200.818 148.95C200.576 148.853 200.262 149.071 200.135 149.463Z" fill="#263238"/>
<path d="M204.69 150.841C204.563 151.221 204.654 151.608 204.901 151.704C205.149 151.801 205.451 151.578 205.578 151.191C205.705 150.804 205.62 150.424 205.372 150.321C205.125 150.219 204.823 150.454 204.69 150.841Z" fill="#263238"/>
<path d="M203.016 150.375C203.063 151.728 203.291 153.069 203.692 154.362C202.811 154.724 201.778 153.987 201.778 153.987L203.016 150.375Z" fill="#ED847E"/>
<path d="M199.32 154.905C198.502 154.455 197.895 153.699 197.629 152.804C197.625 152.789 197.623 152.773 197.625 152.758C197.627 152.743 197.632 152.728 197.64 152.715C197.648 152.702 197.659 152.691 197.672 152.682C197.684 152.673 197.699 152.667 197.714 152.665C197.729 152.661 197.744 152.661 197.76 152.663C197.775 152.666 197.79 152.672 197.803 152.68C197.816 152.689 197.827 152.7 197.835 152.713C197.844 152.726 197.85 152.74 197.853 152.755C198.007 153.242 198.27 153.688 198.62 154.061C198.97 154.433 199.399 154.721 199.876 154.905C199.906 154.918 199.929 154.941 199.942 154.97C199.954 155 199.954 155.033 199.943 155.063C199.939 155.077 199.932 155.091 199.922 155.103C199.912 155.115 199.9 155.124 199.886 155.13C199.872 155.137 199.857 155.14 199.842 155.14C199.826 155.139 199.811 155.136 199.798 155.129C199.634 155.065 199.474 154.991 199.32 154.905Z" fill="#263238"/>
<path d="M198.897 146.963C198.86 146.943 198.829 146.914 198.807 146.878C198.772 146.826 198.76 146.763 198.773 146.702C198.785 146.64 198.821 146.587 198.873 146.552C199.18 146.345 199.533 146.217 199.901 146.18C200.269 146.143 200.64 146.198 200.981 146.341C201.01 146.354 201.036 146.373 201.058 146.396C201.08 146.419 201.097 146.446 201.108 146.476C201.119 146.506 201.125 146.537 201.124 146.569C201.123 146.601 201.115 146.632 201.102 146.661C201.09 146.689 201.073 146.714 201.051 146.735C201.03 146.756 201.004 146.772 200.976 146.783C200.947 146.794 200.917 146.799 200.887 146.797C200.857 146.796 200.827 146.789 200.8 146.776C200.528 146.67 200.234 146.632 199.944 146.665C199.653 146.697 199.375 146.8 199.133 146.963C199.097 146.984 199.057 146.995 199.015 146.995C198.974 146.995 198.933 146.984 198.897 146.963Z" fill="#263238"/>
<path d="M206.242 149.711C206.204 149.698 206.171 149.677 206.143 149.649C206.116 149.62 206.096 149.586 206.085 149.548C206.007 149.254 205.863 148.981 205.664 148.751C205.466 148.521 205.217 148.339 204.937 148.219C204.877 148.199 204.827 148.156 204.798 148.099C204.769 148.043 204.762 147.978 204.78 147.917C204.787 147.888 204.801 147.86 204.82 147.837C204.838 147.813 204.862 147.793 204.888 147.779C204.915 147.765 204.945 147.756 204.975 147.754C205.005 147.752 205.035 147.756 205.064 147.766C205.419 147.909 205.737 148.134 205.99 148.421C206.244 148.708 206.427 149.051 206.525 149.421C206.536 149.45 206.54 149.482 206.538 149.513C206.536 149.544 206.527 149.574 206.513 149.602C206.499 149.629 206.48 149.654 206.456 149.674C206.432 149.693 206.404 149.708 206.374 149.717C206.33 149.727 206.284 149.725 206.242 149.711Z" fill="#263238"/>
<path d="M254.181 218.356L257.624 213.349L248.352 205.273L244.91 210.28L254.181 218.356Z" fill="#FFC3BD"/>
<path d="M255.244 210.981L251.203 216.012C251.133 216.097 251.094 216.204 251.094 216.314C251.094 216.425 251.133 216.532 251.203 216.616L254.35 220.53C254.425 220.623 254.52 220.699 254.627 220.75C254.735 220.802 254.853 220.829 254.972 220.829C255.092 220.829 255.21 220.802 255.317 220.75C255.425 220.699 255.52 220.623 255.595 220.53C256.869 218.887 257.721 217.625 259.357 215.583C260.366 214.327 263.537 210.655 264.932 208.939C266.328 207.224 264.733 205.533 264.002 206.113C260.723 208.704 257.805 210.292 256.042 210.534C255.729 210.579 255.445 210.738 255.244 210.981Z" fill="#263238"/>
<path d="M254.979 208.915C255.008 208.822 255.058 208.737 255.125 208.666C255.192 208.594 255.274 208.539 255.366 208.505C255.429 208.472 255.499 208.455 255.571 208.455C255.642 208.455 255.713 208.472 255.776 208.505C256.326 208.825 256.38 210.504 256.38 210.697C256.38 210.719 256.372 210.741 256.359 210.759C256.346 210.777 256.329 210.792 256.308 210.8C256.289 210.812 256.267 210.818 256.244 210.818C256.222 210.818 256.2 210.812 256.181 210.8C255.686 210.377 254.864 209.592 254.973 208.988C254.972 208.963 254.974 208.939 254.979 208.915ZM256.145 210.443C256.096 209.767 255.945 208.873 255.655 208.704C255.627 208.69 255.596 208.683 255.565 208.683C255.533 208.683 255.502 208.69 255.474 208.704C255.405 208.728 255.343 208.77 255.294 208.825C255.246 208.88 255.212 208.946 255.196 209.018C255.154 209.332 255.492 209.858 256.145 210.443Z" fill="#37474F"/>
<path d="M256.259 209.942C256.398 209.429 256.664 208.873 256.996 208.734C257.084 208.7 257.18 208.695 257.27 208.72C257.36 208.745 257.44 208.799 257.498 208.873C257.558 208.935 257.603 209.009 257.63 209.091C257.658 209.172 257.666 209.259 257.655 209.344C257.57 210.009 256.398 210.758 256.344 210.788C256.327 210.798 256.307 210.804 256.287 210.804C256.266 210.804 256.246 210.798 256.229 210.788C256.21 210.781 256.193 210.769 256.181 210.753C256.17 210.737 256.163 210.717 256.163 210.697C256.153 210.442 256.185 210.187 256.259 209.942ZM257.407 209.393C257.407 209.393 257.407 209.35 257.407 209.326C257.415 209.272 257.409 209.217 257.391 209.166C257.373 209.114 257.344 209.068 257.304 209.03C257.208 208.921 257.135 208.927 257.081 208.952C256.761 209.072 256.422 209.93 256.38 210.492C256.817 210.226 257.172 209.846 257.407 209.393Z" fill="#37474F"/>
<path opacity="0.2" d="M244.91 210.28L248.352 205.273L253.136 209.435L249.186 214.007L244.91 210.28Z" fill="black"/>
<path d="M194.977 204.573C194.977 204.573 221.372 177.755 233.252 189.231C240.651 196.382 251.524 206.234 251.524 206.234L245.224 212.364C245.224 212.364 229.266 203.878 225.111 199.191C203.306 223.568 183.821 225.235 185.573 206.439C188.664 205.613 191.805 204.99 194.977 204.573Z" fill="#37474F"/>
<path d="M253.402 206.288L246.48 214.986L243.544 213.017L250.617 203.781L253.402 206.288Z" fill="#263238"/>
<path d="M185.639 171.787L186.159 182.78C186.255 184.592 186.37 186.404 186.509 188.216C186.581 189.104 186.678 189.98 186.775 190.819C186.829 191.242 186.883 191.653 186.95 192.027C187.016 192.402 187.089 192.752 187.137 192.964C187.14 192.996 187.14 193.028 187.137 193.06C187.037 192.881 186.897 192.728 186.726 192.613C186.628 192.542 186.517 192.489 186.4 192.456C186.334 192.456 186.297 192.456 186.328 192.456C186.822 192.533 187.327 192.5 187.807 192.36C189.405 191.961 190.961 191.409 192.452 190.711C194.065 190.004 195.672 189.189 197.284 188.343C198.897 187.497 200.51 186.597 202.074 185.722L204.333 188.742C201.501 191.377 198.425 193.737 195.146 195.79C194.306 196.304 193.437 196.799 192.519 197.264C191.56 197.759 190.564 198.179 189.541 198.52C188.959 198.713 188.363 198.862 187.759 198.967C187.017 199.106 186.259 199.142 185.506 199.076C185.02 199.031 184.541 198.925 184.081 198.762C183.526 198.567 183.005 198.288 182.534 197.935C182.045 197.555 181.622 197.095 181.284 196.576C181.13 196.338 180.993 196.09 180.873 195.833L180.644 195.277C180.432 194.702 180.252 194.115 180.106 193.519C179.974 192.982 179.865 192.48 179.768 191.979C179.569 190.983 179.418 190.01 179.285 189.05C179.007 187.129 178.808 185.232 178.639 183.342C178.3 179.561 178.101 175.822 178.035 172.023L185.639 171.787Z" fill="#FFC3BD"/>
<path d="M183.785 164.702C180.941 165.023 176.682 167.722 176.537 180.274L188.738 179.313C188.738 179.313 194.488 163.476 183.785 164.702Z" fill="#263238"/>
<path d="M212.336 179.361L207.806 179.657C207.539 179.695 207.289 179.811 207.088 179.992C206.888 180.173 206.747 180.41 206.683 180.672L204.563 190.626C204.527 190.734 204.519 190.85 204.539 190.962C204.559 191.075 204.607 191.18 204.679 191.269C204.75 191.358 204.843 191.427 204.948 191.471C205.053 191.515 205.168 191.532 205.281 191.52L209.811 191.224C210.079 191.189 210.33 191.073 210.531 190.891C210.732 190.71 210.872 190.472 210.935 190.209L213.055 180.255C213.091 180.147 213.099 180.032 213.079 179.919C213.059 179.807 213.011 179.702 212.939 179.613C212.868 179.524 212.775 179.454 212.67 179.41C212.564 179.366 212.45 179.35 212.336 179.361Z" fill="#37474F"/>
<path d="M202.443 185.486L206.194 184.181L205.269 190.058C205.269 190.058 201.09 190.976 200.745 188.73L201.349 186.73C201.426 186.454 201.564 186.198 201.753 185.983C201.942 185.767 202.178 185.597 202.443 185.486Z" fill="#FFC3BD"/>
<path d="M210.481 184.677L208.857 189.907L205.269 190.058L206.193 184.181L210.481 184.677Z" fill="#FFC3BD"/>
<path d="M80.5611 61.4908C77.6136 54.6474 93.6861 47.484 98.2282 58.1386C105.941 61.4908 96.084 75.7452 98.3127 78.1612C100.541 80.5772 102.221 77.6478 102.221 77.6478C102.221 77.6478 104.474 83.6516 98.7295 88.4594C93.5834 92.778 78.1029 93.9498 78.0666 85.4394C78.0183 74.3741 84.4268 70.4602 80.5611 61.4908Z" fill="#263238"/>
<path d="M95.3412 205.158L91.0166 207.677L80.6338 195.809L86.0215 190.946L95.3412 205.158Z" fill="#FF8B7B"/>
<path d="M90.5215 206.59L94.9851 203.165C95.0548 203.103 95.1452 203.068 95.2388 203.068C95.3324 203.068 95.4227 203.103 95.4924 203.165L98.4521 206.089C98.5244 206.17 98.5786 206.267 98.611 206.371C98.6435 206.475 98.6535 206.585 98.6404 206.694C98.6272 206.802 98.5913 206.906 98.5349 207C98.4785 207.093 98.4029 207.174 98.3131 207.236C96.7427 208.402 95.9273 208.891 93.9643 210.401C92.7563 211.325 90.3403 213.355 88.6854 214.629C87.0304 215.904 85.7741 214.436 86.3599 213.765C89.0055 210.745 89.5793 208.933 89.984 207.321C90.0754 207.023 90.2649 206.766 90.5215 206.59Z" fill="#263238"/>
<path d="M89.5184 208.378C89.2078 208.667 88.8112 208.847 88.3889 208.891C88.2882 208.887 88.1901 208.858 88.1036 208.806C88.0171 208.754 87.9449 208.682 87.8936 208.595C87.864 208.54 87.8485 208.479 87.8485 208.417C87.8485 208.355 87.864 208.294 87.8936 208.239C88.1956 207.635 90.3459 207.158 90.5875 207.103C90.6107 207.1 90.6345 207.103 90.656 207.112C90.6774 207.122 90.6956 207.138 90.7083 207.158C90.7199 207.178 90.7261 207.201 90.7261 207.224C90.7261 207.247 90.7199 207.27 90.7083 207.291C90.3456 207.688 89.9473 208.052 89.5184 208.378ZM88.2379 208.154C88.1747 208.198 88.1229 208.256 88.0869 208.323C88.0734 208.344 88.0662 208.368 88.0662 208.393C88.0662 208.418 88.0734 208.442 88.0869 208.462C88.1183 208.52 88.1644 208.569 88.2205 208.604C88.2767 208.639 88.3409 208.659 88.407 208.662C88.7996 208.662 89.4821 208.215 90.2553 207.405C89.5463 207.543 88.8647 207.796 88.2379 208.154Z" fill="#37474F"/>
<path d="M90.6546 207.303H90.6063C90.0023 207.466 88.45 207.381 88.1903 206.904C88.1359 206.795 88.1178 206.608 88.3594 206.385C88.5316 206.224 88.7584 206.136 88.9936 206.137C89.7849 206.137 90.6305 207.073 90.6607 207.115C90.6708 207.132 90.6762 207.151 90.6762 207.17C90.6762 207.189 90.6708 207.208 90.6607 207.224C90.6666 207.25 90.6645 207.278 90.6546 207.303ZM88.5769 206.524L88.5225 206.572C88.3655 206.717 88.4017 206.789 88.4138 206.813C88.5587 207.103 89.6641 207.242 90.3526 207.146C89.9922 206.752 89.5128 206.487 88.9876 206.391C88.8396 206.388 88.6949 206.434 88.5769 206.524Z" fill="#37474F"/>
<path d="M79.6198 86.3031C79.3359 87.6017 79.0158 88.7735 78.6534 89.9875C78.291 91.2016 77.9165 92.4035 77.4816 93.5632C76.6459 95.9462 75.6656 98.2759 74.5461 100.539L73.6583 102.231C73.3381 102.786 73.0543 103.342 72.6919 103.892L72.1724 104.707C71.9912 104.985 71.8523 105.233 71.6047 105.559C71.4839 105.716 71.3631 105.873 71.2 106.06C70.9948 106.302 70.7639 106.521 70.5114 106.712C70.2061 106.946 69.8537 107.111 69.4786 107.196C69.3041 107.235 69.1259 107.255 68.9471 107.256C68.7283 107.258 68.5105 107.228 68.3008 107.165C67.9089 107.059 67.5524 106.851 67.2679 106.561C66.9828 106.276 66.775 105.922 66.6639 105.535C66.6079 105.355 66.5695 105.171 66.5492 104.985C66.5019 104.549 66.5019 104.11 66.5492 103.674C66.5915 103.312 66.6519 102.974 66.7123 102.647C66.8331 101.989 66.9901 101.373 67.1532 100.757C67.4923 99.5444 67.8955 98.3509 68.3612 97.1812L70.7772 97.7127L70.6141 101.337C70.6141 101.941 70.5779 102.508 70.5718 103.064C70.5718 103.342 70.5718 103.614 70.5718 103.855C70.5706 104.029 70.5951 104.202 70.6443 104.369C70.6443 104.369 70.6443 104.369 70.6443 104.26C70.5697 104.032 70.4413 103.824 70.2698 103.656C70.0357 103.418 69.7447 103.243 69.4242 103.149C69.2507 103.102 69.0723 103.076 68.8927 103.07C68.7505 103.073 68.6089 103.089 68.4699 103.119C68.2536 103.171 68.0488 103.263 67.8659 103.39C67.7391 103.481 67.7874 103.433 67.8115 103.39L67.9505 103.155L68.7598 101.705C69.0316 101.198 69.2793 100.678 69.545 100.165L70.2879 98.5945C71.2302 96.4624 72.0999 94.2699 72.8247 92.0351C73.1992 90.9177 73.5435 89.7882 73.8878 88.6587C74.2321 87.5292 74.5401 86.3635 74.8119 85.2944L79.6198 86.3031Z" fill="#FF8B7B"/>
<path d="M77.5537 80.0155C75.8021 80.2993 73.0237 91.4311 73.0237 91.4311L77.0645 94.5417C77.0645 94.5417 81.1173 86.4964 81.2925 82.8784C81.4133 80.2571 78.8765 79.8041 77.5537 80.0155Z" fill="#FF8B7B"/>
<path d="M71.2176 98.2503L70.5351 92.7177L67.3641 97.3685C67.4991 97.929 67.7942 98.4382 68.2136 98.8339C68.6329 99.2297 69.1583 99.4949 69.7258 99.5972L71.2176 98.2503Z" fill="#FF8B7B"/>
<path d="M93.3785 214.551L88.5465 214.714L87.6223 197.85L94.3267 197.947L93.3785 214.551Z" fill="#FF8B7B"/>
<path d="M88.2202 213.173L93.6562 213.137C93.7471 213.134 93.8358 213.166 93.9034 213.227C93.9711 213.288 94.0124 213.373 94.0186 213.463L94.3447 217.746C94.348 217.971 94.2622 218.188 94.106 218.349C93.9499 218.511 93.736 218.605 93.5112 218.609C91.6267 218.609 90.7207 218.483 88.341 218.501C86.8732 218.501 84.717 218.676 82.6996 218.694C80.6822 218.712 80.7004 216.707 81.558 216.52C85.3934 215.68 86.0639 214.557 87.4108 213.5C87.6381 213.306 87.9222 213.192 88.2202 213.173Z" fill="#263238"/>
<path d="M77.2572 79.9792C77.2572 79.9792 74.8412 80.5832 74.8412 109.171L94.2236 110.886C95.196 102.919 95.9812 98.0207 102.402 82.063C99.7676 81.2565 97.0761 80.6507 94.3504 80.251C91.4418 79.778 88.5026 79.5176 85.5562 79.4718C81.6906 79.4778 77.2572 79.9792 77.2572 79.9792Z" fill="#37474F"/>
<path opacity="0.2" d="M98.5542 85.7112L99.5871 89.2325C98.7777 91.4129 98.1073 93.3397 97.5456 95.0732C97.1175 91.9169 97.4637 88.7039 98.5542 85.7112Z" fill="black"/>
<path d="M70.5351 92.7177L67.3641 97.3685L71.2176 97.145L73.2712 92.8928L70.5351 92.7177Z" fill="#FF8B7B"/>
<path d="M72.5469 103.414L76.1709 103.36C76.2903 103.358 76.4078 103.33 76.5157 103.279C76.6237 103.228 76.7196 103.155 76.7972 103.064C76.8748 102.974 76.9323 102.867 76.9659 102.753C76.9996 102.638 77.0086 102.518 76.9924 102.4L75.8629 94.2759C75.8361 94.0721 75.735 93.8854 75.5789 93.7516C75.4228 93.6178 75.2228 93.5464 75.0173 93.5511L71.3933 93.6055C71.2739 93.606 71.156 93.6321 71.0475 93.6821C70.9391 93.7321 70.8427 93.8047 70.7648 93.8952C70.6869 93.9857 70.6294 94.0919 70.5961 94.2065C70.5628 94.3212 70.5545 94.4417 70.5718 94.5598L71.7013 102.684C71.728 102.888 71.8289 103.075 71.9848 103.21C72.1408 103.345 72.3408 103.418 72.5469 103.414Z" fill="#263238"/>
<path d="M95.0756 70.1945C94.0548 72.997 92.6596 78.1673 94.3206 80.245C91.4313 82.6606 88.1935 84.6256 84.717 86.0736C82.6936 81.3504 85.5263 79.4659 85.5263 79.4659C88.8061 78.9887 89.1081 76.621 88.9148 74.356L95.0756 70.1945Z" fill="#FF8B7B"/>
<path d="M81.7994 66.9811C81.292 75.3707 76.2486 77.7746 77.4325 82.0811C79.1055 88.1211 85.9308 83.3918 85.9308 83.3918C85.9308 83.3918 82.2161 84.5998 81.9806 81.6643C81.7873 79.2483 90.3641 79.6228 87.9844 73.9392C86.4562 70.2789 81.7994 66.9811 81.7994 66.9811Z" fill="#263238"/>
<path opacity="0.2" d="M93.3177 72.3145L88.9206 74.356C88.9688 74.8864 88.9688 75.4201 88.9206 75.9505C89.8386 76.0351 92.2184 75.3465 93.1184 73.8607C93.3677 73.3858 93.4385 72.8371 93.3177 72.3145Z" fill="black"/>
<path d="M95.8371 62.3061C96.278 67.0657 96.5679 69.077 94.5566 71.8675C91.5366 76.0653 85.5872 75.57 83.7329 71.0279C82.0598 66.9449 81.6189 59.8418 85.9496 57.2506C86.901 56.673 87.9845 56.3485 89.0968 56.3079C90.2091 56.2673 91.3133 56.512 92.3043 57.0187C93.2953 57.5255 94.1402 58.2773 94.7586 59.2028C95.377 60.1283 95.7482 61.1966 95.8371 62.3061Z" fill="#FF8B7B"/>
<path d="M94.7855 57.5285C91.0286 54.9494 87.906 59.9022 94.5741 64.7161C101.242 69.53 99.0558 60.4579 94.7855 57.5285Z" fill="#263238"/>
<path d="M92.7859 56.1453C94.3382 57.5406 85.097 62.6866 80.0717 60.9773C75.0464 59.268 79.0811 55.4326 80.9113 54.9373C79.3409 56.4534 82.0891 58.7546 83.4179 57.3171C84.7467 55.8796 89.6693 53.3488 92.7859 56.1453Z" fill="#263238"/>
<path d="M74.8172 109.171C74.8172 109.171 64.5915 152.471 65.4915 163.404C66.5364 176.184 80.513 196.787 80.513 196.787L86.9335 190.958C86.9335 190.958 80.5613 174.083 75.844 163.09C77.354 152.097 90.7025 121.039 90.7025 110.578L74.8172 109.171Z" fill="#37474F"/>
<path opacity="0.6" d="M74.8172 109.171C74.8172 109.171 64.5915 152.471 65.4915 163.404C66.5364 176.184 80.513 196.787 80.513 196.787L86.9335 190.958C86.9335 190.958 80.5613 174.083 75.844 163.09C77.354 152.097 90.7025 121.039 90.7025 110.578L74.8172 109.171Z" fill="black"/>
<path d="M88.1177 191.828L80.5314 197.482L78.5865 196.002L86.9096 189.436L88.1177 191.828Z" fill="#37474F"/>
<path opacity="0.2" d="M82.3857 128.215C76.7503 136.018 76.4785 150.369 76.8288 158.415C78.7617 151.01 82.8145 139.95 86.0459 129.984C85.9674 126.167 85.0191 124.56 82.3857 128.215Z" fill="black"/>
<path d="M78.4536 109.207C78.4536 109.207 82.1984 146.6 83.4486 159.224C84.9345 174.209 87.1149 198.243 87.1149 198.243L94.3267 197.941C94.3267 197.941 95.9092 177.568 94.7374 164.117C94.9488 146.298 97.5762 122.072 94.1938 110.862L78.4536 109.207Z" fill="#37474F"/>
<path opacity="0.6" d="M78.4536 109.207C78.4536 109.207 82.1984 146.6 83.4486 159.224C84.9345 174.209 87.1149 198.243 87.1149 198.243L94.3267 197.941C94.3267 197.941 95.9092 177.568 94.7374 164.117C94.9488 146.298 97.5762 122.072 94.1938 110.862L78.4536 109.207Z" fill="black"/>
<path d="M94.8767 199.263L86.6018 199.028L86.022 196.425L95.384 196.165L94.8767 199.263Z" fill="#37474F"/>
<path d="M88.4315 64.9336C88.4919 65.3141 88.3349 65.6584 88.0812 65.7007C87.8275 65.7429 87.5799 65.4591 87.5195 65.0967C87.4591 64.7343 87.6161 64.3719 87.8698 64.3296C88.1235 64.2873 88.3711 64.547 88.4315 64.9336Z" fill="#263238"/>
<path d="M84.0891 65.604C84.1495 65.9905 83.9925 66.3348 83.7388 66.371C83.4851 66.4073 83.2375 66.1294 83.1771 65.767C83.1167 65.4046 83.2737 65.0362 83.5274 65C83.7811 64.9637 84.0287 65.2234 84.0891 65.604Z" fill="#263238"/>
<path d="M83.636 64.9819L82.6756 64.8611C82.6756 64.8611 83.2615 65.5074 83.636 64.9819Z" fill="#263238"/>
<path d="M85.5144 65.9845C85.3062 66.9131 84.973 67.8091 84.5239 68.6481C84.7413 68.757 84.9798 68.8172 85.2229 68.8245C85.4659 68.8318 85.7076 68.7861 85.9312 68.6904L85.5144 65.9845Z" fill="#FF5652"/>
<path d="M88.4315 69.7475C88.2354 69.817 88.0332 69.8676 87.8274 69.8985C87.7978 69.9038 87.7673 69.8973 87.7425 69.8803C87.7176 69.8634 87.7004 69.8374 87.6946 69.8079C87.692 69.7928 87.6925 69.7773 87.696 69.7624C87.6994 69.7475 87.7059 69.7334 87.7149 69.7211C87.7239 69.7087 87.7353 69.6982 87.7484 69.6903C87.7615 69.6824 87.7761 69.6772 87.7912 69.675C88.2713 69.6128 88.7297 69.4374 89.1288 69.1633C89.5278 68.8893 89.856 68.5243 90.0864 68.0985C90.1006 68.0726 90.1237 68.0527 90.1516 68.0427C90.1794 68.0326 90.2099 68.0332 90.2374 68.0442C90.2513 68.0501 90.2639 68.0587 90.2745 68.0695C90.285 68.0803 90.2934 68.0931 90.299 68.1071C90.3046 68.1212 90.3074 68.1362 90.3072 68.1513C90.307 68.1664 90.3038 68.1813 90.2978 68.1952C89.9021 68.9363 89.2323 69.4934 88.4315 69.7475Z" fill="#263238"/>
<path d="M97.1596 65.5557C97.1272 66.0181 97.0038 66.4695 96.7965 66.8841C96.5892 67.2987 96.3021 67.6683 95.9516 67.9717C95.0214 68.769 94.0369 68.0683 93.8617 66.9147C93.6987 65.8818 93.9946 64.2208 95.1362 63.8947C95.384 63.8186 95.6468 63.805 95.9011 63.8551C96.1554 63.9052 96.3934 64.0176 96.5938 64.182C96.7941 64.3465 96.9507 64.558 97.0494 64.7977C97.1481 65.0374 97.186 65.2978 97.1596 65.5557Z" fill="#FF8B7B"/>
<path d="M90.4068 62.5538C90.3766 62.5598 90.3456 62.5597 90.3155 62.5535C90.2854 62.5473 90.2569 62.5351 90.2316 62.5176C90.0008 62.3462 89.7326 62.2321 89.449 62.1849C89.1654 62.1376 88.8747 62.1585 88.6008 62.2458C88.5731 62.2575 88.5433 62.2635 88.5133 62.2634C88.4832 62.2633 88.4535 62.2572 88.4258 62.2453C88.3982 62.2335 88.3732 62.2162 88.3525 62.1945C88.3317 62.1728 88.3155 62.1471 88.3048 62.119C88.2829 62.0629 88.2839 62.0004 88.3077 61.945C88.3314 61.8896 88.3759 61.8458 88.4317 61.823C88.7753 61.706 89.1422 61.674 89.5009 61.7298C89.8596 61.7855 90.1994 61.9274 90.4913 62.1431C90.5403 62.1773 90.574 62.2293 90.5852 62.2879C90.5965 62.3466 90.5845 62.4073 90.5517 62.4572C90.516 62.5052 90.4648 62.5393 90.4068 62.5538Z" fill="#263238"/>
<path d="M82.2046 63.937C82.178 63.949 82.1492 63.9552 82.12 63.9552C82.0908 63.9552 82.062 63.949 82.0354 63.937C82.0082 63.9247 81.9836 63.907 81.9633 63.885C81.943 63.863 81.9273 63.8372 81.9171 63.809C81.907 63.7808 81.9026 63.7509 81.9043 63.721C81.9059 63.6911 81.9135 63.6619 81.9267 63.635C82.0698 63.302 82.2911 63.0084 82.5718 62.7792C82.8526 62.5499 83.1845 62.3918 83.5394 62.3182C83.5973 62.314 83.6546 62.3318 83.6998 62.3681C83.7451 62.4044 83.7749 62.4564 83.7833 62.5138C83.7918 62.5712 83.7781 62.6297 83.7452 62.6774C83.7123 62.7252 83.6625 62.7587 83.6058 62.7712C83.3258 62.8344 83.0648 62.9631 82.8443 63.1469C82.6237 63.3307 82.45 63.5642 82.3374 63.8282C82.3238 63.8544 82.305 63.8776 82.2822 63.8963C82.2593 63.915 82.2329 63.9288 82.2046 63.937Z" fill="#263238"/>
<path d="M103.677 87.8615C103.768 88.7373 103.816 89.5043 103.84 90.3197C103.864 91.1351 103.882 91.9203 103.876 92.7357C103.852 94.3464 103.75 95.9571 103.568 97.5677C103.383 99.1981 103.08 100.813 102.662 102.4C102.447 103.219 102.185 104.026 101.877 104.816C101.726 105.214 101.557 105.613 101.382 106.024C101.382 106.024 101.291 106.217 101.231 106.326C101.167 106.451 101.092 106.57 101.007 106.682C100.858 106.903 100.684 107.106 100.488 107.286C100.17 107.558 99.814 107.782 99.431 107.951C98.8838 108.18 98.3057 108.326 97.7156 108.385C97.2444 108.437 96.7702 108.458 96.2962 108.446C95.4428 108.423 94.5917 108.348 93.7473 108.222C92.1652 107.972 90.5984 107.633 89.0542 107.208C87.5382 106.791 86.0342 106.332 84.5665 105.843C83.0988 105.353 81.6371 104.81 80.1815 104.2L80.9365 101.88C82.4042 102.2 83.8961 102.539 85.3819 102.823C86.8677 103.106 88.3476 103.427 89.8213 103.644C91.2951 103.861 92.7688 104.085 94.1943 104.176C94.8754 104.229 95.5592 104.241 96.2418 104.212C96.5335 104.198 96.824 104.166 97.1116 104.115C97.2856 104.088 97.4545 104.035 97.6129 103.958C97.6129 103.958 97.6129 103.958 97.5223 104.006C97.4667 104.049 97.4179 104.1 97.3774 104.157L97.3049 104.266C97.3049 104.266 97.2505 104.387 97.3049 104.308C97.4196 103.994 97.5344 103.704 97.631 103.354C97.8364 102.702 98.0055 102.031 98.1565 101.349C98.4393 99.9523 98.641 98.5406 98.7605 97.1208C98.8934 95.6833 98.9357 94.2216 98.9357 92.7599C98.9357 92.0291 98.9357 91.2982 98.9357 90.5674C98.9357 89.8365 98.8692 89.0815 98.827 88.4292L103.677 87.8615Z" fill="#FF8B7B"/>
<path d="M102.354 82.063C104.438 83.422 103.731 95.2664 103.731 95.2664L98.8268 96.251C98.8268 96.251 98.7845 90.2109 98.259 86.291C97.9027 83.6273 100.868 81.0905 102.354 82.063Z" fill="#FF8B7B"/>
<path d="M85.5621 213.735C85.5032 213.657 85.4632 213.566 85.4454 213.469C85.4276 213.373 85.4324 213.274 85.4594 213.18C85.4706 213.11 85.4992 213.044 85.5424 212.988C85.5857 212.932 85.6423 212.888 85.707 212.859C86.311 212.6 87.6882 213.536 87.8452 213.639C87.863 213.651 87.8765 213.669 87.884 213.689C87.8915 213.71 87.8928 213.732 87.8875 213.753C87.8822 213.776 87.871 213.797 87.8551 213.814C87.8392 213.831 87.8191 213.843 87.7969 213.85C87.1627 214.001 86.0332 214.194 85.6104 213.784L85.5621 213.735ZM87.4828 213.687C86.8788 213.331 86.0936 212.926 85.7856 213.083C85.7574 213.096 85.7332 213.117 85.7152 213.142C85.6973 213.167 85.6861 213.197 85.6829 213.228C85.6607 213.297 85.6574 213.371 85.6734 213.442C85.6893 213.514 85.7238 213.579 85.7735 213.633C86.003 213.838 86.6312 213.862 87.4828 213.699V213.687Z" fill="#37474F"/>
<path d="M87.1449 213.306C86.9739 213.135 86.8385 212.931 86.7462 212.708C86.654 212.484 86.6068 212.244 86.6073 212.002C86.6337 211.912 86.6876 211.833 86.7612 211.776C86.8349 211.718 86.9247 211.685 87.018 211.682C87.1024 211.668 87.1887 211.675 87.2703 211.7C87.352 211.725 87.4268 211.768 87.4891 211.827C87.9784 212.286 87.8938 213.675 87.8878 213.735C87.8869 213.756 87.8809 213.776 87.8704 213.794C87.8599 213.812 87.8451 213.827 87.8274 213.838C87.8096 213.847 87.7899 213.852 87.77 213.852C87.7501 213.852 87.7304 213.847 87.7126 213.838C87.4966 213.692 87.305 213.512 87.1449 213.306ZM87.3744 212.05C87.3598 212.032 87.3437 212.016 87.3261 212.002C87.2873 211.964 87.2405 211.936 87.1892 211.919C87.1379 211.903 87.0835 211.898 87.0301 211.905C86.8791 211.905 86.8489 211.99 86.8308 212.044C86.7402 212.376 87.2355 213.155 87.6703 213.518C87.7104 213.011 87.6079 212.502 87.3744 212.05Z" fill="#37474F"/>
<path d="M94.6704 109.762L94.8818 111.574C94.9301 111.713 94.7489 111.84 94.5254 111.816L74.5934 110.052C74.4182 110.052 74.2853 109.938 74.2914 109.829L74.4061 108.065C74.4061 107.944 74.5813 107.854 74.7685 107.872L94.3925 109.611C94.4479 109.61 94.5027 109.624 94.5514 109.65C94.6001 109.677 94.6411 109.715 94.6704 109.762Z" fill="white"/>
<path d="M91.6752 111.744L92.2007 111.786C92.3094 111.786 92.394 111.75 92.4 111.683L92.5208 109.394C92.5208 109.328 92.4423 109.261 92.3397 109.255L91.8081 109.207C91.7054 109.207 91.6148 109.243 91.6088 109.309L91.488 111.605C91.488 111.671 91.5726 111.732 91.6752 111.744Z" fill="#37474F"/>
<path opacity="0.6" d="M91.6752 111.744L92.2007 111.786C92.3094 111.786 92.394 111.75 92.4 111.683L92.5208 109.394C92.5208 109.328 92.4423 109.261 92.3397 109.255L91.8081 109.207C91.7054 109.207 91.6148 109.243 91.6088 109.309L91.488 111.605C91.488 111.671 91.5726 111.732 91.6752 111.744Z" fill="black"/>
<path d="M76.0251 110.354L76.5506 110.403C76.6593 110.403 76.7438 110.366 76.7499 110.3L76.8707 108.005C76.8707 107.938 76.7922 107.878 76.6895 107.866L76.164 107.824C76.0553 107.824 75.9707 107.86 75.9647 107.926L75.8439 110.215C75.8378 110.282 75.9224 110.348 76.0251 110.354Z" fill="#37474F"/>
<path opacity="0.6" d="M76.0251 110.354L76.5506 110.403C76.6593 110.403 76.7438 110.366 76.7499 110.3L76.8707 108.005C76.8707 107.938 76.7922 107.878 76.6895 107.866L76.164 107.824C76.0553 107.824 75.9707 107.86 75.9647 107.926L75.8439 110.215C75.8378 110.282 75.9224 110.348 76.0251 110.354Z" fill="black"/>
<path d="M83.8535 111.049L84.3789 111.097C84.4816 111.097 84.5722 111.055 84.5722 110.989L84.6991 108.699C84.6991 108.633 84.6205 108.573 84.5118 108.561L83.9863 108.512C83.8837 108.512 83.7931 108.554 83.7931 108.621L83.6662 110.91C83.6662 110.977 83.7508 111.019 83.8535 111.049Z" fill="#37474F"/>
<path opacity="0.6" d="M83.8535 111.049L84.3789 111.097C84.4816 111.097 84.5722 111.055 84.5722 110.989L84.6991 108.699C84.6991 108.633 84.6205 108.573 84.5118 108.561L83.9863 108.512C83.8837 108.512 83.7931 108.554 83.7931 108.621L83.6662 110.91C83.6662 110.977 83.7508 111.019 83.8535 111.049Z" fill="black"/>
<path d="M81.6904 102.025L78.6704 97.9966L77.4141 102.829C77.4141 102.829 79.6609 104.792 81.5696 104.037L81.6904 102.025Z" fill="#FF8B7B"/>
<path d="M74.805 97.1086L73.9655 101.186L78.0425 103.269L78.6888 97.9965L74.805 97.1086Z" fill="#FF8B7B"/>
<path d="M87.9844 64.3114L87.018 64.1906C87.018 64.1906 87.5798 64.8368 87.9844 64.3114Z" fill="#263238"/>
</svg>
